<?xml version="1.0" encoding="utf-8"?>
<!DOCTYPE svg PUBLIC "-//W3C//DTD SVG 1.1//EN" "http://www.w3.org/Graphics/SVG/1.1/DTD/svg11.dtd">
<svg xmlns="http://www.w3.org/2000/svg" xmlns:xlink="http://www.w3.org/1999/xlink" version="1.1" baseProfile="full" width="300" height="300" viewBox="0 0 300.00 300.00" enable-background="new 0 0 300.00 300.00" xml:space="preserve">
	<rect x="0" y="6.10352e-005" fill="#F5E7EB" fill-opacity="1" stroke-linejoin="round" width="300" height="300"/>
	<g>
		<path fill="none" stroke-width="2" stroke-linejoin="round" stroke="#FFCFDC" stroke-opacity="1" d="M 18.3714,37.0248C 24.4859,37.0248 29.4428,39.9518 29.4428,43.5622C 29.4428,47.1727 24.486,50.0997 18.3714,50.0997C 12.2568,50.0997 7.29997,47.1727 7.29997,43.5622C 7.29997,39.9518 12.2568,37.0248 18.3714,37.0248 Z "/>
		<path fill="none" stroke-width="2" stroke-linejoin="round" stroke="#FFCFDC" stroke-opacity="1" d="M 45.47,43.6677C 51.5846,43.6677 56.5414,46.5946 56.5414,50.2051C 56.5414,53.8156 51.5846,56.7425 45.47,56.7425C 39.3554,56.7425 34.3986,53.8156 34.3986,50.2051C 34.3986,46.5946 39.3555,43.6677 45.47,43.6677 Z "/>
		<path fill="none" stroke-width="2" stroke-linejoin="round" stroke="#FFCFDC" stroke-opacity="1" d="M 37.2455,15.4091C 43.3601,15.4091 48.317,18.3361 48.317,21.9466C 48.317,25.5571 43.3601,28.484 37.2455,28.484C 31.131,28.484 26.1741,25.5571 26.1741,21.9466C 26.1741,18.3361 31.131,15.4091 37.2455,15.4091 Z "/>
		<line fill="none" stroke-width="2" stroke-linejoin="round" stroke="#FFCFDC" stroke-opacity="1" x1="29.6537" y1="26.6915" x2="19.1095" y2="37.4466"/>
		<line fill="none" stroke-width="2" stroke-linejoin="round" stroke="#FFCFDC" stroke-opacity="1" x1="40.8306" y1="28.5894" x2="44.8374" y2="43.7731"/>
	</g>
	<ellipse fill="#FFFFFF" fill-opacity="1" stroke-width="2" stroke-linejoin="round" stroke="#FFCFDC" stroke-opacity="1" cx="38.75" cy="136.867" rx="38.75" ry="23.5"/>
	<g>
		<path fill="#5D7A8F" fill-opacity="1" stroke-linejoin="round" d="M 30.5666,133.309L 30.5666,138.8C 30.5666,139.998 30.1182,141.015 29.2213,141.853C 28.3244,142.69 27.2458,143.109 25.9854,143.109C 25.3625,143.109 24.7765,143.003 24.2276,142.792C 23.6786,142.581 23.1859,142.27 22.7494,141.861C 22.313,141.451 21.9734,141.025 21.7307,140.581C 21.488,140.137 21.3666,139.544 21.3666,138.8L 21.3666,133.309C 20.8437,133.309 20.4796,133.217 20.2744,133.034C 20.0692,132.851 19.9666,132.609 19.9666,132.309C 19.9666,132.009 20.0692,131.768 20.2744,131.584C 20.4796,131.401 20.8437,131.309 21.3666,131.309L 24.1666,131.309C 24.5562,131.309 24.8536,131.401 25.0588,131.584C 25.264,131.768 25.3666,132.009 25.3666,132.309C 25.3666,132.609 25.264,132.851 25.0588,133.034C 24.8536,133.217 24.5562,133.309 24.1666,133.309L 23.3666,133.309L 23.3666,138.925C 23.3666,139.5 23.6197,140.008 24.126,140.448C 24.6322,140.889 25.2427,141.109 25.9573,141.109C 26.4322,141.109 26.8786,141.003 27.2963,140.79C 27.714,140.578 28.0552,140.269 28.3197,139.862C 28.4843,139.606 28.5666,139.294 28.5666,138.925L 28.5666,133.309L 27.7666,133.309C 27.377,133.309 27.0796,133.217 26.8744,133.034C 26.6692,132.851 26.5666,132.609 26.5666,132.309C 26.5666,132.009 26.6692,131.768 26.8744,131.584C 27.0796,131.401 27.377,131.309 27.7666,131.309L 30.5666,131.309C 31.0895,131.309 31.4536,131.401 31.6588,131.584C 31.864,131.768 31.9666,132.009 31.9666,132.309C 31.9666,132.609 31.864,132.851 31.6588,133.034C 31.4536,133.217 31.0895,133.309 30.5666,133.309 Z "/>
		<path fill="#5D7A8F" fill-opacity="1" stroke-linejoin="round" d="M 34.7666,135.159L 34.7666,140.909L 35.5666,140.909C 36.0895,140.909 36.4536,141.001 36.6588,141.184C 36.864,141.367 36.9666,141.609 36.9666,141.909C 36.9666,142.209 36.864,142.451 36.6588,142.634C 36.4536,142.817 36.0895,142.909 35.5666,142.909L 32.7666,142.909C 32.2437,142.909 31.8796,142.817 31.6744,142.634C 31.4692,142.451 31.3666,142.209 31.3666,141.909C 31.3666,141.609 31.4692,141.367 31.6744,141.184C 31.8796,141.001 32.2437,140.909 32.7666,140.909L 32.7666,133.309C 32.2437,133.309 31.8796,133.217 31.6744,133.034C 31.4692,132.851 31.3666,132.609 31.3666,132.309C 31.3666,132.009 31.4692,131.768 31.6744,131.584C 31.8796,131.401 32.2437,131.309 32.7666,131.309L 34.8604,131.309L 38.0666,137.309L 40.9416,131.309L 43.1666,131.309C 43.6895,131.309 44.0536,131.401 44.2588,131.584C 44.464,131.768 44.5666,132.009 44.5666,132.309C 44.5666,132.609 44.464,132.851 44.2588,133.034C 44.0536,133.217 43.6895,133.309 43.1666,133.309L 43.1666,140.909C 43.6895,140.909 44.0536,141.001 44.2588,141.184C 44.464,141.367 44.5666,141.609 44.5666,141.909C 44.5666,142.209 44.464,142.451 44.2588,142.634C 44.0536,142.817 43.6895,142.909 43.1666,142.909L 40.3666,142.909C 39.8437,142.909 39.4796,142.817 39.2744,142.634C 39.0692,142.451 38.9666,142.209 38.9666,141.909C 38.9666,141.609 39.0692,141.367 39.2744,141.184C 39.4796,141.001 39.8437,140.909 40.3666,140.909L 41.1666,140.909L 41.1666,135.159L 38.751,140.2L 37.4604,140.2L 34.7666,135.159 Z "/>
		<path fill="#5D7A8F" fill-opacity="1" stroke-linejoin="round" d="M 48.9666,133.309L 48.9666,140.909L 53.3666,140.909L 53.3666,139.109C 53.3666,138.586 53.4583,138.222 53.6416,138.017C 53.825,137.812 54.0666,137.709 54.3666,137.709C 54.6666,137.709 54.9083,137.812 55.0916,138.017C 55.2749,138.222 55.3666,138.586 55.3666,139.109L 55.3666,142.909L 45.7666,142.909C 45.2437,142.909 44.8796,142.817 44.6744,142.634C 44.4692,142.451 44.3666,142.209 44.3666,141.909C 44.3666,141.609 44.4692,141.367 44.6744,141.184C 44.8796,141.001 45.2437,140.909 45.7666,140.909L 46.9666,140.909L 46.9666,133.309L 45.7666,133.309C 45.2437,133.309 44.8796,133.217 44.6744,133.034C 44.4692,132.851 44.3666,132.609 44.3666,132.309C 44.3666,132.009 44.4692,131.768 44.6744,131.584C 44.8796,131.401 45.2437,131.309 45.7666,131.309L 50.1666,131.309C 50.6895,131.309 51.0536,131.401 51.2588,131.584C 51.464,131.768 51.5666,132.009 51.5666,132.309C 51.5666,132.609 51.464,132.851 51.2588,133.034C 51.0536,133.217 50.6895,133.309 50.1666,133.309L 48.9666,133.309 Z "/>
	</g>
	<ellipse fill="#FFFFFF" fill-opacity="1" stroke-width="2" stroke-linejoin="round" stroke="#FFCFDC" stroke-opacity="1" cx="230.404" cy="103.617" rx="38.75" ry="23.5"/>
	<g>
		<path fill="#5D7A8F" fill-opacity="1" stroke-linejoin="round" d="M 205.7,108.842L 205.7,99.7225L 205.22,99.7225C 204.592,99.7225 204.156,99.6125 203.909,99.3925C 203.663,99.1725 203.54,98.8825 203.54,98.5225C 203.54,98.1625 203.663,97.8725 203.909,97.6525C 204.156,97.4325 204.592,97.3225 205.22,97.3225L 211.107,97.3225C 212.512,97.3225 213.642,97.7 214.497,98.455C 215.352,99.21 215.78,100.107 215.78,101.148C 215.78,101.64 215.681,102.104 215.484,102.539C 215.286,102.974 214.985,103.375 214.58,103.742C 215.38,104.202 215.98,104.739 216.38,105.351C 216.78,105.964 216.98,106.657 216.98,107.432C 216.98,108.05 216.844,108.624 216.571,109.154C 216.371,109.556 216.124,109.876 215.829,110.114C 215.434,110.446 214.949,110.717 214.376,110.927C 213.802,111.137 213.084,111.242 212.221,111.242L 205.22,111.242C 204.592,111.242 204.156,111.132 203.909,110.912C 203.663,110.692 203.54,110.402 203.54,110.042C 203.54,109.682 203.663,109.393 203.909,109.172C 204.156,108.952 204.592,108.842 205.22,108.842L 205.7,108.842 Z M 208.1,102.842L 210.575,102.842C 211.462,102.842 212.2,102.63 212.787,102.205C 213.182,101.917 213.38,101.561 213.38,101.136C 213.38,100.759 213.193,100.429 212.819,100.146C 212.446,99.8638 211.851,99.7225 211.036,99.7225L 208.1,99.7225L 208.1,102.842 Z M 208.1,108.842L 212.131,108.842C 213.081,108.842 213.75,108.694 214.137,108.396C 214.432,108.171 214.58,107.85 214.58,107.432C 214.58,106.935 214.287,106.446 213.702,105.964C 213.117,105.483 212.279,105.242 211.186,105.242L 208.1,105.242L 208.1,108.842 Z "/>
		<path fill="#5D7A8F" fill-opacity="1" stroke-linejoin="round" d="M 223.46,106.442L 223.46,108.842L 225.86,108.842C 226.487,108.842 226.924,108.952 227.171,109.172C 227.417,109.393 227.54,109.682 227.54,110.042C 227.54,110.402 227.417,110.692 227.171,110.912C 226.924,111.132 226.487,111.242 225.86,111.242L 220.58,111.242C 219.952,111.242 219.516,111.132 219.269,110.912C 219.023,110.692 218.9,110.402 218.9,110.042C 218.9,109.682 219.023,109.393 219.269,109.172C 219.516,108.952 219.952,108.842 220.58,108.842L 221.06,108.842L 221.06,99.7225L 220.58,99.7225C 219.952,99.7225 219.516,99.6125 219.269,99.3925C 219.023,99.1725 218.9,98.8825 218.9,98.5225C 218.9,98.1625 219.023,97.8725 219.269,97.6525C 219.516,97.4325 219.952,97.3225 220.58,97.3225L 226.104,97.3225C 227.726,97.3225 229.011,97.7562 229.959,98.6237C 230.906,99.4913 231.38,100.548 231.38,101.792C 231.38,102.48 231.224,103.13 230.911,103.742C 230.674,104.2 230.277,104.652 229.722,105.1C 229.167,105.547 228.599,105.883 228.016,106.107C 227.434,106.331 226.664,106.442 225.706,106.442L 223.46,106.442 Z M 223.46,104.042L 225.639,104.042C 226.666,104.042 227.48,103.817 228.08,103.366C 228.68,102.914 228.98,102.371 228.98,101.736C 228.98,101.199 228.737,100.729 228.251,100.326C 227.764,99.9238 227.07,99.7225 226.167,99.7225L 223.46,99.7225L 223.46,104.042 Z "/>
		<path fill="#5D7A8F" fill-opacity="1" stroke-linejoin="round" d="M 235.46,101.943L 235.46,108.842L 236.42,108.842C 237.047,108.842 237.484,108.952 237.731,109.172C 237.977,109.393 238.1,109.682 238.1,110.042C 238.1,110.402 237.977,110.692 237.731,110.912C 237.484,111.132 237.047,111.242 236.42,111.242L 233.06,111.242C 232.432,111.242 231.995,111.132 231.749,110.912C 231.503,110.692 231.38,110.402 231.38,110.042C 231.38,109.682 231.503,109.393 231.749,109.172C 231.995,108.952 232.432,108.842 233.06,108.842L 233.06,99.7225C 232.432,99.7225 231.995,99.6125 231.749,99.3925C 231.503,99.1725 231.38,98.8825 231.38,98.5225C 231.38,98.1625 231.503,97.8725 231.749,97.6525C 231.995,97.4325 232.432,97.3225 233.06,97.3225L 235.572,97.3225L 239.42,104.523L 242.87,97.3225L 245.54,97.3225C 246.167,97.3225 246.604,97.4325 246.851,97.6525C 247.097,97.8725 247.22,98.1625 247.22,98.5225C 247.22,98.8825 247.097,99.1725 246.851,99.3925C 246.604,99.6125 246.167,99.7225 245.54,99.7225L 245.54,108.842C 246.167,108.842 246.604,108.952 246.851,109.172C 247.097,109.393 247.22,109.682 247.22,110.042C 247.22,110.402 247.097,110.692 246.851,110.912C 246.604,111.132 246.167,111.242 245.54,111.242L 242.18,111.242C 241.552,111.242 241.116,111.132 240.869,110.912C 240.623,110.692 240.5,110.402 240.5,110.042C 240.5,109.682 240.623,109.393 240.869,109.172C 241.116,108.952 241.552,108.842 242.18,108.842L 243.14,108.842L 243.14,101.943L 240.241,107.991L 238.692,107.991L 235.46,101.943 Z "/>
		<path fill="#5D7A8F" fill-opacity="1" stroke-linejoin="round" d="M 250.58,101.766L 250.58,108.842L 251.54,108.842C 252.167,108.842 252.604,108.952 252.851,109.172C 253.097,109.393 253.22,109.682 253.22,110.042C 253.22,110.402 253.097,110.692 252.851,110.912C 252.604,111.132 252.167,111.242 251.54,111.242L 248.18,111.242C 247.552,111.242 247.116,111.132 246.869,110.912C 246.623,110.692 246.5,110.402 246.5,110.042C 246.5,109.682 246.623,109.393 246.869,109.172C 247.116,108.952 247.552,108.842 248.18,108.842L 248.18,99.7225L 247.7,99.7225C 247.072,99.7225 246.636,99.6125 246.389,99.3925C 246.143,99.1725 246.02,98.8825 246.02,98.5225C 246.02,98.1625 246.143,97.8725 246.389,97.6525C 246.636,97.4325 247.072,97.3225 247.7,97.3225L 250.276,97.3225L 256.58,106.765L 256.58,99.7225L 255.62,99.7225C 254.992,99.7225 254.555,99.6125 254.309,99.3925C 254.063,99.1725 253.94,98.8825 253.94,98.5225C 253.94,98.1625 254.063,97.8725 254.309,97.6525C 254.555,97.4325 254.992,97.3225 255.62,97.3225L 258.98,97.3225C 259.607,97.3225 260.044,97.4325 260.29,97.6525C 260.537,97.8725 260.66,98.1625 260.66,98.5225C 260.66,98.8825 260.537,99.1725 260.29,99.3925C 260.044,99.6125 259.607,99.7225 258.98,99.7225L 258.98,111.242L 256.906,111.242L 250.58,101.766 Z "/>
	</g>
	<g>
		<path fill="none" stroke-width="2" stroke-linejoin="round" stroke="#FFCFDC" stroke-opacity="1" d="M 21.5347,204.286L 27.6874,201.709C 29.3023,201.033 31.1319,201.804 31.7739,203.433L 31.7739,203.433C 32.4159,205.061 31.6272,206.93 30.0123,207.606L 23.8596,210.183C 22.2448,210.859 20.4152,210.088 19.7732,208.459L 19.7732,208.459C 19.1312,206.831 19.9199,204.962 21.5347,204.286 Z "/>
		<path fill="none" stroke-width="2" stroke-linejoin="round" stroke="#FFCFDC" stroke-opacity="1" d="M 44.4046,201.913L 50.5573,199.336C 52.1721,198.66 54.0017,199.432 54.6437,201.06L 54.6437,201.06C 55.2857,202.688 54.497,204.557 52.8822,205.233L 46.7295,207.81C 45.1146,208.487 43.285,207.715 42.643,206.086L 42.643,206.086C 42.001,204.458 42.7897,202.589 44.4046,201.913 Z "/>
		<path fill="none" stroke-width="2" stroke-linejoin="round" stroke="#FFCFDC" stroke-opacity="1" d="M 39.3578,189.112L 45.5105,186.535C 47.1254,185.859 48.9549,186.63 49.597,188.259L 49.597,188.259C 50.239,189.887 49.4503,191.756 47.8354,192.432L 41.6827,195.009C 40.0678,195.686 38.2383,194.914 37.5963,193.285L 37.5963,193.285C 36.9543,191.657 37.7429,189.788 39.3578,189.112 Z "/>
		<path fill="none" stroke-width="2" stroke-linejoin="round" stroke="#FFCFDC" stroke-opacity="1" d="M 57.7953,181.557L 63.948,178.98C 65.5629,178.304 67.3924,179.076 68.0344,180.704L 68.0344,180.704C 68.6764,182.333 67.8878,184.201 66.2729,184.877L 60.1202,187.454C 58.5053,188.131 56.6758,187.359 56.0337,185.73L 56.0337,185.73C 55.3917,184.102 56.1804,182.234 57.7953,181.557 Z "/>
		<path fill="none" stroke-width="2" stroke-linejoin="round" stroke="#FFCFDC" stroke-opacity="1" d="M 62.9555,194.646L 69.1082,192.069C 70.723,191.393 72.5526,192.164 73.1946,193.793L 73.1946,193.793C 73.8366,195.421 73.0479,197.29 71.4331,197.966L 65.2804,200.543C 63.6655,201.219 61.8359,200.448 61.1939,198.819L 61.1939,198.819C 60.5519,197.191 61.3406,195.322 62.9555,194.646 Z "/>
		<path fill="none" stroke-width="2" stroke-linejoin="round" stroke="#FFCFDC" stroke-opacity="1" d="M 7.74012,212.954C 8.3274,212.709 8.98118,212.96 9.20041,213.516C 9.41963,214.072 9.12126,214.722 8.53399,214.968C 7.94672,215.214 7.29293,214.963 7.07371,214.407C 6.85448,213.851 7.15284,213.2 7.74012,212.954 Z "/>
		<path fill="none" stroke-width="2" stroke-linejoin="round" stroke="#FFCFDC" stroke-opacity="1" d="M 84.9128,187.377C 85.5839,187.095 86.3311,187.383 86.5817,188.018C 86.8322,188.654 86.4912,189.397 85.8201,189.678C 85.1489,189.959 84.4017,189.672 84.1512,189.036C 83.9006,188.401 84.2416,187.658 84.9128,187.377 Z "/>
		<path fill="none" stroke-width="2" stroke-linejoin="round" stroke="#FFCFDC" stroke-opacity="1" d="M 79.6108,173.928C 80.282,173.647 81.0292,173.934 81.2797,174.57C 81.5303,175.205 81.1893,175.948 80.5181,176.23C 79.847,176.511 79.0998,176.223 78.8492,175.588C 78.5987,174.952 78.9397,174.209 79.6108,173.928 Z "/>
		<line fill="none" stroke-width="2" stroke-linejoin="round" stroke="#FFCFDC" stroke-opacity="1" x1="9.39622" y1="213.338" x2="19.8056" y2="208.99"/>
		<path fill="none" stroke-width="2" stroke-linejoin="round" stroke="#FFCFDC" stroke-opacity="1" d="M 24.6688,202.47C 24.2592,201.469 23.8496,200.467 23.7655,199.637C 23.6814,198.806 23.9228,198.147 26.1314,196.977C 28.3399,195.808 32.5157,194.128 36.6915,192.449"/>
		<path fill="none" stroke-width="2" stroke-linejoin="round" stroke="#FFCFDC" stroke-opacity="1" d="M 27.1588,209.011C 27.658,210.352 28.1572,211.693 28.7247,212.328C 29.2922,212.963 29.928,212.892 32.2729,211.994C 34.6179,211.096 38.6719,209.37 42.726,207.644"/>
		<line fill="none" stroke-width="2" stroke-linejoin="round" stroke="#FFCFDC" stroke-opacity="1" x1="49.4364" y1="187.74" x2="55.5507" y2="185.179"/>
		<line fill="none" stroke-width="2" stroke-linejoin="round" stroke="#FFCFDC" stroke-opacity="1" x1="54.8451" y1="200.887" x2="61.3372" y2="198.173"/>
		<line fill="none" stroke-width="2" stroke-linejoin="round" stroke="#FFCFDC" stroke-opacity="1" x1="67.7033" y1="180.089" x2="79.3898" y2="175.191"/>
		<line fill="none" stroke-width="2" stroke-linejoin="round" stroke="#FFCFDC" stroke-opacity="1" x1="73.3728" y1="193.373" x2="85.1494" y2="188.435"/>
	</g>
	<ellipse fill="#FFFFFF" fill-opacity="1" stroke-width="2" stroke-linejoin="round" stroke="#FFCFDC" stroke-opacity="1" cx="65.7791" cy="71.7046" rx="45.125" ry="24.2954"/>
	<g>
		<path fill="#5D7A8F" fill-opacity="1" stroke-linejoin="round" d="M 33.4041,72.2092L 33.4041,73.4092L 33.8041,73.4092C 34.0656,73.4092 34.2476,73.455 34.3502,73.5467C 34.4528,73.6384 34.5041,73.7592 34.5041,73.9092C 34.5041,74.0592 34.4528,74.18 34.3502,74.2717C 34.2476,74.3633 34.0656,74.4092 33.8041,74.4092L 32.2041,74.4092C 31.9427,74.4092 31.7606,74.3633 31.658,74.2717C 31.5554,74.18 31.5041,74.0592 31.5041,73.9092C 31.5041,73.7592 31.5554,73.6384 31.658,73.5467C 31.7606,73.455 31.9427,73.4092 32.2041,73.4092L 32.4041,73.4092L 32.4041,69.6092L 32.2041,69.6092C 31.9427,69.6092 31.7606,69.5634 31.658,69.4717C 31.5554,69.38 31.5041,69.2592 31.5041,69.1092C 31.5041,68.9592 31.5554,68.8383 31.658,68.7467C 31.7606,68.655 31.9427,68.6092 32.2041,68.6092L 34.4744,68.6092C 35.1817,68.6092 35.7302,68.7811 36.1197,69.1248C 36.5093,69.4686 36.7041,69.8868 36.7041,70.3795C 36.7041,70.6868 36.6156,70.9662 36.4385,71.2178C 36.2614,71.4693 35.9937,71.6925 35.6354,71.8873C 35.8447,72.0654 36.0687,72.2941 36.3072,72.5732C 36.4552,72.7514 36.6546,73.03 36.9057,73.4092C 37.1661,73.4092 37.3328,73.4404 37.4057,73.5029C 37.538,73.6238 37.6041,73.7592 37.6041,73.9092C 37.6041,74.0592 37.5528,74.18 37.4502,74.2717C 37.3476,74.3633 37.1661,74.4092 36.9057,74.4092L 36.4041,74.4092C 35.5958,73.1894 34.9255,72.4561 34.3932,72.2092L 33.4041,72.2092 Z M 33.4041,71.2092L 34.1744,71.2092C 34.4599,71.2092 34.7145,71.1665 34.9385,71.0811C 35.2406,70.9686 35.4437,70.8493 35.5479,70.7233C 35.652,70.5972 35.7041,70.4727 35.7041,70.3498C 35.7041,70.1675 35.6046,69.9985 35.4057,69.8428C 35.2067,69.6871 34.9166,69.6092 34.5354,69.6092L 33.4041,69.6092L 33.4041,71.2092 Z "/>
		<path fill="#5D7A8F" fill-opacity="1" stroke-linejoin="round" d="M 43.0041,72.7092L 38.7041,72.7092C 38.8156,72.9488 39.013,73.142 39.2963,73.2889C 39.5796,73.4357 39.963,73.5092 40.4463,73.5092C 40.8432,73.5092 41.3552,73.4144 41.9822,73.2248C 42.2416,73.1477 42.4213,73.1092 42.5213,73.1092C 42.6567,73.1092 42.771,73.1586 42.8643,73.2576C 42.9575,73.3566 43.0041,73.4811 43.0041,73.6311C 43.0041,73.7665 42.9541,73.8821 42.8541,73.9779C 42.7218,74.104 42.3984,74.224 41.8838,74.3381C 41.3692,74.4521 40.8744,74.5092 40.3994,74.5092C 39.5817,74.5092 38.9281,74.2938 38.4385,73.8631C 37.9489,73.4324 37.7041,72.9024 37.7041,72.2732C 37.7041,71.6035 37.969,71.0587 38.4987,70.6389C 39.0283,70.2191 39.6385,70.0092 40.3291,70.0092C 40.7447,70.0092 41.126,70.0769 41.4729,70.2123C 41.8197,70.3477 42.0781,70.4941 42.2479,70.6514C 42.4864,70.8785 42.6838,71.1597 42.8401,71.4951C 42.9463,71.7295 42.9994,72.0003 42.9994,72.3076L 43.0041,72.7092 Z M 42.0041,71.8092C 41.8343,71.5415 41.6119,71.3412 41.3369,71.2084C 41.0619,71.0756 40.7343,71.0092 40.3541,71.0092C 39.9781,71.0092 39.6526,71.0756 39.3776,71.2084C 39.1026,71.3412 38.8781,71.5415 38.7041,71.8092L 42.0041,71.8092 Z "/>
		<path fill="#5D7A8F" fill-opacity="1" stroke-linejoin="round" d="M 48.7041,71.1092L 48.7041,75.3092L 48.9041,75.3092C 49.1656,75.3092 49.3476,75.355 49.4502,75.4467C 49.5528,75.5383 49.6041,75.6592 49.6041,75.8092C 49.6041,75.9592 49.5528,76.08 49.4502,76.1717C 49.3476,76.2634 49.1656,76.3092 48.9041,76.3092L 47.1041,76.3092C 46.8427,76.3092 46.6606,76.2634 46.558,76.1717C 46.4554,76.08 46.4041,75.9592 46.4041,75.8092C 46.4041,75.6592 46.4554,75.5383 46.558,75.4467C 46.6606,75.355 46.8427,75.3092 47.1041,75.3092L 47.7041,75.3092L 47.7041,73.9607C 47.5041,74.1097 47.2747,74.2217 47.0158,74.2967C 46.757,74.3717 46.4953,74.4092 46.2307,74.4092C 45.6192,74.4092 45.0697,74.2326 44.5822,73.8795C 43.9968,73.4555 43.7041,72.918 43.7041,72.267C 43.7041,71.6764 43.9468,71.1524 44.4322,70.6951C 44.9177,70.2378 45.5062,70.0092 46.1979,70.0092C 46.4645,70.0092 46.7231,70.0587 46.9736,70.1576C 47.2242,70.2566 47.4677,70.4071 47.7041,70.6092L 47.7041,70.1092L 48.9041,70.1092C 49.1656,70.1092 49.3476,70.155 49.4502,70.2467C 49.5528,70.3383 49.6041,70.4592 49.6041,70.6092C 49.6041,70.7592 49.5528,70.88 49.4502,70.9717C 49.3476,71.0634 49.1656,71.1092 48.9041,71.1092L 48.7041,71.1092 Z M 47.7041,72.2717C 47.7041,72.1352 47.6481,71.9613 47.5361,71.7498C 47.4242,71.5383 47.2515,71.362 47.0182,71.2209C 46.7848,71.0798 46.5135,71.0092 46.2041,71.0092C 45.6979,71.0092 45.2984,71.1915 45.0057,71.556C 44.8046,71.8071 44.7041,72.0488 44.7041,72.2811C 44.7041,72.5446 44.8481,72.7985 45.1362,73.0428C 45.4242,73.287 45.7802,73.4092 46.2041,73.4092C 46.6322,73.4092 46.9893,73.287 47.2752,73.0428C 47.5612,72.7985 47.7041,72.5415 47.7041,72.2717 Z "/>
		<path fill="#5D7A8F" fill-opacity="1" stroke-linejoin="round" d="M 54.4041,70.1092L 54.4041,73.4092C 54.6656,73.4092 54.8476,73.455 54.9502,73.5467C 55.0528,73.6384 55.1041,73.7592 55.1041,73.9092C 55.1041,74.0592 55.0528,74.18 54.9502,74.2717C 54.8476,74.3633 54.6656,74.4092 54.4041,74.4092L 53.4041,74.4092L 53.4041,74.0092C 53.1302,74.1758 52.8687,74.3008 52.6197,74.3842C 52.3708,74.4675 52.1343,74.5092 51.9104,74.5092C 51.5968,74.5092 51.325,74.4438 51.0947,74.3131C 50.8645,74.1824 50.6828,74.0014 50.5494,73.7701C 50.4526,73.6035 50.4041,73.3956 50.4041,73.1467L 50.4041,71.1092L 50.2041,71.1092C 49.9427,71.1092 49.7606,71.0634 49.658,70.9717C 49.5554,70.88 49.5041,70.7592 49.5041,70.6092C 49.5041,70.4592 49.5554,70.3383 49.658,70.2467C 49.7606,70.155 49.9427,70.1092 50.2041,70.1092L 51.4041,70.1092L 51.4041,72.9264C 51.4041,73.1274 51.452,73.2748 51.5479,73.3685C 51.6437,73.4623 51.7906,73.5092 51.9885,73.5092C 52.177,73.5092 52.3802,73.4714 52.5979,73.3959C 52.8156,73.3204 53.0843,73.1842 53.4041,72.9873L 53.4041,71.1092L 53.0041,71.1092C 52.7427,71.1092 52.5606,71.0634 52.458,70.9717C 52.3554,70.88 52.3041,70.7592 52.3041,70.6092C 52.3041,70.4592 52.3554,70.3383 52.458,70.2467C 52.5606,70.155 52.7427,70.1092 53.0041,70.1092L 54.4041,70.1092 Z "/>
		<path fill="#5D7A8F" fill-opacity="1" stroke-linejoin="round" d="M 58.8041,68.2092L 58.8041,69.2092L 57.8041,69.2092L 57.8041,68.2092L 58.8041,68.2092 Z M 58.9041,70.1092L 58.9041,73.4092L 60.1041,73.4092C 60.3656,73.4092 60.5476,73.455 60.6502,73.5467C 60.7528,73.6384 60.8041,73.7592 60.8041,73.9092C 60.8041,74.0592 60.7528,74.18 60.6502,74.2717C 60.5476,74.3633 60.3656,74.4092 60.1041,74.4092L 56.7041,74.4092C 56.4427,74.4092 56.2606,74.3633 56.158,74.2717C 56.0554,74.18 56.0041,74.0592 56.0041,73.9092C 56.0041,73.7592 56.0554,73.6384 56.158,73.5467C 56.2606,73.455 56.4427,73.4092 56.7041,73.4092L 57.9041,73.4092L 57.9041,71.1092L 57.1041,71.1092C 56.8427,71.1092 56.6606,71.0634 56.558,70.9717C 56.4554,70.88 56.4041,70.7592 56.4041,70.6092C 56.4041,70.4592 56.4554,70.3383 56.558,70.2467C 56.6606,70.155 56.8427,70.1092 57.1041,70.1092L 58.9041,70.1092 Z "/>
		<path fill="#5D7A8F" fill-opacity="1" stroke-linejoin="round" d="M 64.2041,70.1092L 64.2041,70.7561C 64.6187,70.4571 64.946,70.2579 65.1861,70.1584C 65.4262,70.0589 65.6505,70.0092 65.8588,70.0092C 66.1807,70.0092 66.4927,70.1321 66.7947,70.3779C 67.001,70.5436 67.1041,70.7128 67.1041,70.8857C 67.1041,71.0316 67.0549,71.1553 66.9565,71.2568C 66.858,71.3584 66.7395,71.4092 66.601,71.4092C 66.4791,71.4092 66.3507,71.3425 66.2158,71.2092C 66.0809,71.0759 65.9604,71.0092 65.8541,71.0092C 65.7156,71.0092 65.5088,71.093 65.2338,71.2607C 64.9588,71.4285 64.6156,71.68 64.2041,72.0154L 64.2041,73.4092L 65.6041,73.4092C 65.8656,73.4092 66.0476,73.455 66.1502,73.5467C 66.2528,73.6384 66.3041,73.7592 66.3041,73.9092C 66.3041,74.0592 66.2528,74.18 66.1502,74.2717C 66.0476,74.3633 65.8656,74.4092 65.6041,74.4092L 62.6041,74.4092C 62.3427,74.4092 62.1606,74.3633 62.058,74.2717C 61.9554,74.18 61.9041,74.0592 61.9041,73.9092C 61.9041,73.7592 61.9554,73.6384 62.058,73.5467C 62.1606,73.455 62.3427,73.4092 62.6041,73.4092L 63.2041,73.4092L 63.2041,71.1092L 62.8041,71.1092C 62.5427,71.1092 62.3606,71.0634 62.258,70.9717C 62.1554,70.88 62.1041,70.7592 62.1041,70.6092C 62.1041,70.4592 62.1554,70.3383 62.258,70.2467C 62.3606,70.155 62.5427,70.1092 62.8041,70.1092L 64.2041,70.1092 Z "/>
		<path fill="#5D7A8F" fill-opacity="1" stroke-linejoin="round" d="M 73.0041,72.7092L 68.7041,72.7092C 68.8156,72.9488 69.013,73.142 69.2963,73.2889C 69.5796,73.4357 69.963,73.5092 70.4463,73.5092C 70.8432,73.5092 71.3552,73.4144 71.9822,73.2248C 72.2416,73.1477 72.4213,73.1092 72.5213,73.1092C 72.6567,73.1092 72.771,73.1586 72.8643,73.2576C 72.9575,73.3566 73.0041,73.4811 73.0041,73.6311C 73.0041,73.7665 72.9541,73.8821 72.8541,73.9779C 72.7218,74.104 72.3984,74.224 71.8838,74.3381C 71.3692,74.4521 70.8744,74.5092 70.3994,74.5092C 69.5817,74.5092 68.9281,74.2938 68.4385,73.8631C 67.9489,73.4324 67.7041,72.9024 67.7041,72.2732C 67.7041,71.6035 67.969,71.0587 68.4986,70.6389C 69.0283,70.2191 69.6385,70.0092 70.3291,70.0092C 70.7447,70.0092 71.126,70.0769 71.4729,70.2123C 71.8197,70.3477 72.0781,70.4941 72.2479,70.6514C 72.4864,70.8785 72.6838,71.1597 72.84,71.4951C 72.9463,71.7295 72.9994,72.0003 72.9994,72.3076L 73.0041,72.7092 Z M 72.0041,71.8092C 71.8343,71.5415 71.6119,71.3412 71.3369,71.2084C 71.0619,71.0756 70.7343,71.0092 70.3541,71.0092C 69.9781,71.0092 69.6525,71.0756 69.3775,71.2084C 69.1025,71.3412 68.8781,71.5415 68.7041,71.8092L 72.0041,71.8092 Z "/>
		<path fill="#5D7A8F" fill-opacity="1" stroke-linejoin="round" d="M 74.8041,70.1092L 74.8041,70.4029C 74.9593,70.2529 75.0999,70.1498 75.226,70.0936C 75.352,70.0373 75.4979,70.0092 75.6635,70.0092C 75.8031,70.0092 75.9413,70.0428 76.0783,70.11C 76.2153,70.1771 76.3489,70.2779 76.4791,70.4123C 76.6447,70.2769 76.8122,70.1758 76.9815,70.1092C 77.1507,70.0425 77.3244,70.0092 77.5025,70.0092C 77.8567,70.0092 78.1442,70.104 78.365,70.2936C 78.6578,70.5415 78.8041,70.8675 78.8041,71.2717L 78.8041,73.4092C 79.0656,73.4092 79.2476,73.455 79.3502,73.5467C 79.4528,73.6384 79.5041,73.7592 79.5041,73.9092C 79.5041,74.0592 79.4528,74.18 79.3502,74.2717C 79.2476,74.3633 79.0656,74.4092 78.8041,74.4092L 77.8041,74.4092L 77.8041,71.3951C 77.8041,71.2493 77.7786,71.1485 77.7275,71.0928C 77.6765,71.037 77.5984,71.0092 77.4932,71.0092C 77.3911,71.0092 77.2963,71.0373 77.2088,71.0936C 77.0984,71.1706 76.9635,71.3165 76.8041,71.5311L 76.8041,73.4092C 77.0656,73.4092 77.2476,73.455 77.3502,73.5467C 77.4528,73.6384 77.5041,73.7592 77.5041,73.9092C 77.5041,74.0592 77.4528,74.18 77.3502,74.2717C 77.2476,74.3633 77.0656,74.4092 76.8041,74.4092L 75.8041,74.4092L 75.8041,71.3951C 75.8041,71.2524 75.7781,71.1524 75.726,71.0951C 75.6739,71.0378 75.5963,71.0092 75.4932,71.0092C 75.3859,71.0092 75.2804,71.0441 75.1768,71.1139C 75.0731,71.1837 74.9489,71.3227 74.8041,71.5311L 74.8041,73.4092C 75.0656,73.4092 75.2476,73.455 75.3502,73.5467C 75.4528,73.6384 75.5041,73.7592 75.5041,73.9092C 75.5041,74.0592 75.4528,74.18 75.3502,74.2717C 75.2476,74.3633 75.0656,74.4092 74.8041,74.4092L 73.8041,74.4092C 73.5426,74.4092 73.3606,74.3633 73.258,74.2717C 73.1554,74.18 73.1041,74.0592 73.1041,73.9092C 73.1041,73.7592 73.1554,73.6384 73.258,73.5467C 73.3606,73.455 73.5426,73.4092 73.8041,73.4092L 73.8041,71.1092C 73.5426,71.1092 73.3606,71.0634 73.258,70.9717C 73.1554,70.88 73.1041,70.7592 73.1041,70.6092C 73.1041,70.4592 73.1554,70.3383 73.258,70.2467C 73.3606,70.155 73.5426,70.1092 73.8041,70.1092L 74.8041,70.1092 Z "/>
		<path fill="#5D7A8F" fill-opacity="1" stroke-linejoin="round" d="M 85.0041,72.7092L 80.7041,72.7092C 80.8156,72.9488 81.013,73.142 81.2963,73.2889C 81.5796,73.4357 81.963,73.5092 82.4463,73.5092C 82.8432,73.5092 83.3551,73.4144 83.9822,73.2248C 84.2416,73.1477 84.4213,73.1092 84.5213,73.1092C 84.6567,73.1092 84.771,73.1586 84.8643,73.2576C 84.9575,73.3566 85.0041,73.4811 85.0041,73.6311C 85.0041,73.7665 84.9541,73.8821 84.8541,73.9779C 84.7218,74.104 84.3984,74.224 83.8838,74.3381C 83.3692,74.4521 82.8744,74.5092 82.3994,74.5092C 81.5817,74.5092 80.9281,74.2938 80.4385,73.8631C 79.9489,73.4324 79.7041,72.9024 79.7041,72.2732C 79.7041,71.6035 79.9689,71.0587 80.4986,70.6389C 81.0283,70.2191 81.6385,70.0092 82.3291,70.0092C 82.7447,70.0092 83.126,70.0769 83.4729,70.2123C 83.8197,70.3477 84.0781,70.4941 84.2479,70.6514C 84.4864,70.8785 84.6838,71.1597 84.84,71.4951C 84.9463,71.7295 84.9994,72.0003 84.9994,72.3076L 85.0041,72.7092 Z M 84.0041,71.8092C 83.8343,71.5415 83.6119,71.3412 83.3369,71.2084C 83.0619,71.0756 82.7343,71.0092 82.3541,71.0092C 81.9781,71.0092 81.6525,71.0756 81.3775,71.2084C 81.1025,71.3412 80.8781,71.5415 80.7041,71.8092L 84.0041,71.8092 Z "/>
		<path fill="#5D7A8F" fill-opacity="1" stroke-linejoin="round" d="M 87.4041,70.1092L 87.4041,70.5092C 87.5781,70.3425 87.7703,70.2175 87.9807,70.1342C 88.1911,70.0508 88.4192,70.0092 88.665,70.0092C 89.2328,70.0092 89.6817,70.1847 90.0119,70.5358C 90.2734,70.8149 90.4041,71.181 90.4041,71.6342L 90.4041,73.4092C 90.6656,73.4092 90.8476,73.455 90.9502,73.5467C 91.0528,73.6384 91.1041,73.7592 91.1041,73.9092C 91.1041,74.0592 91.0528,74.18 90.9502,74.2717C 90.8476,74.3633 90.6656,74.4092 90.4041,74.4092L 89.4041,74.4092C 89.1427,74.4092 88.9606,74.3633 88.858,74.2717C 88.7554,74.18 88.7041,74.0592 88.7041,73.9092C 88.7041,73.7592 88.7554,73.6384 88.858,73.5467C 88.9606,73.455 89.1427,73.4092 89.4041,73.4092L 89.4041,71.6404C 89.4041,71.4363 89.3494,71.2868 89.2401,71.192C 89.0963,71.0701 88.8812,71.0092 88.5947,71.0092C 88.3781,71.0092 88.188,71.0537 88.0244,71.1428C 87.8609,71.2318 87.6541,71.4206 87.4041,71.7092L 87.4041,73.4092C 87.6656,73.4092 87.8291,73.4399 87.8947,73.5014C 88.0343,73.6232 88.1041,73.7592 88.1041,73.9092C 88.1041,74.0592 88.0528,74.18 87.9502,74.2717C 87.8476,74.3633 87.6656,74.4092 87.4041,74.4092L 86.4041,74.4092C 86.1427,74.4092 85.9606,74.3633 85.858,74.2717C 85.7554,74.18 85.7041,74.0592 85.7041,73.9092C 85.7041,73.7592 85.7723,73.6222 85.9088,73.4982C 85.9775,73.4389 86.1427,73.4092 86.4041,73.4092L 86.4041,71.1092C 86.1427,71.1092 85.9606,71.0634 85.858,70.9717C 85.7554,70.88 85.7041,70.7592 85.7041,70.6092C 85.7041,70.4592 85.7554,70.3383 85.858,70.2467C 85.9606,70.155 86.1427,70.1092 86.4041,70.1092L 87.4041,70.1092 Z "/>
		<path fill="#5D7A8F" fill-opacity="1" stroke-linejoin="round" d="M 94.2041,71.1092L 94.2041,72.967C 94.2041,73.166 94.2473,73.2972 94.3338,73.3607C 94.4682,73.4597 94.7083,73.5092 95.0541,73.5092C 95.5562,73.5092 96.0197,73.3889 96.4447,73.1482C 96.6083,73.0555 96.7364,73.0092 96.8291,73.0092C 96.9572,73.0092 97.0684,73.0594 97.1627,73.16C 97.257,73.2605 97.3041,73.3831 97.3041,73.5279C 97.3041,73.6623 97.2525,73.7779 97.1494,73.8748C 96.9921,74.0331 96.6814,74.1785 96.2174,74.3107C 95.7533,74.443 95.3624,74.5092 95.0447,74.5092C 94.4312,74.5092 93.971,74.3821 93.6643,74.1279C 93.3575,73.8738 93.2041,73.5618 93.2041,73.192L 93.2041,71.1092L 92.8182,71.1092C 92.5609,71.1092 92.3775,71.0628 92.2682,70.9701C 92.1588,70.8774 92.1041,70.7561 92.1041,70.6061C 92.1041,70.4602 92.1588,70.3409 92.2682,70.2482C 92.3775,70.1555 92.5609,70.1092 92.8182,70.1092L 93.2041,70.1092L 93.2041,69.1904C 93.2041,68.9446 93.2505,68.7696 93.3432,68.6654C 93.4359,68.5613 93.5572,68.5092 93.7072,68.5092C 93.8531,68.5092 93.9723,68.5613 94.065,68.6654C 94.1577,68.7696 94.2041,68.9446 94.2041,69.1904L 94.2041,70.1092L 96.04,70.1092C 96.2796,70.1092 96.4502,70.1555 96.5518,70.2482C 96.6533,70.3409 96.7041,70.4623 96.7041,70.6123C 96.7041,70.7581 96.6533,70.8774 96.5518,70.9701C 96.4502,71.0628 96.2796,71.1092 96.04,71.1092L 94.2041,71.1092 Z "/>
		<path fill="#5D7A8F" fill-opacity="1" stroke-linejoin="round" d="M 101.512,71.306C 101.353,71.2071 101.185,71.1329 101.009,71.0834C 100.833,71.0339 100.649,71.0092 100.459,71.0092C 100.079,71.0092 99.7765,71.0675 99.5525,71.1842C 99.4536,71.2352 99.4041,71.2904 99.4041,71.3498C 99.4041,71.4186 99.4713,71.4857 99.6057,71.5514C 99.7077,71.5993 99.9359,71.6456 100.29,71.6904C 100.942,71.7738 101.396,71.8587 101.653,71.9451C 101.989,72.0587 102.248,72.2279 102.431,72.4529C 102.613,72.6779 102.704,72.9149 102.704,73.1639C 102.704,73.5035 102.549,73.7873 102.238,74.0154C 101.793,74.3446 101.215,74.5092 100.504,74.5092C 100.219,74.5092 99.9551,74.4922 99.7135,74.4584C 99.4718,74.4245 99.2499,74.3748 99.0479,74.3092C 98.9989,74.3415 98.9466,74.3662 98.8908,74.3834C 98.8351,74.4006 98.7781,74.4092 98.7197,74.4092C 98.5624,74.4092 98.4372,74.3602 98.3439,74.2623C 98.2507,74.1644 98.2041,74.0003 98.2041,73.7701L 98.2041,73.4482C 98.2041,73.218 98.2507,73.054 98.3439,72.9561C 98.4372,72.8581 98.5588,72.8092 98.7088,72.8092C 98.8296,72.8092 98.9309,72.837 99.0127,72.8928C 99.0945,72.9485 99.1583,73.0441 99.2041,73.1795C 99.3541,73.2878 99.5348,73.3699 99.7463,73.4256C 99.9577,73.4813 100.201,73.5092 100.476,73.5092C 100.927,73.5092 101.277,73.4436 101.526,73.3123C 101.645,73.2467 101.704,73.1779 101.704,73.1061C 101.704,72.9863 101.62,72.8878 101.451,72.8107C 101.281,72.7326 100.931,72.6665 100.399,72.6123C 99.6088,72.5352 99.0786,72.3826 98.8088,72.1545C 98.539,71.9285 98.4041,71.6503 98.4041,71.3201C 98.4041,70.9805 98.5536,70.6977 98.8525,70.4717C 99.2588,70.1633 99.79,70.0092 100.446,70.0092C 100.675,70.0092 100.896,70.029 101.106,70.0686C 101.317,70.1081 101.519,70.1691 101.712,70.2514C 101.773,70.2034 101.831,70.1678 101.884,70.1443C 101.937,70.1209 101.986,70.1092 102.031,70.1092C 102.166,70.1092 102.279,70.161 102.369,70.2646C 102.459,70.3683 102.504,70.542 102.504,70.7858L 102.504,71.0326C 102.504,71.2535 102.478,71.4034 102.426,71.4826C 102.323,71.6337 102.182,71.7092 102.003,71.7092C 101.883,71.7092 101.778,71.6725 101.687,71.599C 101.596,71.5256 101.538,71.4279 101.512,71.306 Z "/>
	</g>
	<ellipse fill="#FFFFFF" fill-opacity="1" stroke-width="2" stroke-linejoin="round" stroke="#FFCFDC" stroke-opacity="1" cx="177.404" cy="34.1591" rx="38.75" ry="23.5"/>
	<g>
		<path fill="#5D7A8F" fill-opacity="1" stroke-linejoin="round" d="M 162.075,28.0634L 158.556,28.0634L 158.203,28.8768L 158.482,28.8768C 158.875,28.8768 159.144,28.9389 159.287,29.0632C 159.43,29.1875 159.502,29.3513 159.502,29.5546C 159.502,29.7579 159.43,29.9218 159.287,30.046C 159.144,30.1703 158.875,30.2324 158.482,30.2324L 156.712,30.2324C 156.347,30.2324 156.093,30.1703 155.95,30.046C 155.807,29.9218 155.736,29.7579 155.736,29.5546C 155.736,29.3513 155.807,29.1875 155.95,29.0632C 156.093,28.9389 156.347,28.8768 156.712,28.8768L 158.896,23.7256L 157.919,23.7256C 157.587,23.7256 157.349,23.6634 157.206,23.5392C 157.063,23.4149 156.991,23.2511 156.991,23.0478C 156.991,22.8444 157.063,22.6806 157.206,22.5563C 157.349,22.4321 157.587,22.37 157.919,22.37L 161.053,22.37L 163.965,28.8768C 164.329,28.8768 164.56,28.9171 164.656,28.9975C 164.846,29.1656 164.941,29.3513 164.941,29.5546C 164.941,29.7579 164.87,29.9218 164.726,30.046C 164.583,30.1703 164.329,30.2324 163.965,30.2324L 162.171,30.2324C 161.793,30.2324 161.533,30.1703 161.39,30.046C 161.247,29.9218 161.175,29.7579 161.175,29.5546C 161.175,29.3513 161.247,29.1875 161.39,29.0632C 161.533,28.9389 161.793,28.8768 162.171,28.8768L 162.45,28.8768L 162.075,28.0634 Z M 161.45,26.7079L 160.269,24.1428L 159.148,26.7079L 161.45,26.7079 Z "/>
		<path fill="#5D7A8F" fill-opacity="1" stroke-linejoin="round" d="M 170.252,26.0258C 170.03,25.8917 169.796,25.791 169.55,25.724C 169.305,25.6569 169.049,25.6234 168.783,25.6234C 168.253,25.6234 167.832,25.7025 167.519,25.8606C 167.381,25.9298 167.312,26.0046 167.312,26.0851C 167.312,26.1783 167.406,26.2694 167.593,26.3584C 167.736,26.4233 168.054,26.4862 168.548,26.5469C 169.457,26.6599 170.091,26.7749 170.448,26.8921C 170.918,27.0461 171.279,27.2755 171.534,27.5805C 171.788,27.8855 171.915,28.2068 171.915,28.5443C 171.915,29.0046 171.698,29.3894 171.266,29.6986C 170.644,30.1449 169.837,30.368 168.846,30.368C 168.448,30.368 168.081,30.345 167.744,30.2991C 167.407,30.2532 167.097,30.1858 166.815,30.0968C 166.747,30.1406 166.674,30.1742 166.596,30.1974C 166.519,30.2207 166.439,30.2324 166.358,30.2324C 166.138,30.2324 165.964,30.166 165.834,30.0333C 165.704,29.9005 165.639,29.6782 165.639,29.3661L 165.639,28.9298C 165.639,28.6177 165.704,28.3953 165.834,28.2625C 165.964,28.1298 166.133,28.0634 166.342,28.0634C 166.511,28.0634 166.652,28.1012 166.766,28.1768C 166.88,28.2523 166.969,28.3819 167.033,28.5655C 167.242,28.7123 167.495,28.8235 167.79,28.899C 168.084,28.9746 168.424,29.0124 168.807,29.0124C 169.436,29.0124 169.925,28.9234 170.272,28.7455C 170.437,28.6565 170.52,28.5633 170.52,28.4659C 170.52,28.3035 170.403,28.1701 170.167,28.0656C 169.93,27.9597 169.441,27.87 168.7,27.7966C 167.598,27.6921 166.858,27.4852 166.482,27.176C 166.106,26.8695 165.917,26.4925 165.917,26.0449C 165.917,25.5846 166.126,25.2012 166.543,24.8947C 167.11,24.4768 167.851,24.2678 168.766,24.2678C 169.085,24.2678 169.392,24.2946 169.687,24.3483C 169.981,24.4019 170.262,24.4845 170.531,24.5961C 170.617,24.5311 170.697,24.4828 170.771,24.451C 170.845,24.4192 170.913,24.4034 170.976,24.4034C 171.165,24.4034 171.322,24.4736 171.447,24.6141C 171.573,24.7546 171.636,24.9901 171.636,25.3205L 171.636,25.6552C 171.636,25.9545 171.6,26.1579 171.527,26.2652C 171.383,26.4699 171.186,26.5723 170.936,26.5723C 170.769,26.5723 170.623,26.5225 170.496,26.423C 170.37,26.3234 170.288,26.191 170.252,26.0258 Z "/>
		<rect x="174.147" y="25.6234" fill="#5D7A8F" fill-opacity="1" stroke-linejoin="round" width="5.99748" height="1.35559"/>
		<path fill="#5D7A8F" fill-opacity="1" stroke-linejoin="round" d="M 186.002,21.8277L 186.002,23.1833L 184.607,23.1833L 184.607,21.8277L 186.002,21.8277 Z M 186.142,24.4034L 186.142,28.8768L 187.815,28.8768C 188.18,28.8768 188.434,28.9389 188.577,29.0632C 188.72,29.1875 188.792,29.3513 188.792,29.5546C 188.792,29.7579 188.72,29.9218 188.577,30.046C 188.434,30.1703 188.18,30.2324 187.815,30.2324L 183.073,30.2324C 182.708,30.2324 182.455,30.1703 182.311,30.046C 182.168,29.9218 182.097,29.7579 182.097,29.5546C 182.097,29.3513 182.168,29.1875 182.311,29.0632C 182.455,28.9389 182.708,28.8768 183.073,28.8768L 184.747,28.8768L 184.747,25.7589L 183.631,25.7589C 183.266,25.7589 183.012,25.6968 182.869,25.5725C 182.726,25.4483 182.655,25.2845 182.655,25.0811C 182.655,24.8778 182.726,24.714 182.869,24.5898C 183.012,24.4655 183.266,24.4034 183.631,24.4034L 186.142,24.4034 Z "/>
		<path fill="#5D7A8F" fill-opacity="1" stroke-linejoin="round" d="M 195.358,26.0258C 195.136,25.8917 194.902,25.791 194.656,25.724C 194.411,25.6569 194.155,25.6234 193.889,25.6234C 193.359,25.6234 192.937,25.7025 192.625,25.8606C 192.487,25.9298 192.418,26.0046 192.418,26.0851C 192.418,26.1783 192.512,26.2694 192.699,26.3584C 192.842,26.4233 193.16,26.4862 193.654,26.5469C 194.563,26.6599 195.197,26.7749 195.554,26.8921C 196.023,27.0461 196.385,27.2755 196.639,27.5805C 196.894,27.8855 197.021,28.2068 197.021,28.5443C 197.021,29.0046 196.804,29.3894 196.371,29.6986C 195.749,30.1449 194.943,30.368 193.952,30.368C 193.554,30.368 193.187,30.345 192.85,30.2991C 192.512,30.2532 192.203,30.1858 191.921,30.0968C 191.853,30.1406 191.78,30.1742 191.702,30.1974C 191.624,30.2207 191.545,30.2324 191.463,30.2324C 191.244,30.2324 191.069,30.166 190.939,30.0333C 190.809,29.9005 190.744,29.6782 190.744,29.3661L 190.744,28.9298C 190.744,28.6177 190.809,28.3953 190.939,28.2625C 191.069,28.1298 191.239,28.0634 191.448,28.0634C 191.617,28.0634 191.758,28.1012 191.872,28.1768C 191.986,28.2523 192.075,28.3819 192.139,28.5655C 192.348,28.7123 192.6,28.8235 192.895,28.899C 193.19,28.9746 193.529,29.0124 193.913,29.0124C 194.542,29.0124 195.03,28.9234 195.378,28.7455C 195.543,28.6565 195.626,28.5633 195.626,28.4659C 195.626,28.3035 195.508,28.1701 195.273,28.0656C 195.036,27.9597 194.547,27.87 193.806,27.7966C 192.704,27.6921 191.964,27.4852 191.588,27.176C 191.211,26.8695 191.023,26.4925 191.023,26.0449C 191.023,25.5846 191.232,25.2012 191.649,24.8947C 192.215,24.4768 192.956,24.2678 193.872,24.2678C 194.191,24.2678 194.498,24.2946 194.792,24.3483C 195.087,24.4019 195.368,24.4845 195.637,24.5961C 195.723,24.5311 195.803,24.4828 195.877,24.451C 195.951,24.4192 196.019,24.4034 196.081,24.4034C 196.27,24.4034 196.428,24.4736 196.553,24.6141C 196.679,24.7546 196.742,24.9901 196.742,25.3205L 196.742,25.6552C 196.742,25.9545 196.705,26.1579 196.633,26.2652C 196.489,26.4699 196.292,26.5723 196.042,26.5723C 195.875,26.5723 195.728,26.5225 195.602,26.423C 195.476,26.3234 195.394,26.191 195.358,26.0258 Z "/>
		<path fill="#5D7A8F" fill-opacity="1" stroke-linejoin="round" d="M 161.036,39.3149L 161.036,44.4662L 162.012,44.4662C 162.377,44.4662 162.631,44.5283 162.774,44.6525C 162.917,44.7768 162.988,44.9406 162.988,45.144C 162.988,45.3473 162.917,45.5111 162.774,45.6354C 162.631,45.7596 162.377,45.8218 162.012,45.8218L 158.665,45.8218C 158.3,45.8218 158.046,45.7596 157.903,45.6354C 157.76,45.5111 157.688,45.3473 157.688,45.144C 157.688,44.9406 157.76,44.7768 157.903,44.6525C 158.046,44.5283 158.3,44.4662 158.665,44.4662L 159.641,44.4662L 159.641,39.3149L 158.107,39.3149L 158.107,40.5349C 158.107,40.8894 158.043,41.1361 157.915,41.2752C 157.787,41.4143 157.619,41.4839 157.409,41.4839C 157.2,41.4839 157.032,41.4143 156.904,41.2752C 156.776,41.1361 156.712,40.8894 156.712,40.5349L 156.712,37.9593L 163.965,37.9593L 163.965,40.5349C 163.965,40.8894 163.901,41.1361 163.773,41.2752C 163.645,41.4143 163.477,41.4839 163.267,41.4839C 163.058,41.4839 162.89,41.4143 162.762,41.2752C 162.634,41.1361 162.57,40.8894 162.57,40.5349L 162.57,39.3149L 161.036,39.3149 Z "/>
		<path fill="#5D7A8F" fill-opacity="1" stroke-linejoin="round" d="M 172.333,42.9962C 172.333,43.4918 172.184,43.9716 171.886,44.4354C 171.587,44.8993 171.143,45.2689 170.553,45.5443C 169.963,45.8196 169.346,45.9573 168.703,45.9573C 168.065,45.9573 167.454,45.8218 166.871,45.5506C 166.288,45.2795 165.843,44.911 165.538,44.445C 165.233,43.979 165.081,43.4918 165.081,42.9835C 165.081,42.4666 165.236,41.9594 165.546,41.4616C 165.856,40.9638 166.301,40.572 166.882,40.286C 167.462,40.0001 168.069,39.8571 168.703,39.8571C 169.342,39.8571 169.956,40.0033 170.546,40.2956C 171.136,40.5879 171.582,40.9808 171.882,41.4743C 172.183,41.9678 172.333,42.4751 172.333,42.9962 Z M 170.939,42.9983C 170.939,42.5973 170.777,42.2287 170.453,41.8926C 170.008,41.4394 169.425,41.2127 168.703,41.2127C 168.068,41.2127 167.538,41.3928 167.113,41.7528C 166.688,42.1129 166.475,42.5302 166.475,43.0047C 166.475,43.393 166.69,43.7563 167.119,44.0944C 167.549,44.4326 168.076,44.6017 168.703,44.6017C 169.335,44.6017 169.865,44.4326 170.295,44.0944C 170.724,43.7563 170.939,43.3909 170.939,42.9983 Z "/>
		<rect x="174.147" y="41.2127" fill="#5D7A8F" fill-opacity="1" stroke-linejoin="round" width="5.99748" height="1.35559"/>
		<path fill="#5D7A8F" fill-opacity="1" stroke-linejoin="round" d="M 183.631,37.4171L 183.631,40.5053C 183.972,40.2892 184.319,40.1272 184.672,40.0192C 185.024,39.9112 185.38,39.8571 185.738,39.8571C 186.707,39.8571 187.528,40.166 188.201,40.7838C 188.874,41.4016 189.21,42.1475 189.21,43.0216C 189.21,43.8576 188.889,44.5558 188.248,45.1164C 187.606,45.677 186.761,45.9573 185.712,45.9573C 185.339,45.9573 184.979,45.9104 184.633,45.8165C 184.288,45.7225 183.954,45.5838 183.631,45.4003L 183.631,45.8218L 181.957,45.8218C 181.593,45.8218 181.339,45.7596 181.196,45.6354C 181.052,45.5111 180.981,45.3473 180.981,45.144C 180.981,44.9406 181.052,44.7768 181.196,44.6525C 181.339,44.5283 181.593,44.4662 181.957,44.4662L 182.236,44.4662L 182.236,38.7727L 181.957,38.7727C 181.593,38.7727 181.339,38.7105 181.196,38.5863C 181.052,38.462 180.981,38.2982 180.981,38.0949C 180.981,37.8915 181.052,37.7277 181.196,37.6035C 181.339,37.4792 181.593,37.4171 181.957,37.4171L 183.631,37.4171 Z M 187.815,43.0534C 187.815,42.5394 187.613,42.1041 187.207,41.7476C 186.802,41.391 186.306,41.2127 185.719,41.2127C 185.138,41.2127 184.644,41.391 184.239,41.7476C 183.834,42.1041 183.631,42.533 183.631,43.0343C 183.631,43.4918 183.813,43.8674 184.177,44.1611C 184.541,44.4549 185.055,44.6017 185.719,44.6017C 186.384,44.6017 186.9,44.4549 187.266,44.1611C 187.632,43.8674 187.815,43.4982 187.815,43.0534 Z "/>
		<path fill="#5D7A8F" fill-opacity="1" stroke-linejoin="round" d="M 197.439,43.5172L 191.442,43.5172C 191.597,43.842 191.872,44.104 192.268,44.3031C 192.663,44.5022 193.197,44.6017 193.872,44.6017C 194.425,44.6017 195.139,44.4732 196.014,44.2162C 196.376,44.1117 196.626,44.0595 196.766,44.0595C 196.955,44.0595 197.114,44.1265 197.244,44.2607C 197.374,44.3949 197.439,44.5636 197.439,44.7669C 197.439,44.9505 197.369,45.1072 197.23,45.2372C 197.045,45.408 196.594,45.5708 195.877,45.7254C 195.159,45.88 194.469,45.9573 193.806,45.9573C 192.666,45.9573 191.754,45.6654 191.071,45.0815C 190.388,44.4976 190.047,43.7792 190.047,42.9263C 190.047,42.0183 190.416,41.2798 191.155,40.7107C 191.894,40.1417 192.745,39.8571 193.708,39.8571C 194.288,39.8571 194.82,39.9489 195.303,40.1325C 195.787,40.3161 196.148,40.5145 196.384,40.7277C 196.717,41.0355 196.992,41.4168 197.21,41.8715C 197.359,42.1892 197.433,42.5563 197.433,42.9729L 197.439,43.5172 Z M 196.044,42.2972C 195.808,41.9343 195.497,41.6628 195.114,41.4828C 194.73,41.3028 194.273,41.2127 193.743,41.2127C 193.219,41.2127 192.765,41.3028 192.381,41.4828C 191.997,41.6628 191.684,41.9343 191.442,42.2972L 196.044,42.2972 Z "/>
	</g>
	<path fill="#FFFFFF" fill-opacity="1" fill-rule="evenodd" stroke-linejoin="round" d="M 260.245,20.6142C 270.345,24.4868 275.393,35.8134 271.52,45.913C 268.996,52.4957 263.306,56.9315 256.853,58.1508L 249.143,72.484L 233.821,66.6087L 237.671,50.7956C 233.687,45.5742 232.422,38.4715 234.946,31.8888C 238.818,21.7892 250.145,16.7415 260.245,20.6142 Z "/>
	<path fill="#F5E7EB" fill-opacity="1" fill-rule="evenodd" stroke-linejoin="round" stroke="#FFCCDA" stroke-opacity="1" d="M 235.877,65.5303L 248.335,70.3071L 255.712,56.5918L 256.529,56.4378C 262.618,55.2879 267.668,51.0914 269.892,45.2892C 273.421,36.0879 268.822,25.77 259.621,22.242C 250.419,18.7137 240.102,23.3119 236.573,32.5132C 234.349,38.3154 235.297,44.8118 239.057,49.7383L 239.562,50.3995L 235.877,65.5303 Z "/>
	<path fill="#528FC4" fill-opacity="1" stroke-linejoin="round" d="M 241.658,46.5934L 242.413,40.618C 242.468,40.1924 242.858,39.8918 243.284,39.947C 243.59,39.9869 243.83,40.1991 243.921,40.4732L 243.964,40.578L 243.953,40.6063C 243.946,40.5608 243.936,40.5167 243.921,40.4732L 243.938,40.6461M 241.446,60.666C 241.391,61.0923 241.001,61.3924 240.575,61.3365C 240.149,61.2813 239.848,60.8913 239.904,60.4664L 241.658,46.5934L 243.938,40.6461L 243.954,40.8181C 243.964,40.7461 243.963,40.6754 243.953,40.6063L 243.964,40.578C 244.123,40.959 244.31,41.3349 244.523,41.7C 245.763,43.8326 247.822,45.4921 250.142,46.3948C 252.449,47.292 255.004,47.438 257.254,46.553C 257.625,46.4063 257.995,46.228 258.361,46.0154C 258.732,45.799 259.208,45.925 259.424,46.2964C 259.586,46.5753 259.556,46.914 259.373,47.1564L 247.988,63.5661C 247.745,63.9192 247.26,64.0081 246.907,63.7644C 246.553,63.521 246.464,63.0376 246.708,62.6835L 256.631,48.3808C 254.318,48.9667 251.837,48.7214 249.58,47.8425C 247.217,46.9237 245.089,45.3075 243.651,43.2263L 241.446,60.666 Z "/>
	<path fill="#528FC4" fill-opacity="1" fill-rule="evenodd" stroke-linejoin="round" d="M 234.633,56.351L 255.397,64.313L 250.65,73.5833C 249.793,75.2608 249.41,76.0676 247.08,75.1742L 233.555,69.9882C 231.226,69.095 231.481,68.2405 231.964,66.4185L 234.633,56.351 Z "/>
	<path fill="#FFFFFF" fill-opacity="1" stroke-linejoin="round" d="M 277.267,9.52893C 277.619,9.12299 278.233,9.07907 278.639,9.4313C 279.045,9.78214 279.088,10.3965 278.737,10.8026L 270.504,20.28C 270.153,20.686 269.539,20.7299 269.133,20.3786C 268.727,20.0268 268.683,19.413 269.035,19.0065L 277.267,9.52893 Z "/>
	<path fill="#FFFFFF" fill-opacity="1" stroke-linejoin="round" d="M 285.74,19.4407C 286.209,19.1803 286.802,19.3488 287.063,19.8184C 287.325,20.2877 287.156,20.8807 286.686,21.1422L 275.709,27.2325C 275.239,27.4934 274.646,27.3249 274.385,26.8553C 274.124,26.3855 274.293,25.793 274.762,25.5313L 285.74,19.4407 Z "/>
	<path fill="#FFFFFF" fill-opacity="1" stroke-linejoin="round" d="M 290.312,31.6542C 290.842,31.5699 291.341,31.9307 291.426,32.4613C 291.511,32.9914 291.15,33.4903 290.619,33.5753L 278.221,35.5439C 277.691,35.629 277.192,35.2677 277.106,34.7373C 277.022,34.2069 277.383,33.708 277.914,33.6223L 290.312,31.6542 Z "/>
	<path fill="#FFFFFF" fill-opacity="1" stroke-linejoin="round" d="M 290.434,44.6935C 290.962,44.7967 291.306,45.309 291.203,45.8369C 291.1,46.3645 290.588,46.7093 290.059,46.6059L 277.736,44.2147C 277.208,44.1121 276.864,43.5997 276.967,43.0721C 277.07,42.5438 277.583,42.1997 278.11,42.3034L 290.434,44.6935 Z "/>
	<path fill="#FFFFFF" fill-opacity="1" stroke-linejoin="round" d="M 265.912,3.11026C 266.105,2.60739 266.669,2.35562 267.172,2.54843C 267.675,2.74124 267.926,3.30576 267.734,3.80862L 263.239,15.5299C 263.046,16.0327 262.482,16.2838 261.979,16.091C 261.476,15.8982 261.225,15.3344 261.418,14.8315L 265.912,3.11026 Z "/>
	<path fill="#FFFFFF" fill-opacity="1" stroke-linejoin="round" d="M 253.053,0.954193C 253.064,0.41803 253.507,-0.0102844 254.043,6.10352e-005C 254.581,0.00952148 255.008,0.452942 254.998,0.989838L 254.783,13.5422C 254.773,14.0791 254.331,14.5066 253.793,14.4963C 253.257,14.4871 252.829,14.0436 252.839,13.5062L 253.053,0.954193 Z "/>
	<path fill="#FFFFFF" fill-opacity="1" stroke-linejoin="round" d="M 240.23,3.32852C 240.055,2.82053 240.326,2.26639 240.834,2.09244C 241.342,1.91718 241.897,2.18866 242.071,2.69592L 246.162,14.5647C 246.336,15.073 246.066,15.6265 245.557,15.8011C 245.048,15.9761 244.495,15.705 244.32,15.1971L 240.23,3.32852 Z "/>
	<path fill="#FFFFFF" fill-opacity="1" stroke-linejoin="round" d="M 228.992,9.94464C 228.654,9.52725 228.719,8.91431 229.137,8.57681C 229.555,8.23917 230.167,8.30435 230.506,8.72195L 238.409,18.475C 238.746,18.8929 238.682,19.5055 238.263,19.8432C 237.846,20.1807 237.233,20.1156 236.895,19.6978L 228.992,9.94464 Z "/>
	<path fill="#FFFFFF" fill-opacity="1" stroke-linejoin="round" d="M 232.459,24.7986C 232.92,25.0741 233.071,25.6726 232.795,26.1345C 232.519,26.5959 231.92,26.7465 231.459,26.4699"/>
	<path fill="#000000" fill-opacity="1" stroke-width="8.16934" stroke-linecap="round" stroke-linejoin="miter" d="M 209.059,270.849C 209.059,279.905 201.718,287.246 192.662,287.246L 106.343,287.246C 97.2865,287.246 89.9455,279.905 89.9455,270.849L 89.9455,146.562C 89.9455,137.506 97.2865,130.164 106.343,130.164L 192.662,130.164C 201.718,130.164 209.059,137.506 209.059,146.562L 209.059,270.849 Z "/>
	<rect x="18.7122" y="239.876" fill="#666666" fill-opacity="1" stroke-width="8.16934" stroke-linecap="round" stroke-linejoin="miter" width="261.704" height="60.1242"/>
	<path fill="none" stroke-width="6.59467" stroke-linejoin="miter" stroke="#E5E5E5" stroke-opacity="1" d="M 70.5128,216.105C 70.5128,216.105 74.7752,213.12 75.9122,216.105C 77.0497,219.089 75.2014,223.493 73.2125,224.346C 71.2223,225.199 67.2441,223.352 67.2441,223.352"/>
	<path fill="#B2B2B2" fill-opacity="1" stroke-width="6.59467" stroke-linejoin="miter" d="M 44.2384,231.451C 44.3132,232.425 45.1173,233.196 46.1111,233.196L 72.32,233.196C 73.3129,233.196 74.1179,232.425 74.1918,231.451L 44.2384,231.451 Z "/>
	<path fill="#F1F1F1" fill-opacity="1" stroke-width="6.59467" stroke-linejoin="miter" d="M 47.2088,212.838L 47.2088,219.302C 47.2088,225.933 52.5839,231.309 59.215,231.309C 65.8469,231.309 71.2225,225.933 71.2225,219.302L 71.2225,212.838L 47.2088,212.838 Z "/>
	<rect x="42.5192" y="230.456" fill="#E5E5E5" fill-opacity="1" stroke-width="6.59467" stroke-linejoin="miter" width="33.3932" height="1.70554"/>
	<path fill="#333333" fill-opacity="1" stroke-width="6.59467" stroke-linejoin="miter" d="M 297.725,236.804C 297.725,238.817 296.092,240.448 294.081,240.448L 5.0476,240.448C 3.03531,240.448 1.40367,238.817 1.40367,236.804C 1.40367,234.791 3.03531,233.16 5.0476,233.16L 294.081,233.16C 296.092,233.16 297.725,234.791 297.725,236.804 Z "/>
	<path fill="#666666" fill-opacity="0.501961" stroke-width="6.59467" stroke-linejoin="miter" d="M 148.93,240.448L 148.93,287.246L 148.93,300L 280.416,300L 280.416,240.448L 148.93,240.448 Z "/>
	<path fill="#333333" fill-opacity="0.501961" stroke-width="6.59467" stroke-linejoin="miter" d="M 294.081,233.16L 225.712,233.16L 199.762,233.16L 170.773,233.16L 148.93,233.16L 148.93,233.196L 148.93,239.876L 148.93,240.448L 280.416,240.448L 294.081,240.448C 296.093,240.448 297.725,238.817 297.725,236.804C 297.725,234.791 296.093,233.16 294.081,233.16 Z "/>
	<path fill="none" stroke-width="6.66667" stroke-linejoin="miter" stroke="#F1F1F1" stroke-opacity="1" d="M 288.346,182.366L 289.473,182.366L 289.473,181.24"/>
	<path fill="#989898" fill-opacity="1" stroke-width="6.66667" stroke-linejoin="miter" d="M 228.892,232.752L 189.227,232.752L 193.786,192.967L 224.747,192.967L 228.892,232.752 Z "/>
	<path fill="#666666" fill-opacity="1" stroke-width="6.66667" stroke-linejoin="miter" d="M 239.644,233.16C 239.441,231.34 237.899,229.925 236.025,229.925L 182.094,229.925C 180.22,229.925 178.678,231.34 178.475,233.16L 239.644,233.16 Z "/>
	<path fill="#7D4905" fill-opacity="1" fill-rule="evenodd" stroke-linejoin="round" d="M 175.393,112.855C 162.064,124.152 151.066,115.762 147.918,122.456C 137.691,144.205 172,161.925 157.128,161.925C 147.882,161.925 104.121,150.348 125.529,121.774C 123.625,118.23 121.504,115.769 119.127,113.081C 105.098,97.2084 119.414,47.7672 163.286,61.1034C 177.998,60.2914 197.623,94.0179 175.393,112.855 Z "/>
	<path fill="#FFFFFF" fill-opacity="1" fill-rule="evenodd" stroke-linejoin="round" d="M 135.842,147.565L 114.216,143.542C 95.4765,206.792 91.609,201.1 89.3416,208.556C 95.7685,212.643 96.1738,212.176 105.694,210.849C 114.573,171.763 122.118,180.35 135.842,147.565 Z "/>
	<line fill="none" stroke-linejoin="round" x1="179.039" y1="221.576" x2="123.278" y2="221.576"/>
	<path fill="#FFD7B7" fill-opacity="1" fill-rule="evenodd" stroke-linejoin="round" d="M 274.502,127.096L 274.502,127.096C 275.634,127.835 275.856,129.216 275.029,130.183L 262.936,144.586C 262.11,145.553 260.481,145.725 259.35,144.986C 258.22,144.247 257.997,142.867 258.823,141.899L 270.917,127.496C 271.744,126.527 273.37,126.357 274.502,127.096 Z "/>
	<path fill="#E3BA98" fill-opacity="1" fill-rule="evenodd" stroke-linejoin="round" d="M 245.22,158.927L 253.467,165.59L 261.646,159.84C 266,156.779 269.955,144.999 271.857,139.85L 264.485,137.033L 249.269,146.623L 245.22,158.927 Z "/>
	<path fill="#FFD7B7" fill-opacity="1" fill-rule="evenodd" stroke-linejoin="round" d="M 245.22,158.928L 251.088,163.669C 254.835,159.457 260.068,150.688 255.129,146.031C 254.508,145.257 253.87,144.632 253.221,144.131L 249.269,146.623L 245.22,158.928 Z "/>
	<path fill="#528FC4" fill-opacity="1" fill-rule="evenodd" stroke-linejoin="round" d="M 260.802,118.87L 269.587,121.373C 271.253,121.848 272.228,123.6 271.753,125.266L 265.018,148.894C 264.543,150.559 262.792,151.534 261.127,151.06L 252.342,148.556C 250.675,148.081 249.701,146.33 250.175,144.664L 256.909,121.036C 257.384,119.37 259.135,118.394 260.802,118.87 Z "/>
	<path fill="#FFFFFF" fill-opacity="1" fill-rule="evenodd" stroke-linejoin="round" d="M 257.978,121.417L 270.656,125.031L 264.255,147.493L 251.576,143.879L 257.978,121.417 Z "/>
	<path fill="#27557D" fill-opacity="1" fill-rule="evenodd" stroke-linejoin="round" d="M 261.882,120.951L 267.584,122.575C 267.74,122.62 267.902,122.529 267.947,122.375C 267.992,122.219 267.9,122.056 267.746,122.012L 262.042,120.387C 261.887,120.343 261.723,120.433 261.68,120.588C 261.636,120.743 261.727,120.906 261.882,120.951 Z "/>
	<path fill="#27557D" fill-opacity="1" fill-rule="evenodd" stroke-linejoin="round" d="M 252.388,146.851L 261.998,149.589C 262.238,149.658 262.49,149.517 262.559,149.277C 262.628,149.036 262.487,148.784 262.247,148.715L 252.638,145.977C 252.397,145.909 252.145,146.049 252.076,146.289C 252.008,146.53 252.148,146.782 252.388,146.851 Z "/>
	<path fill="#528FC4" fill-opacity="1" fill-rule="evenodd" stroke-linejoin="round" d="M 257.798,146.072C 258.743,146.341 259.29,147.324 259.021,148.269C 258.752,149.213 257.768,149.759 256.825,149.491C 255.88,149.222 255.333,148.238 255.602,147.294C 255.871,146.35 256.855,145.802 257.798,146.072 Z "/>
	<path fill="#27557D" fill-opacity="1" fill-rule="evenodd" stroke-linejoin="round" d="M 257.654,146.576C 258.32,146.767 258.705,147.459 258.517,148.125C 258.327,148.789 257.634,149.176 256.968,148.986C 256.302,148.797 255.917,148.104 256.107,147.438C 256.296,146.772 256.989,146.386 257.654,146.576 Z "/>
	<path fill="#FFD7B7" fill-opacity="1" fill-rule="evenodd" stroke-linejoin="round" d="M 271.523,137.946L 271.523,137.946C 272.316,139.04 272.036,140.421 270.911,141.017L 267.655,142.743C 266.53,143.339 264.955,142.929 264.163,141.834C 263.371,140.739 263.648,139.36 264.775,138.763L 268.031,137.036C 269.158,136.439 270.73,136.85 271.523,137.946 Z "/>
	<path fill="#FFE7D4" fill-opacity="1" fill-rule="evenodd" stroke-linejoin="round" d="M 268.093,139.712L 268.093,139.712C 268.722,140.582 268.501,141.681 267.607,142.154L 267.27,142.332C 266.376,142.803 265.125,142.479 264.495,141.609C 263.865,140.739 264.086,139.642 264.981,139.168L 265.318,138.99C 266.214,138.516 267.464,138.843 268.093,139.712 Z "/>
	<path fill="#FFFFFF" fill-opacity="1" fill-rule="evenodd" stroke-linejoin="round" d="M 238.81,162.437C 242.192,165.767 245.573,169.097 248.956,172.427C 250.828,170.456 252.701,168.484 254.574,166.512C 252.459,160.65 249.215,157.046 244.43,156.522C 242.556,158.494 240.683,160.466 238.81,162.437 Z "/>
	<path fill="#FFFFFF" fill-opacity="1" fill-rule="evenodd" stroke-linejoin="round" d="M 171.776,154.757C 177.253,151.184 182.731,147.613 188.207,144.042C 198.795,154.78 208.716,169.19 219.304,179.929C 225.364,174.035 232.088,164.466 238.147,158.574L 238.206,158.576C 245.529,161.475 250.093,166.028 251.814,172.287L 251.814,172.343C 243.698,180.787 234.581,186.895 226.467,195.34C 220.715,201.322 215.254,197.018 212.903,194.635C 209.613,191.298 171.709,154.801 171.776,154.757 Z "/>
	<path fill="#FFFFFF" fill-opacity="1" fill-rule="evenodd" stroke-linejoin="round" d="M 122.384,222.698C 118.56,217.731 126.81,213.166 127.452,207.646C 128.924,194.978 121.43,189.725 121.096,178.997C 120.586,162.591 130.849,163.755 114.3,144.041C 123.228,138.351 134.761,136.046 141.705,130.421C 144.999,133.303 147.345,133.959 151.079,133.959C 154.813,133.959 157.281,133.207 160.572,130.327C 165.709,134.487 178.869,137.99 188.207,144.041C 175.787,166.795 182.615,163.955 181.965,177.877C 181.525,187.291 175.801,194.754 176.235,207.094C 176.454,213.316 184.767,218.19 180.023,222.976C 158.884,230.24 134.834,226.995 122.384,222.698 Z "/>
	<path fill="#FFFFFF" fill-opacity="1" fill-rule="evenodd" stroke-linejoin="round" d="M 133.815,135.178L 132.986,157.212L 151.43,204.035L 169.611,157.212L 168.482,134.572L 161.351,129.886L 141.312,129.889L 133.815,135.178 Z "/>
	<path fill="#E3BA98" fill-opacity="1" fill-rule="evenodd" stroke-linejoin="round" d="M 141.984,122.724L 160.408,122.724L 160.408,141.809L 155.322,142.292L 151.473,174.911L 146.806,142.292L 141.984,141.809L 141.984,122.724 Z "/>
	<path fill="#F2CAA9" fill-opacity="1" fill-rule="evenodd" stroke-linejoin="round" d="M 151.299,129.401C 160.531,129.401 169.077,118.845 173.584,105.914C 173.848,106.185 174.143,106.357 174.473,106.412C 176.31,106.716 178.415,103.266 179.173,98.7046C 179.93,94.1415 179.055,90.1965 177.22,89.8917C 177.09,89.8697 176.959,89.868 176.826,89.8832C 177.727,73.8578 171.083,59.0543 151.299,59.0543C 131.499,59.0543 124.861,73.8815 125.773,89.9205C 125.572,89.8688 125.372,89.8595 125.174,89.8917C 123.337,90.1965 122.461,94.1415 123.219,98.7046C 123.977,103.266 126.082,106.716 127.917,106.412C 128.309,106.346 128.657,106.115 128.954,105.749C 133.445,118.757 142.027,129.401 151.299,129.401 Z "/>
	<path fill="#382103" fill-opacity="1" fill-rule="evenodd" stroke-linejoin="round" d="M 170.873,98.001C 171.015,98.7859 170.587,101.066 167.736,99.0712C 164.885,97.0746 158.967,97.6453 157.329,101.351C 158.825,96.2897 164.458,95.7207 167.308,97.7164C 170.16,99.7122 171.015,98.7859 170.873,98.001 Z "/>
	<path fill="#382103" fill-opacity="1" fill-rule="evenodd" stroke-linejoin="round" d="M 132.022,98.001C 131.879,98.7859 132.308,101.066 135.158,99.0712C 138.009,97.0746 143.927,97.6453 145.566,101.351C 144.07,96.2897 138.438,95.7207 135.586,97.7164C 132.736,99.7122 131.879,98.7859 132.022,98.001 Z "/>
	<path fill="#7D4905" fill-opacity="1" fill-rule="evenodd" stroke-linejoin="round" d="M 166.774,89.541C 161.783,86.2624 156.936,87.9009 156.01,90.3962C 157.651,89.1176 162.141,88.0482 166.774,89.541 Z "/>
	<path fill="#7D4905" fill-opacity="1" fill-rule="evenodd" stroke-linejoin="round" d="M 136.122,89.541C 141.111,86.2624 145.958,87.9009 146.885,90.3962C 145.244,89.1176 140.753,88.0482 136.122,89.541 Z "/>
	<path fill="#F2CAA9" fill-opacity="1" fill-rule="evenodd" stroke-linejoin="round" d="M 177.294,92.7477C 179.077,93.144 179.844,96.5131 179.008,100.271C 178.173,104.028 176.051,106.754 174.269,106.357C 172.486,105.962 171.719,102.594 172.554,98.8357C 173.39,95.0787 175.511,92.3514 177.294,92.7477 Z "/>
	<path fill="#7D4905" fill-opacity="1" fill-rule="evenodd" stroke-linejoin="round" d="M 177.19,89.8833C 178.107,73.8579 171.341,59.0543 151.196,59.0543C 131.036,59.0543 124.275,73.8816 125.204,89.9197C 126.834,90.3194 128.532,93.2516 129.283,97.0679C 130.598,97.9375 131.55,97.4295 131.55,94.1983C 131.55,84.6615 132.75,76.2102 139.127,74.1949C 145.196,72.2762 146.53,76.4862 151.161,76.4862C 155.792,76.4862 157.252,72.5201 163.195,74.1949C 169.364,75.9333 170.772,84.6615 170.772,94.1983C 170.772,97.2999 171.648,97.8918 172.88,97.1678C 173.651,93.1365 175.482,90.0704 177.19,89.8833 Z "/>
	<path fill="#7D4905" fill-opacity="1" fill-rule="evenodd" stroke-linejoin="round" d="M 162.73,65.6726C 161.519,74.6625 131.125,102.617 120.023,104.143C 116.578,57.9233 144.993,77.1129 147.771,67.7742C 148.432,65.5473 163.295,67.6074 162.73,65.6726 Z "/>
	<path fill="#7D4905" fill-opacity="1" fill-rule="evenodd" stroke-linejoin="round" d="M 155.431,59.9299C 154.708,68.9739 169.566,101.382 180.092,105.226C 184.062,72.1432 175.474,67.8418 169.605,65.1551C 167.494,64.1907 154.469,61.7021 155.431,59.9299 Z "/>
	<path fill="#7D4905" fill-opacity="1" fill-rule="evenodd" stroke-linejoin="round" d="M 169.571,64.4785C 170.855,73.4591 156.74,93.0281 146.474,97.5201C 153.028,93.8825 157.331,80.3592 155.751,70.5768C 155.379,68.2821 170.641,66.1882 169.571,64.4785 Z "/>
	<path fill="#CE6565" fill-opacity="1" fill-rule="evenodd" stroke-linejoin="round" d="M 159.776,114.797C 159.493,117.988 156.347,120.672 151.463,120.672C 146.63,120.672 143.508,118.003 143.151,114.86C 145.493,114.139 147.687,114.276 151.359,114.276C 154.857,114.276 157.459,114.135 159.776,114.797 Z "/>
	<path fill="#D1A886" fill-opacity="1" fill-rule="evenodd" stroke-linejoin="round" d="M 157.78,115.762C 157.321,120.093 145.701,120.144 145.115,115.827C 148.722,116.508 154.403,116.453 157.78,115.762 Z "/>
	<path fill="#B3957C" fill-opacity="1" fill-rule="evenodd" stroke-linejoin="round" d="M 155.506,107.571C 155.509,107.602 155.511,107.632 155.511,107.663C 155.511,108.824 153.691,109.767 151.447,109.767C 149.203,109.767 147.384,108.824 147.384,107.663C 147.384,107.632 147.385,107.602 147.387,107.571C 148.237,108.162 149.738,108.554 151.447,108.554C 153.158,108.554 154.657,108.162 155.506,107.571 Z "/>
	<path fill="#FFFFFF" fill-opacity="1" fill-rule="evenodd" stroke-linejoin="round" d="M 157.78,115.762C 157.321,118.077 145.701,118.105 145.115,115.796C 148.722,116.16 154.403,116.132 157.78,115.762 Z "/>
	<path fill="#27557D" fill-opacity="1" fill-rule="evenodd" stroke-linejoin="round" d="M 130.662,100.047C 131.292,99.8096 134.659,98.6758 140.805,99.0924L 140.805,99.6826C 137.768,99.5369 134.723,99.7647 133.85,100.576C 132.184,102.122 132.4,105.445 134.667,107.006C 135.784,107.776 138.352,108.214 140.805,108.327L 140.805,108.902C 137.805,108.753 134.385,108.197 133.408,106.882C 131.889,104.836 131.363,103.202 130.72,102.792C 130.078,102.383 129.904,100.33 130.662,100.047 Z M 140.805,99.0924L 141.062,99.111C 147.372,99.5776 148.717,100.805 149.358,100.746C 150.11,100.678 150.923,100.576 151.69,100.576C 152.457,100.576 153.327,100.676 154.107,100.746C 154.749,100.805 156.093,99.5776 162.403,99.111L 162.66,99.0924L 162.66,99.6826L 162.629,99.6843C 159.581,99.8325 155.604,100.539 154.824,102.286C 154.043,104.033 155.53,107.155 157.685,107.935C 158.664,108.289 160.623,108.422 162.66,108.327L 162.66,108.902C 160.994,108.985 159.458,108.941 158.542,108.831C 155.971,108.523 154.049,105.421 153.698,104.486C 152.91,102.386 150.556,102.386 149.767,104.486C 149.417,105.421 147.495,108.523 144.924,108.831C 144.009,108.941 142.472,108.985 140.805,108.902L 140.805,108.327C 142.844,108.422 144.801,108.289 145.78,107.935C 147.936,107.155 149.422,104.033 148.641,102.286C 147.861,100.539 143.884,99.8325 140.837,99.6843L 140.805,99.6826M 162.66,99.0924C 168.807,98.6758 172.172,99.8096 172.804,100.047C 173.562,100.33 173.388,102.383 172.745,102.792C 172.102,103.202 171.576,104.836 170.057,106.882C 169.081,108.197 165.66,108.753 162.66,108.902L 162.66,108.327C 165.113,108.214 167.681,107.776 168.799,107.006C 171.066,105.445 171.281,102.122 169.617,100.576C 168.743,99.7647 165.698,99.5369 162.66,99.6826L 162.66,99.0924 Z "/>
	<path fill="#CCCCCC" fill-opacity="1" fill-rule="evenodd" stroke-linejoin="round" d="M 161.286,129.888L 155.322,142.292L 168.198,156.184L 167.818,133.519L 161.286,129.888 Z "/>
	<path fill="#FFFFFF" fill-opacity="1" fill-rule="evenodd" stroke-linejoin="round" d="M 161.281,129.886L 155.322,142.292L 166.665,152.074L 167.818,133.519L 161.281,129.886 Z "/>
	<path fill="#CCCCCC" fill-opacity="1" fill-rule="evenodd" stroke-linejoin="round" d="M 163.839,191.256C 174.933,192.586 181.515,185.447 182.037,177.049C 182.107,177.599 182.141,178.16 182.141,178.728C 182.141,188.244 175.117,194.884 163.839,191.256 Z "/>
	<path fill="#CCCCCC" fill-opacity="1" fill-rule="evenodd" stroke-linejoin="round" d="M 180.785,166.16C 180.36,159.143 181.658,151.581 184.178,146.542C 179.488,151.515 178.628,160.346 180.785,166.16 Z "/>
	<path fill="#CCCCCC" fill-opacity="1" fill-rule="evenodd" stroke-linejoin="round" d="M 139.434,191.256C 128.339,192.586 121.758,185.447 121.235,177.049C 121.167,177.599 121.131,178.16 121.131,178.728C 121.131,188.244 128.156,194.884 139.434,191.256 Z "/>
	<path fill="#CCCCCC" fill-opacity="1" fill-rule="evenodd" stroke-linejoin="round" d="M 121.419,179.602C 119.245,175.649 124.224,156.507 115.428,147.286C 125.841,156.485 120.491,174.695 121.419,179.602 Z "/>
	<path fill="#CCCCCC" fill-opacity="1" fill-rule="evenodd" stroke-linejoin="round" d="M 251.058,170.063C 248.697,165.758 243.726,161.377 241.366,160.024C 245.747,160.007 250.126,164.719 251.058,170.063 Z "/>
	<path fill="#7D4905" fill-opacity="1" fill-rule="evenodd" stroke-linejoin="round" d="M 126.081,120.684C 119.403,125.528 117,142.208 123.666,146.753C 128.906,150.328 128.538,153.197 124.528,152.965C 130.501,157.745 132.418,150.63 130.723,145.633C 127.578,136.348 137.899,133.227 141.826,130.448C 145.751,127.67 129.387,120.684 126.081,120.684 Z "/>
	<path fill="#CCCCCC" fill-opacity="1" fill-rule="evenodd" stroke-linejoin="round" d="M 141.311,129.888L 146.806,142.292L 133.931,156.184L 134.455,134.412L 141.311,129.888 Z "/>
	<path fill="#FFFFFF" fill-opacity="1" fill-rule="evenodd" stroke-linejoin="round" d="M 141.314,129.886L 146.806,142.292L 135.464,152.074L 134.458,134.411L 141.314,129.886 Z "/>
	<path fill="#FFD7B7" fill-opacity="1" fill-rule="evenodd" stroke-linejoin="round" d="M 246.049,150.367L 247.589,151.32L 248.431,149.58L 255.19,135.613C 255.949,134.041 255.732,132.818 255.052,131.829C 254.477,130.991 252.666,129.615 252.308,130.36L 244.667,146.236C 243.997,147.621 244.619,149.482 246.049,150.367 Z "/>
	<path fill="#FFE7D4" fill-opacity="1" fill-rule="evenodd" stroke-linejoin="round" d="M 252.881,130.075C 252.584,129.893 252.447,130.08 252.388,130.202L 250.878,133.401C 252.307,134.037 253.269,132.527 253.486,130.988C 253.518,130.763 253.258,130.307 252.881,130.075 Z "/>
	<path fill="#FFD7B7" fill-opacity="1" fill-rule="evenodd" stroke-linejoin="round" d="M 266.191,151.528L 266.191,151.528C 266.874,152.472 266.633,153.66 265.665,154.174L 262.373,155.919C 261.405,156.431 260.048,156.079 259.365,155.135C 258.684,154.193 258.922,153.005 259.892,152.492L 263.185,150.746C 264.156,150.233 265.509,150.587 266.191,151.528 Z "/>
	<path fill="#FFD7B7" fill-opacity="1" fill-rule="evenodd" stroke-linejoin="round" d="M 268.953,144.961L 268.953,144.961C 269.747,146.056 269.467,147.437 268.343,148.033L 265.086,149.76C 263.961,150.355 262.387,149.945 261.594,148.85C 260.802,147.755 261.079,146.376 262.205,145.779L 265.462,144.053C 266.589,143.456 268.161,143.866 268.953,144.961 Z "/>
	<path fill="#FFE7D4" fill-opacity="1" fill-rule="evenodd" stroke-linejoin="round" d="M 265.524,146.728L 265.524,146.728C 266.153,147.599 265.933,148.698 265.038,149.171L 264.701,149.347C 263.806,149.82 262.555,149.495 261.926,148.625C 261.297,147.755 261.517,146.659 262.412,146.184L 262.749,146.006C 263.645,145.533 264.894,145.859 265.524,146.728 Z "/>
	<path fill="#FFE7D4" fill-opacity="1" fill-rule="evenodd" stroke-linejoin="round" d="M 263.051,153.116L 263.051,153.116C 263.629,153.915 263.426,154.925 262.605,155.358L 262.295,155.522C 261.472,155.956 260.323,155.657 259.745,154.858C 259.167,154.058 259.368,153.051 260.191,152.615L 260.5,152.452C 261.325,152.017 262.472,152.317 263.051,153.116 Z "/>
	<path fill="#FFD7B7" fill-opacity="1" fill-rule="evenodd" stroke-linejoin="round" d="M 251.248,141.466C 252.257,142.75 255.193,149.54 253.451,155.412C 251.707,161.285 234.641,147.521 251.248,141.466 Z "/>
	<path fill="#F2CAA9" fill-opacity="1" fill-rule="evenodd" stroke-linejoin="round" d="M 79.5169,228.28L 83.9749,218.837L 83.9528,218.829C 86.6151,214.302 84.858,217.724 87.4459,213.323L 99.2408,217.743C 98.5678,218.888 98.308,218.884 97.9252,219.956C 99.2665,220.806 99.5951,222.963 99.4437,224.128L 98.2245,233.5C 97.9445,235.862 93.4939,235.488 93.7822,233.057L 94.053,230.778C 94.5147,226.58 92.9853,228.617 91.6615,231.002C 96.9181,235.914 80.0757,234.016 79.5169,228.28 Z "/>
	<path fill="#FFFFFF" fill-opacity="1" fill-rule="evenodd" stroke-linejoin="round" d="M 85.3051,216.607C 86.751,220.214 93.3259,221.09 103.456,220.075C 104.523,216.988 105.589,213.9 106.654,210.813C 100.603,209.657 94.5524,208.5 88.5008,207.345C 87.4358,210.432 86.3709,213.519 85.3051,216.607 Z "/>
	<path fill="#CCCCCC" fill-opacity="1" fill-rule="evenodd" stroke-linejoin="round" d="M 88.0786,208.741C 92.8367,210.648 99.9689,211.326 102.91,211.131C 99.0096,213.296 90.493,212.166 88.0786,208.741 Z "/>
	<path fill="#666666" fill-opacity="1" stroke-width="6.66667" stroke-linejoin="miter" d="M 269.122,153.626C 269.122,149.506 265.781,146.165 261.661,146.165L 156.458,146.165C 152.338,146.165 148.997,149.506 148.997,153.626L 148.997,211.106C 148.997,215.225 152.338,218.566 156.458,218.566L 261.661,218.566C 265.781,218.566 269.122,215.225 269.122,211.106L 269.122,153.626 Z "/>
</svg>
