<?xml version="1.0" encoding="utf-8"?>
<!DOCTYPE svg PUBLIC "-//W3C//DTD SVG 1.1//EN" "http://www.w3.org/Graphics/SVG/1.1/DTD/svg11.dtd">
<svg xmlns="http://www.w3.org/2000/svg" xmlns:xlink="http://www.w3.org/1999/xlink" version="1.1" baseProfile="full" width="300" height="300" viewBox="0 0 300.00 300.00" enable-background="new 0 0 300.00 300.00" xml:space="preserve">
	<rect x="1.04516" y="0.950928" fill="#FCEED5" fill-opacity="1" stroke-linejoin="round" width="298.737" height="298.835"/>
	<g>
		<defs>
			<rect id="SVG_CLIPPER1_" x="1.5786" y="1.16492" width="298.737" height="298.835"/>
		</defs>
		<clipPath id="SVG_CLIPPER2_">
			<use xlink:href="#SVG_CLIPPER1_" overflow="visible"/>
		</clipPath>
		<g clip-path="url(#SVG_CLIPPER2_)">
			<path fill="#FF695D" fill-opacity="0.301961" stroke-linejoin="round" d="M 319.5,115.24C 319.5,141.364 298.327,162.542 272.213,162.542C 246.099,162.542 224.926,141.364 224.926,115.24C 224.926,89.1152 246.099,67.9368 272.213,67.9368C 298.327,67.9368 319.5,89.1152 319.5,115.24 Z "/>
			<path fill="#00B9AF" fill-opacity="0.301961" stroke-linejoin="round" d="M 246.03,60.0984C 246.03,83.0153 227.457,101.594 204.547,101.594C 181.637,101.594 163.064,83.0153 163.064,60.0984C 163.064,37.1808 181.637,18.6018 204.547,18.6018C 227.457,18.6018 246.03,37.1808 246.03,60.0984 Z "/>
		</g>
	</g>
	<g>
		<defs>
			<rect id="SVG_CLIPPER3_" x="1.5786" y="1.16492" width="298.737" height="298.835"/>
		</defs>
		<clipPath id="SVG_CLIPPER4_">
			<use xlink:href="#SVG_CLIPPER3_" overflow="visible"/>
		</clipPath>
		<g clip-path="url(#SVG_CLIPPER4_)">
			<path fill="#8DBC1B" fill-opacity="0.403922" stroke-linejoin="round" d="M 80.2219,86.9025C 80.2219,111.549 60.2487,131.528 35.6107,131.528C 10.9732,131.528 -9.00001,111.549 -9.00001,86.9025C -9.00001,62.2565 10.9732,42.2771 35.6107,42.2771C 60.2487,42.2771 80.2219,62.2565 80.2219,86.9025 Z "/>
		</g>
	</g>
	<path fill="#FF695D" fill-opacity="0.203922" stroke-linejoin="round" d="M 120.381,33.9299C 120.381,51.94 105.785,66.541 87.7806,66.541C 69.7769,66.541 55.1806,51.94 55.1806,33.9299C 55.1806,15.9203 69.7769,1.31915 87.7806,1.31915C 105.785,1.31915 120.381,15.9203 120.381,33.9299 Z "/>
	<g>
		<defs>
			<rect id="SVG_CLIPPER5_" x="1.5786" y="1.16492" width="298.737" height="298.835"/>
		</defs>
		<clipPath id="SVG_CLIPPER6_">
			<use xlink:href="#SVG_CLIPPER5_" overflow="visible"/>
		</clipPath>
		<g clip-path="url(#SVG_CLIPPER6_)">
			<path fill="#FFB309" fill-opacity="0.203922" stroke-linejoin="round" d="M 241.111,135.322C 241.111,148.566 230.377,159.303 217.138,159.303C 203.899,159.303 193.165,148.566 193.165,135.322C 193.165,122.078 203.899,111.341 217.138,111.341C 230.377,111.341 241.111,122.078 241.111,135.322 Z "/>
		</g>
	</g>
	<path fill="#FFFFFF" fill-opacity="0.803922" stroke-linejoin="round" d="M 209.945,137.546L 209.945,137.604L 215.628,139.606L 215.628,142.285L 207.139,138.666L 207.139,136.431L 215.628,132.83L 215.628,135.509L 209.945,137.546 Z "/>
	<path fill="#FFFFFF" fill-opacity="0.803922" stroke-linejoin="round" d="M 224.001,137.563L 224.001,137.505L 218.231,135.474L 218.231,132.83L 226.814,136.431L 226.814,138.666L 218.231,142.285L 218.231,139.624L 224.001,137.563 Z "/>
	<g>
		<defs>
			<rect id="SVG_CLIPPER7_" x="1.5786" y="1.16492" width="298.737" height="298.835"/>
		</defs>
		<clipPath id="SVG_CLIPPER8_">
			<use xlink:href="#SVG_CLIPPER7_" overflow="visible"/>
		</clipPath>
		<g clip-path="url(#SVG_CLIPPER8_)">
			<path fill="#FFB309" fill-opacity="0.203922" stroke-linejoin="round" d="M 40.6759,12.6171C 40.6759,25.8611 29.9426,36.5979 16.703,36.5979C 3.4637,36.5979 -7.26991,25.8611 -7.26991,12.6171C -7.26991,-0.626923 3.4637,-11.3637 16.703,-11.3637C 29.9426,-11.3637 40.6759,-0.626923 40.6759,12.6171 Z "/>
			<path fill="#FFFFFF" fill-opacity="1" stroke-linejoin="round" d="M 9.51051,14.841L 9.51051,14.8994L 15.1935,16.9014L 15.1935,19.5804L 6.70402,15.9617L 6.70402,13.7262L 15.1935,10.125L 15.1935,12.804L 9.51051,14.841 Z "/>
			<path fill="#FFFFFF" fill-opacity="1" stroke-linejoin="round" d="M 23.5666,14.8586L 23.5666,14.8002L 17.7961,12.769L 17.7961,10.125L 26.3789,13.7262L 26.3789,15.9617L 17.7961,19.5804L 17.7961,16.9189L 23.5666,14.8586 Z "/>
			<path fill="#00B9AF" fill-opacity="0.203922" stroke-linejoin="round" d="M 111.814,125.66C 111.814,140.31 99.9411,152.187 85.2944,152.187C 70.6485,152.187 58.7759,140.31 58.7759,125.66C 58.7759,111.009 70.6485,99.1319 85.2944,99.1319C 99.9411,99.1319 111.814,111.009 111.814,125.66 Z "/>
		</g>
	</g>
	<path fill="#FFFFFF" fill-opacity="0.803922" stroke-linejoin="round" d="M 84.2786,136.343C 82.995,135.981 82.0847,135.403 81.548,134.615C 81.0053,133.827 80.7369,132.87 80.7369,131.749L 80.7369,129.753C 80.7369,129.099 80.5911,128.598 80.3052,128.236C 80.0192,127.874 79.5816,127.693 78.9923,127.693L 78.9923,125.714C 79.5816,125.714 80.0192,125.539 80.3052,125.177C 80.5911,124.821 80.7369,124.308 80.7369,123.642L 80.7369,121.646C 80.7369,120.525 81.0053,119.568 81.548,118.786C 82.0847,118.004 82.995,117.426 84.2786,117.064L 84.8329,118.611C 84.2728,118.815 83.876,119.177 83.6484,119.703C 83.415,120.228 83.3042,120.876 83.3042,121.646L 83.3042,123.642C 83.3042,124.331 83.1583,124.938 82.8666,125.463C 82.5749,125.989 82.1314,126.403 81.5421,126.695C 82.1314,127.01 82.5749,127.43 82.8666,127.956C 83.1583,128.481 83.3042,129.082 83.3042,129.753L 83.3042,131.749C 83.3042,132.526 83.415,133.168 83.6484,133.693C 83.876,134.218 84.2728,134.58 84.8329,134.784L 84.2786,136.343 Z "/>
	<path fill="#FFFFFF" fill-opacity="0.803922" stroke-linejoin="round" d="M 85.6275,134.784C 86.1876,134.58 86.5786,134.218 86.812,133.693C 87.0395,133.168 87.1562,132.526 87.1562,131.749L 87.1562,129.753C 87.1562,129.07 87.3021,128.463 87.6055,127.938C 87.9089,127.413 88.3698,127.004 88.9883,126.706C 88.3698,126.415 87.9089,126 87.6055,125.469C 87.3021,124.944 87.1562,124.331 87.1562,123.642L 87.1562,121.646C 87.1562,120.876 87.0395,120.228 86.812,119.703C 86.5786,119.177 86.1876,118.815 85.6275,118.611L 86.1818,117.064C 87.4538,117.426 88.3581,118.004 88.9066,118.786C 89.4492,119.568 89.7235,120.525 89.7235,121.646L 89.7235,123.642C 89.7235,124.308 89.8635,124.821 90.1494,125.177C 90.4295,125.539 90.8729,125.714 91.4797,125.714L 91.4797,127.693C 90.8729,127.693 90.4295,127.874 90.1494,128.236C 89.8635,128.598 89.7235,129.099 89.7235,129.753L 89.7235,131.749C 89.7235,132.87 89.4492,133.827 88.9066,134.615C 88.3581,135.403 87.4538,135.981 86.1818,136.343L 85.6275,134.784 Z "/>
	<g>
		<defs>
			<rect id="SVG_CLIPPER9_" x="1.5786" y="1.16492" width="298.737" height="298.835"/>
		</defs>
		<clipPath id="SVG_CLIPPER10_">
			<use xlink:href="#SVG_CLIPPER9_" overflow="visible"/>
		</clipPath>
		<g clip-path="url(#SVG_CLIPPER10_)">
			<path fill="#8DBC1B" fill-opacity="0.203922" stroke-linejoin="round" d="M 296.102,23.2063C 296.102,39.4454 282.942,52.6102 266.708,52.6102C 250.475,52.6102 237.314,39.4454 237.314,23.2063C 237.314,6.96765 250.475,-6.19714 266.708,-6.19714C 282.942,-6.19714 296.102,6.96765 296.102,23.2063 Z "/>
		</g>
	</g>
	<g>
		<defs>
			<rect id="SVG_CLIPPER11_" x="1.5786" y="1.16492" width="298.737" height="298.835"/>
		</defs>
		<clipPath id="SVG_CLIPPER12_">
			<use xlink:href="#SVG_CLIPPER11_" overflow="visible"/>
		</clipPath>
		<g clip-path="url(#SVG_CLIPPER12_)">
			<path fill="#FFB309" fill-opacity="0.752941" stroke-linejoin="round" d="M 193.671,18.6022C 193.671,40.7492 175.721,58.704 153.582,58.704C 131.442,58.704 113.493,40.7492 113.493,18.6022C 113.493,-3.54523 131.442,-21.5 153.582,-21.5C 175.721,-21.5 193.671,-3.54523 193.671,18.6022 Z "/>
			<path fill="#FFB309" fill-opacity="0.752941" stroke-linejoin="round" d="M 42.1872,149.416C 42.1872,162.66 31.454,173.396 18.2144,173.396C 4.97509,173.396 -5.75853,162.66 -5.75853,149.416C -5.75853,136.172 4.97509,125.435 18.2144,125.435C 31.454,125.435 42.1872,136.172 42.1872,149.416 Z "/>
			<path fill="#FFFFFF" fill-opacity="0.752941" stroke-linejoin="round" d="M 17.3733,151.035C 14.7112,153.698 10.3795,153.698 7.71742,151.035C 5.0553,148.372 5.0553,144.039 7.71742,141.376C 10.3795,138.713 14.7112,138.713 17.3733,141.376C 20.0355,144.039 20.0355,148.372 17.3733,151.035 Z M 19.3416,139.407C 15.5884,135.653 9.50274,135.653 5.74949,139.407C 1.99623,143.162 1.99623,149.249 5.74949,153.004C 9.09124,156.347 14.281,156.71 18.0279,154.1L 28.0625,164.138L 30.4718,161.727L 20.4376,151.69C 23.0471,147.941 22.6834,142.75 19.3416,139.407 Z "/>
			<path fill="#00B9AF" fill-opacity="0.752941" stroke-linejoin="round" d="M 293.226,179.898C 293.226,194.549 281.353,206.426 266.706,206.426C 252.06,206.426 240.188,194.549 240.188,179.898C 240.188,165.248 252.06,153.371 266.706,153.371C 281.353,153.371 293.226,165.248 293.226,179.898 Z "/>
			<path fill="#FFFFFF" fill-opacity="0.901961" stroke-linejoin="round" d="M 273.558,178.557L 273.558,162.421L 259.855,162.421L 259.855,178.557L 254.546,178.557L 259.855,187.755L 259.855,188.157L 260.087,188.157L 266.707,199.626L 273.326,188.157L 273.558,188.157L 273.558,187.756L 278.867,178.557L 273.558,178.557 Z "/>
		</g>
	</g>
	<g>
		<path fill="#FFFFFF" fill-opacity="1" stroke-linejoin="round" d="M 144.406,29.3795C 143.051,30.0735 141.365,30.4204 139.347,30.4204C 136.744,30.4204 134.658,29.5999 133.091,27.9589C 131.524,26.3179 130.74,24.1645 130.74,21.4987C 130.74,18.632 131.622,16.3159 133.385,14.5504C 135.148,12.7848 137.383,11.902 140.09,11.902C 141.826,11.902 143.264,12.0962 144.406,12.4847L 144.406,14.7312C 143.108,14.0453 141.675,13.7024 140.107,13.7024C 138.026,13.7024 136.339,14.3983 135.046,15.7901C 133.752,17.182 133.105,19.042 133.105,21.3701C 133.105,23.5805 133.71,25.3413 134.918,26.6528C 136.127,27.9643 137.714,28.62 139.68,28.62C 141.5,28.62 143.075,28.1913 144.406,27.334L 144.406,29.3795 Z "/>
		<path fill="#FFFFFF" fill-opacity="1" stroke-linejoin="round" d="M 154.844,30.4204C 154.299,30.4204 153.745,30.3681 153.181,30.2636C 152.617,30.1591 152.071,30.0011 151.543,29.7895C 151.014,29.5778 150.509,29.3152 150.027,29.0018C 149.546,28.6883 149.109,28.3239 148.717,27.9087C 147.157,26.2422 146.377,24.0641 146.377,21.3742C 146.377,18.4834 147.169,16.1846 148.754,14.478C 150.359,12.7607 152.551,11.902 155.333,11.902C 157.821,11.902 159.841,12.7352 161.393,14.4016C 162.946,16.0681 163.722,18.2462 163.722,20.9361C 163.722,22.0694 163.592,23.1377 163.332,24.1411C 163.072,25.1444 162.677,26.05 162.149,26.8578C 161.621,27.6655 160.955,28.3507 160.153,28.9134C 159.351,29.476 158.404,29.8778 157.312,30.119C 157.761,30.5825 158.182,30.9931 158.574,31.3507C 158.967,31.7084 159.361,32.0091 159.755,32.2529C 160.149,32.4967 160.558,32.6809 160.981,32.8055C 161.404,32.9301 161.87,32.9924 162.379,32.9924C 162.519,32.9924 162.67,32.9857 162.835,32.9723C 162.999,32.9589 163.165,32.9381 163.334,32.91C 163.502,32.8819 163.664,32.8484 163.82,32.8095C 163.976,32.7707 164.119,32.7271 164.247,32.6789L 164.247,34.7888C 164.11,34.8316 163.956,34.8685 163.783,34.8993C 163.611,34.9301 163.436,34.9562 163.26,34.9776C 163.083,34.9991 162.909,35.0165 162.736,35.0299C 162.564,35.0433 162.405,35.05 162.26,35.05C 161.433,35.05 160.69,34.9294 160.03,34.6883C 159.37,34.4472 158.754,34.1163 158.182,33.6957C 157.61,33.2751 157.057,32.7854 156.523,32.2268C 155.99,31.6682 155.43,31.0661 154.844,30.4204 Z M 155.123,13.7024C 153.232,13.7024 151.694,14.3896 150.512,15.764C 149.332,17.1384 148.742,18.9442 148.742,21.1813C 148.742,23.4077 149.316,25.2081 150.463,26.5825C 151.618,27.9408 153.122,28.62 154.975,28.62C 156.952,28.62 158.509,27.9703 159.648,26.6709C 160.787,25.3715 161.356,23.5537 161.356,21.2174C 161.356,18.8142 160.803,16.9629 159.698,15.6635C 158.592,14.3561 157.067,13.7024 155.123,13.7024 Z "/>
		<path fill="#FFFFFF" fill-opacity="1" stroke-linejoin="round" d="M 166.875,29.5202L 166.875,27.334C 168.129,28.1913 169.403,28.62 170.698,28.62C 171.996,28.62 173.041,28.259 173.833,27.5369C 174.626,26.8149 175.022,25.8591 175.022,24.6696C 175.022,23.4854 174.614,22.5617 173.798,21.8986C 172.983,21.2355 171.815,20.904 170.296,20.904C 169.781,20.904 168.816,20.9549 167.401,21.0567L 167.401,12.1592L 176.336,12.1592L 176.336,13.9596L 169.503,13.9596L 169.503,19.1558C 170.059,19.121 170.572,19.1036 171.043,19.1036C 172.979,19.1036 174.476,19.5912 175.535,20.5664C 176.595,21.5416 177.124,22.8772 177.124,24.5731C 177.124,26.328 176.549,27.7412 175.398,28.8129C 174.247,29.8846 172.668,30.4204 170.661,30.4204C 168.969,30.4204 167.707,30.1203 166.875,29.5202 Z "/>
	</g>
	<g>
		<path fill="#FFFFFF" fill-opacity="1" stroke-linejoin="round" d="M 189.315,69.3683L 186.901,69.3683L 184.877,64.2243L 177.095,64.2243L 175.186,69.3683L 172.759,69.3683L 179.896,51.3643L 182.154,51.3643L 189.315,69.3683 Z M 184.187,62.4239L 181.292,54.8727C 181.199,54.6235 181.106,54.2257 181.013,53.6791L 180.959,53.6791C 180.872,54.1855 180.77,54.5834 180.655,54.8727L 177.781,62.4239L 184.187,62.4239 Z "/>
		<path fill="#FFFFFF" fill-opacity="1" stroke-linejoin="round" d="M 201.93,69.3683L 191.943,69.3683L 191.943,51.3643L 201.404,51.3643L 201.404,53.1647L 194.046,53.1647L 194.046,59.3375L 200.879,59.3375L 200.879,61.1379L 194.046,61.1379L 194.046,67.5679L 201.93,67.5679L 201.93,69.3683 Z "/>
		<path fill="#FFFFFF" fill-opacity="1" stroke-linejoin="round" d="M 224.268,69.3683L 222.165,69.3683L 222.165,57.292C 222.165,56.3355 222.224,55.1674 222.342,53.7876L 222.289,53.7876C 222.081,54.5994 221.894,55.1808 221.73,55.5318L 215.37,69.3683L 214.306,69.3683L 207.958,55.6322C 207.774,55.2304 207.588,54.6155 207.399,53.7876L 207.346,53.7876C 207.414,54.5083 207.449,55.6845 207.449,57.3161L 207.449,69.3683L 205.346,69.3683L 205.346,51.3643L 208.217,51.3643L 213.941,63.9189C 214.381,64.8807 214.667,65.6001 214.799,66.077L 214.877,66.077C 215.249,65.0884 215.549,64.3516 215.776,63.8667L 221.615,51.3643L 224.268,51.3643L 224.268,69.3683 Z "/>
		<path fill="#FFFFFF" fill-opacity="1" stroke-linejoin="round" d="M 238.722,51.6456L 238.722,53.6791C 237.742,53.1647 236.707,52.9075 235.618,52.9075C 233.931,52.9075 232.582,53.6102 231.569,55.0154C 230.556,56.4206 230.049,58.3007 230.049,60.6557L 230.103,60.6557C 230.976,58.9196 232.409,58.0515 234.402,58.0515C 236.045,58.0515 237.35,58.5566 238.319,59.5666C 239.289,60.5766 239.773,61.9269 239.773,63.6175C 239.773,65.3857 239.224,66.8291 238.126,67.9477C 237.029,69.0662 235.633,69.6255 233.938,69.6255C 232.071,69.6255 230.606,68.9089 229.542,67.4755C 228.479,66.0421 227.947,64.0301 227.947,61.4393C 227.947,58.2994 228.649,55.7923 230.052,53.9183C 231.454,52.0442 233.307,51.1071 235.609,51.1071C 236.918,51.1071 237.955,51.2866 238.722,51.6456 Z M 233.975,59.8519C 232.85,59.8519 231.938,60.2069 231.238,60.9169C 230.539,61.6269 230.189,62.4641 230.189,63.4286C 230.189,64.6423 230.537,65.6785 231.232,66.5371C 231.927,67.3958 232.851,67.8251 234.004,67.8251C 235.102,67.8251 235.987,67.4514 236.661,66.7039C 237.334,65.9564 237.671,65.0093 237.671,63.8626C 237.671,62.6088 237.348,61.6269 236.702,60.9169C 236.056,60.2069 235.147,59.8519 233.975,59.8519 Z "/>
	</g>
	<g>
		<path fill="#FFFFFF" fill-opacity="1" stroke-linejoin="round" d="M 73.4426,35.213C 73.4426,36.8696 73.0849,38.1574 72.3695,39.0763C 71.6541,39.9953 70.697,40.4548 69.4983,40.4548C 68.9426,40.4548 68.4859,40.3787 68.1282,40.2266L 68.1282,38.6544C 68.4901,38.9211 68.9575,39.0544 69.5302,39.0544C 71.0483,39.0544 71.8074,37.7969 71.8074,35.2817L 71.8074,26.2516L 73.4426,26.2516L 73.4426,35.213 Z "/>
		<path fill="#FFFFFF" fill-opacity="1" stroke-linejoin="round" d="M 83.7648,40.2547L 82.1296,40.2547L 82.1296,38.6043L 82.0881,38.6043C 81.3663,39.838 80.3017,40.4548 78.8943,40.4548C 77.8595,40.4548 77.0499,40.1901 76.4655,39.6609C 75.881,39.1316 75.5888,38.4283 75.5888,37.551C 75.5888,35.6735 76.7311,34.5816 79.0157,34.2753L 82.1296,33.8533C 82.1296,32.253 81.4174,31.4528 79.993,31.4528C 78.7431,31.4528 77.6157,31.8528 76.6108,32.653L 76.6108,30.9995C 77.6264,30.3681 78.7964,30.0525 80.1207,30.0525C 82.5501,30.0525 83.7648,31.2923 83.7648,33.772L 83.7648,40.2547 Z M 82.1296,35.0536L 79.5905,35.3911C 78.8091,35.4953 78.2194,35.6813 77.8212,35.9491C 77.423,36.2168 77.224,36.6904 77.224,37.3697C 77.224,37.8656 77.4076,38.2704 77.7749,38.584C 78.1422,38.8976 78.6303,39.0544 79.2392,39.0544C 80.076,39.0544 80.7669,38.7721 81.312,38.2074C 81.857,37.6427 82.1296,36.9279 82.1296,36.0632L 82.1296,35.0536 Z "/>
		<path fill="#FFFFFF" fill-opacity="1" stroke-linejoin="round" d="M 95.0068,30.2525L 90.9124,40.2547L 89.2963,40.2547L 85.4,30.2525L 87.1949,30.2525L 89.8137,37.5197C 90.0096,38.0532 90.131,38.5189 90.1778,38.9169L 90.2193,38.9169C 90.2853,38.4147 90.3929,37.9626 90.5419,37.5604L 93.2821,30.2525L 95.0068,30.2525 Z "/>
		<path fill="#FFFFFF" fill-opacity="1" stroke-linejoin="round" d="M 102.978,40.2547L 101.343,40.2547L 101.343,38.6043L 101.302,38.6043C 100.58,39.838 99.5153,40.4548 98.1079,40.4548C 97.0731,40.4548 96.2635,40.1901 95.6791,39.6609C 95.0946,39.1316 94.8024,38.4283 94.8024,37.551C 94.8024,35.6735 95.9447,34.5816 98.2293,34.2753L 101.343,33.8533C 101.343,32.253 100.631,31.4528 99.2066,31.4528C 97.9567,31.4528 96.8293,31.8528 95.8244,32.653L 95.8244,30.9995C 96.84,30.3681 98.01,30.0525 99.3343,30.0525C 101.764,30.0525 102.978,31.2923 102.978,33.772L 102.978,40.2547 Z M 101.343,35.0536L 98.8041,35.3911C 98.0227,35.4953 97.433,35.6813 97.0348,35.9491C 96.6367,36.2168 96.4376,36.6904 96.4376,37.3697C 96.4376,37.8656 96.6212,38.2704 96.9885,38.584C 97.3558,38.8976 97.8439,39.0544 98.4528,39.0544C 99.2896,39.0544 99.9805,38.7721 100.526,38.2074C 101.071,37.6427 101.343,36.9279 101.343,36.0632L 101.343,35.0536 Z "/>
	</g>
	<g>
		<path fill="#FFFFFF" fill-opacity="1" stroke-linejoin="round" d="M 8.72807,93.5179L 8.72807,91.0303C 9.02099,91.3089 9.37139,91.5601 9.77927,91.7838C 10.1872,92.0075 10.6169,92.1957 11.0686,92.3484C 11.5203,92.5011 11.9741,92.6197 12.4299,92.7041C 12.8857,92.7885 13.3065,92.8307 13.6925,92.8307C 15.0257,92.8307 16.0208,92.5835 16.6778,92.0892C 17.3348,91.5949 17.6633,90.8843 17.6633,89.9573C 17.6633,89.475 17.5531,89.0544 17.3327,88.6954C 17.1124,88.3364 16.8085,88.0095 16.4211,87.7148C 16.0338,87.4201 15.5752,87.1368 15.0455,86.8649C 14.5158,86.5929 13.9444,86.3082 13.3312,86.0109C 12.6851,85.692 12.0822,85.3705 11.5224,85.0464C 10.9626,84.7222 10.4753,84.3645 10.0606,83.9733C 9.64582,83.5822 9.32006,83.1388 9.08326,82.6431C 8.84647,82.1475 8.72807,81.5661 8.72807,80.899C 8.72807,80.0819 8.91491,79.3712 9.28858,78.7671C 9.66225,78.1629 10.1529,77.6653 10.7607,77.2741C 11.3684,76.8829 12.061,76.5916 12.8384,76.4C 13.6159,76.2085 14.4084,76.1127 15.2159,76.1127C 17.0555,76.1127 18.3969,76.3498 19.2401,76.824L 19.2401,79.1991C 18.1478,78.3418 16.7448,77.9131 15.0312,77.9131C 14.5576,77.9131 14.084,77.9626 13.6104,78.0618C 13.1368,78.1609 12.7152,78.323 12.3457,78.548C 11.9761,78.7731 11.675,79.0624 11.4423,79.4161C 11.2096,79.7697 11.0933,80.2011 11.0933,80.7101C 11.0933,81.1683 11.1816,81.5641 11.3581,81.8977C 11.5347,82.2312 11.7954,82.5353 12.1404,82.8099C 12.4853,83.0845 12.9055,83.3511 13.401,83.6097C 13.8965,83.8682 14.4672,84.1515 15.1133,84.4596C 15.7785,84.7758 16.4081,85.1087 17.0022,85.4583C 17.5962,85.8079 18.1177,86.1957 18.5666,86.6217C 19.0156,87.0477 19.3715,87.5186 19.6343,88.0343C 19.8971,88.55 20.0285,89.1415 20.0285,89.8086C 20.0285,90.6927 19.8485,91.4409 19.4885,92.0531C 19.1285,92.6652 18.6433,93.1629 18.0328,93.546C 17.4224,93.9291 16.7182,94.2058 15.9202,94.3759C 15.1222,94.546 14.2811,94.6311 13.3969,94.6311C 13.1012,94.6311 12.7371,94.6063 12.3046,94.5567C 11.8721,94.5072 11.43,94.4348 10.9783,94.3397C 10.5266,94.2446 10.0996,94.1267 9.69715,93.9861C 9.29474,93.8454 8.97171,93.6893 8.72807,93.5179 Z "/>
		<rect x="23.1821" y="75.3411" fill="#FFFFFF" fill-opacity="1" stroke-linejoin="round" width="2.1024" height="19.0328"/>
		<path fill="#FFFFFF" fill-opacity="1" stroke-linejoin="round" d="M 30.5282,78.1703C 30.1668,78.1703 29.8595,78.0497 29.6063,77.8086C 29.3531,77.5675 29.2265,77.262 29.2265,76.8923C 29.2265,76.5199 29.3531,76.2111 29.6063,75.966C 29.8595,75.7208 30.1668,75.5983 30.5282,75.5983C 30.8977,75.5983 31.2112,75.7208 31.4685,75.966C 31.7258,76.2111 31.8545,76.5199 31.8545,76.8923C 31.8545,77.246 31.7258,77.5474 31.4685,77.7965C 31.2112,78.0457 30.8977,78.1703 30.5282,78.1703 Z M 31.5917,94.3739L 29.4893,94.3739L 29.4893,81.5139L 31.5917,81.5139L 31.5917,94.3739 Z "/>
		<path fill="#FFFFFF" fill-opacity="1" stroke-linejoin="round" d="M 46.8341,94.3739L 44.7317,94.3739L 44.7317,87.112C 44.7317,84.4087 43.6928,83.0571 41.615,83.0571C 40.5419,83.0571 39.6543,83.4402 38.9521,84.2064C 38.25,84.9727 37.8989,85.9412 37.8989,87.112L 37.8989,94.3739L 35.7965,94.3739L 35.7965,81.5139L 37.8989,81.5139L 37.8989,83.7604L 37.9523,83.7604C 38.9597,82.0912 40.4174,81.2567 42.3254,81.2567C 43.7845,81.2567 44.9007,81.7095 45.6741,82.615C 46.4474,83.5206 46.8341,84.828 46.8341,86.5373L 46.8341,94.3739 Z "/>
		<path fill="#FFFFFF" fill-opacity="1" stroke-linejoin="round" d="M 62.0765,93.4174C 62.0765,98.1703 59.7975,100.547 55.2396,100.547C 53.6381,100.547 52.2379,100.233 51.0389,99.6063L 51.0389,97.4603C 52.4952,98.3176 53.8831,98.7463 55.2026,98.7463C 58.3836,98.7463 59.9741,97.0129 59.9741,93.546L 59.9741,92.0993L 59.9248,92.0993C 58.9256,93.7872 57.4227,94.6311 55.4161,94.6311C 53.7846,94.6311 52.472,94.0631 51.4782,92.9271C 50.4845,91.7912 49.9877,90.2667 49.9877,88.3538C 49.9877,86.1837 50.5229,84.4583 51.5932,83.1777C 52.6636,81.897 54.1295,81.2567 55.991,81.2567C 57.7567,81.2567 59.0666,81.9747 59.9207,83.4107L 59.9741,83.4107L 59.9741,81.5139L 62.0765,81.5139L 62.0765,93.4174 Z M 59.9741,88.5467L 59.9741,86.69C 59.9741,85.6934 59.6196,84.8387 58.9106,84.1261C 58.2015,83.4134 57.3187,83.0571 56.262,83.0571C 54.959,83.0571 53.9379,83.5092 53.1988,84.4134C 52.4596,85.3176 52.0901,86.5842 52.0901,88.2131C 52.0901,89.6143 52.4446,90.7342 53.1536,91.5728C 53.8626,92.4114 54.8002,92.8307 55.9664,92.8307C 57.1517,92.8307 58.116,92.4295 58.8592,91.6271C 59.6025,90.8246 59.9741,89.7979 59.9741,88.5467 Z "/>
	</g>
	<g>
		<path fill="#FFFFFF" fill-opacity="1" stroke-linejoin="round" d="M 254.599,26.8066C 254.599,28.9366 254.139,30.5923 253.22,31.7738C 252.3,32.9553 251.069,33.5461 249.528,33.5461C 248.814,33.5461 248.226,33.4483 247.767,33.2527L 247.767,31.2313C 248.232,31.5742 248.833,31.7457 249.569,31.7457C 251.521,31.7457 252.497,30.1288 252.497,26.8951L 252.497,15.2849L 254.599,15.2849L 254.599,26.8066 Z "/>
		<path fill="#FFFFFF" fill-opacity="1" stroke-linejoin="round" d="M 271.944,32.5052C 270.589,33.1991 268.903,33.5461 266.885,33.5461C 264.282,33.5461 262.197,32.7256 260.629,31.0846C 259.062,29.4436 258.279,27.2902 258.279,24.6245C 258.279,21.7578 259.16,19.4416 260.923,17.6761C 262.686,15.9105 264.921,15.0277 267.629,15.0277C 269.364,15.0277 270.803,15.2219 271.944,15.6104L 271.944,17.8569C 270.647,17.171 269.214,16.8281 267.645,16.8281C 265.564,16.8281 263.877,17.524 262.584,18.9158C 261.29,20.3076 260.644,22.1677 260.644,24.4958C 260.644,26.7062 261.248,28.467 262.457,29.7785C 263.665,31.0899 265.252,31.7457 267.218,31.7457C 269.038,31.7457 270.614,31.317 271.944,30.4597L 271.944,32.5052 Z "/>
		<path fill="#FFFFFF" fill-opacity="1" stroke-linejoin="round" d="M 289.026,33.2889L 286.46,33.2889L 283.38,28.2052C 283.084,27.731 282.798,27.3277 282.52,26.9955C 282.242,26.6633 281.957,26.3914 281.664,26.1797C 281.371,25.968 281.057,25.814 280.721,25.7176C 280.386,25.6211 280.006,25.5729 279.582,25.5729L 277.726,25.5729L 277.726,33.2889L 275.623,33.2889L 275.623,15.2849L 281.22,15.2849C 282.041,15.2849 282.798,15.3833 283.491,15.5803C 284.184,15.7772 284.785,16.0759 285.296,16.4764C 285.806,16.877 286.205,17.376 286.493,17.9734C 286.78,18.5709 286.924,19.2701 286.924,20.0712C 286.924,20.6982 286.825,21.2728 286.626,21.7953C 286.428,22.3177 286.146,22.7832 285.78,23.1918C 285.415,23.6003 284.975,23.9486 284.46,24.2367C 283.945,24.5247 283.366,24.7491 282.723,24.9098L 282.723,24.958C 283.043,25.0919 283.322,25.2447 283.559,25.4162C 283.796,25.5876 284.021,25.7912 284.234,26.027C 284.448,26.2628 284.66,26.5293 284.871,26.8267C 285.081,27.1241 285.315,27.4697 285.573,27.8636L 289.026,33.2889 Z M 277.726,17.0853L 277.726,23.7725L 280.723,23.7725C 281.274,23.7725 281.783,23.6908 282.253,23.5273C 282.722,23.3639 283.128,23.1302 283.468,22.8261C 283.809,22.522 284.076,22.1496 284.269,21.7089C 284.462,21.2681 284.559,20.7732 284.559,20.2239C 284.559,19.238 284.232,18.4684 283.579,17.9152C 282.926,17.3619 281.983,17.0853 280.748,17.0853L 277.726,17.0853 Z "/>
	</g>
	<g>
		<path fill="#FFFFFF" fill-opacity="1" stroke-linejoin="round" d="M 247.74,123.745C 245.139,123.745 243.057,122.907 241.492,121.233C 239.928,119.558 239.145,117.38 239.145,114.698C 239.145,111.816 239.943,109.516 241.537,107.8C 243.132,106.084 245.302,105.226 248.048,105.226C 250.58,105.226 252.62,106.06 254.168,107.726C 255.716,109.392 256.49,111.571 256.49,114.26C 256.49,117.183 255.697,119.495 254.111,121.195C 252.524,122.895 250.401,123.745 247.74,123.745 Z M 247.892,107.027C 246,107.027 244.464,107.714 243.282,109.088C 242.101,110.463 241.51,112.268 241.51,114.506C 241.51,116.74 242.086,118.538 243.237,119.901C 244.388,121.263 245.89,121.944 247.744,121.944C 249.72,121.944 251.278,121.295 252.417,119.995C 253.555,118.696 254.125,116.878 254.125,114.542C 254.125,112.147 253.572,110.295 252.466,108.988C 251.36,107.68 249.835,107.027 247.892,107.027 Z "/>
		<path fill="#FFFFFF" fill-opacity="1" stroke-linejoin="round" d="M 259.118,122.631L 259.118,120.144C 259.411,120.423 259.761,120.674 260.169,120.897C 260.577,121.121 261.007,121.309 261.459,121.462C 261.91,121.615 262.364,121.733 262.82,121.818C 263.276,121.902 263.697,121.944 264.083,121.944C 265.416,121.944 266.411,121.697 267.068,121.203C 267.725,120.709 268.053,119.998 268.053,119.071C 268.053,118.589 267.943,118.168 267.723,117.809C 267.502,117.45 267.198,117.123 266.811,116.828C 266.424,116.534 265.965,116.25 265.436,115.978C 264.906,115.707 264.334,115.422 263.721,115.124C 263.075,114.806 262.472,114.484 261.912,114.16C 261.353,113.836 260.865,113.478 260.451,113.087C 260.036,112.696 259.71,112.252 259.473,111.757C 259.236,111.261 259.118,110.68 259.118,110.013C 259.118,109.195 259.305,108.485 259.679,107.881C 260.052,107.277 260.543,106.779 261.151,106.388C 261.758,105.997 262.451,105.705 263.228,105.514C 264.006,105.322 264.798,105.226 265.606,105.226C 267.446,105.226 268.787,105.463 269.63,105.938L 269.63,108.313C 268.538,107.455 267.135,107.027 265.421,107.027C 264.948,107.027 264.474,107.076 264,107.175C 263.527,107.275 263.105,107.437 262.736,107.662C 262.366,107.887 262.065,108.176 261.832,108.53C 261.6,108.883 261.483,109.315 261.483,109.824C 261.483,110.282 261.572,110.678 261.748,111.011C 261.925,111.345 262.185,111.649 262.53,111.924C 262.875,112.198 263.296,112.465 263.791,112.723C 264.286,112.982 264.857,113.265 265.503,113.573C 266.168,113.889 266.798,114.222 267.392,114.572C 267.986,114.922 268.508,115.309 268.957,115.735C 269.406,116.161 269.761,116.632 270.024,117.148C 270.287,117.664 270.418,118.255 270.418,118.922C 270.418,119.806 270.238,120.554 269.879,121.167C 269.519,121.779 269.033,122.277 268.423,122.66C 267.812,123.043 267.108,123.319 266.31,123.49C 265.512,123.66 264.671,123.745 263.787,123.745C 263.491,123.745 263.127,123.72 262.695,123.67C 262.262,123.621 261.82,123.548 261.368,123.453C 260.917,123.358 260.49,123.24 260.087,123.1C 259.685,122.959 259.362,122.803 259.118,122.631 Z "/>
		<path fill="#FFFFFF" fill-opacity="1" stroke-linejoin="round" d="M 287.763,122.31C 285.913,123.266 283.857,123.745 281.596,123.745C 278.968,123.745 276.842,122.92 275.219,121.271C 273.595,119.622 272.784,117.439 272.784,114.723C 272.784,111.95 273.692,109.674 275.508,107.895C 277.324,106.116 279.626,105.226 282.413,105.226C 284.433,105.226 286.129,105.525 287.5,106.122L 287.5,108.313C 286.009,107.455 284.243,107.027 282.203,107.027C 280.139,107.027 278.448,107.727 277.128,109.126C 275.809,110.526 275.149,112.339 275.149,114.566C 275.149,116.862 275.759,118.666 276.978,119.977C 278.198,121.289 279.852,121.944 281.941,121.944C 283.372,121.944 284.612,121.664 285.661,121.104L 285.661,116.029L 281.719,116.029L 281.719,114.228L 287.763,114.228L 287.763,122.31 Z "/>
		<path fill="#FFFFFF" fill-opacity="1" stroke-linejoin="round" d="M 295.91,105.483L 295.91,107.284L 294.07,107.284L 294.07,121.687L 295.91,121.687L 295.91,123.487L 290.128,123.487L 290.128,121.687L 291.968,121.687L 291.968,107.284L 290.128,107.284L 290.128,105.483L 295.91,105.483 Z "/>
	</g>
	<path fill="#42210B" fill-opacity="1" stroke-linejoin="round" d="M 204.547,273.729C 204.547,281.891 197.933,288.506 189.774,288.506L 112.009,288.506C 103.85,288.506 97.236,281.891 97.236,273.729L 97.236,161.72C 97.236,153.559 103.85,146.943 112.009,146.943L 189.774,146.943C 197.933,146.943 204.547,153.559 204.547,161.72L 204.547,273.729 Z "/>
	<rect x="33.0606" y="245.816" fill="#8B6239" fill-opacity="1" stroke-linejoin="round" width="235.772" height="54.1844"/>
	<rect x="141.003" y="162.641" fill="#E5E5E5" fill-opacity="1" stroke-linejoin="round" width="19.776" height="12.2623"/>
	<line fill="none" stroke-width="2.93067" stroke-linejoin="miter" stroke="#B2B2B2" stroke-opacity="1" x1="150.465" y1="167.32" x2="150.465" y2="172.835"/>
	<path fill="#FF7257" fill-opacity="1" stroke-width="2.93067" stroke-linejoin="miter" d="M 221.678,221.597C 213.198,204.63 195.142,167.139 191.722,164.266C 188.303,161.392 170.259,158.519 159.926,158.519C 159.926,158.519 161.868,171.244 150.465,171.244C 139.061,171.244 141.003,158.519 141.003,158.519C 130.671,158.519 112.627,161.392 109.207,164.266C 105.787,167.139 87.7314,204.63 79.251,221.597C 70.7706,238.563 81.5759,239.795 81.5759,239.795L 111.258,239.795L 111.258,225.565C 106.882,224.06 97.4429,222.281 97.4429,222.281C 100.315,215.303 117.003,183.422 117.003,183.422L 118.781,238.29L 150.465,238.29L 182.148,238.29L 183.926,183.422C 183.926,183.422 200.614,215.303 203.486,222.281C 203.486,222.281 194.048,224.06 189.67,225.565L 189.67,239.795L 219.353,239.795C 219.353,239.795 230.158,238.563 221.678,221.597 Z "/>
	<path fill="#FFDAA2" fill-opacity="1" stroke-width="2.93067" stroke-linejoin="miter" d="M 159.926,162.487C 159.926,162.487 158.588,167.32 150.465,167.32C 142.341,167.32 141.003,162.487 141.003,162.487L 141.003,139.542L 159.926,139.542L 159.926,162.487 Z "/>
	<path fill="#FFDAA2" fill-opacity="1" stroke-width="2.93067" stroke-linejoin="miter" d="M 150.465,99.5483C 132.348,92.4794 124.255,99.5483 124.255,99.5483C 124.255,99.5483 125.661,124.451 126.311,129.494C 127.852,141.447 143.398,149.416 150.465,149.416C 157.531,149.416 173.077,141.447 174.619,129.494C 175.268,124.451 176.674,99.5483 176.674,99.5483C 176.674,99.5483 168.581,92.4794 150.465,99.5483 Z "/>
	<path fill="#F7D197" fill-opacity="1" stroke-width="2.93067" stroke-linejoin="miter" d="M 125.092,113.457C 125.092,113.457 120.487,108.896 118.859,111.63C 115.261,117.671 121.556,119.931 121.975,125.638C 122.275,129.722 125.024,129.69 126.117,127.665C 127.21,125.638 126.749,114.828 125.092,113.457 Z "/>
	<path fill="#F7D197" fill-opacity="1" stroke-width="2.93067" stroke-linejoin="miter" d="M 175.838,113.457C 175.838,113.457 180.442,108.896 182.07,111.63C 185.668,117.671 179.373,119.931 178.954,125.638C 178.654,129.722 175.906,129.69 174.812,127.665C 173.719,125.638 174.18,114.828 175.838,113.457 Z "/>
	<path fill="#E8B23C" fill-opacity="1" stroke-width="2.93067" stroke-linejoin="miter" d="M 150.465,140.433C 145.045,140.433 142.24,138.894 142.24,136.636C 142.24,134.379 145.558,135.713 150.465,135.713C 155.371,135.713 158.689,134.379 158.689,136.636C 158.689,138.894 155.884,140.433 150.465,140.433 Z M 175.719,121.229L 174.693,121.229C 174.693,121.229 175.991,131.799 150.465,131.799C 124.938,131.799 126.236,121.229 126.236,121.229L 125.21,121.229C 125.21,121.229 123.757,133.182 128.596,140.008C 135.264,149.416 150.465,149.416 150.465,149.416C 150.465,149.416 165.665,149.416 172.333,140.008C 177.172,133.182 175.719,121.229 175.719,121.229 Z "/>
	<path fill="#E8B23C" fill-opacity="1" stroke-width="2.93067" stroke-linejoin="miter" d="M 175.719,121.229C 175.719,121.229 174.645,113.673 178.293,111.55C 178.293,111.55 184.711,90.1345 179.171,84.4902C 173.632,78.846 165.733,75.2543 159.064,74.5357C 152.396,73.8177 145.01,72.4834 141.522,68.6863C 141.522,68.6863 143.266,73.5095 145.625,73.8177C 145.625,73.8177 130.135,76.5883 120.183,73.2017C 120.183,73.2017 122.953,80.6931 129.211,82.0275C 129.211,82.0275 116.08,85.1058 108.283,82.5403C 108.283,82.5403 114.477,95.2109 124.255,99.5481C 124.255,99.5481 131.673,96.1889 135.264,97.6255C 135.264,97.6255 135.982,99.6781 132.802,101.012C 132.802,101.012 141.522,100.704 145.317,98.8571C 145.317,98.8571 145.625,100.294 145.42,101.628C 145.42,101.628 155.365,99.4279 160.497,96.7824C 160.497,96.7824 164.809,99.9859 163.373,101.32C 163.373,101.32 173.735,101.731 175.923,99.8832C 175.923,99.8832 174.728,118.458 175.719,121.229 Z "/>
	<path fill="#E8B23C" fill-opacity="1" stroke-width="2.93067" stroke-linejoin="miter" d="M 125.21,121.229C 125.21,121.229 125.585,112.777 121.038,110.846C 121.038,110.846 118.644,97.831 119.876,94.9577L 125.006,99.2306C 125.006,99.2306 126.408,117.637 125.709,121.229L 125.21,121.229 Z "/>
	<path fill="#F1F1F1" fill-opacity="1" stroke-width="2.93067" stroke-linejoin="miter" d="M 150.465,167.32C 150.465,167.32 142.548,167.344 140.086,172.835C 140.086,172.835 137.458,162.777 141.003,158.519C 141.003,158.519 141.967,166.63 150.465,167.32 Z "/>
	<path fill="#F1F1F1" fill-opacity="1" stroke-width="2.93067" stroke-linejoin="miter" d="M 150.465,167.32C 150.465,167.32 158.381,167.344 160.843,172.835C 160.843,172.835 163.471,162.777 159.926,158.519C 159.926,158.519 158.962,166.63 150.465,167.32 Z "/>
	<path fill="#4D4D4D" fill-opacity="1" stroke-width="2.93067" stroke-linejoin="miter" d="M 56.5328,221.114C 56.5328,221.568 56.1657,221.935 55.712,221.935L 53.7534,221.935C 53.2997,221.935 52.9322,221.568 52.9322,221.114L 52.9322,219.155C 52.9322,218.702 53.2997,218.334 53.7534,218.334L 55.712,218.334C 56.1657,218.334 56.5328,218.702 56.5328,219.155L 56.5328,221.114 Z "/>
	<path fill="none" stroke-width="8.79067" stroke-linejoin="miter" stroke="#4D4D4D" stroke-opacity="1" d="M 58.5308,165.313C 58.5308,165.313 21.5968,166.318 41.4987,221.509"/>
	<path fill="#1A1A1A" fill-opacity="1" stroke-width="8.79067" stroke-linejoin="miter" d="M 64.0457,222.381L 64.0457,221.886C 64.0457,221.195 63.6786,220.636 63.2249,220.636L 33.4072,220.636C 32.9535,220.636 32.5864,221.195 32.5864,221.886L 32.5864,222.381L 64.0457,222.381 Z "/>
	<path fill="#1A1A1A" fill-opacity="1" stroke-width="8.79067" stroke-linejoin="miter" d="M 61.3006,165.313C 61.3006,166.844 60.0609,168.084 58.531,168.084C 57.0007,168.084 55.7609,166.844 55.7609,165.313C 55.7609,163.783 57.0007,162.542 58.531,162.542C 60.0609,162.542 61.3006,163.783 61.3006,165.313 Z "/>
	<path fill="#FBED21" fill-opacity="1" stroke-width="8.79067" stroke-linejoin="miter" d="M 75.6469,171.266C 78.2911,173.91 78.2911,178.2 75.6469,180.845C 73.0019,183.489 68.7158,183.489 66.0716,180.845C 63.4278,178.2 63.4267,173.911 66.0709,171.266C 68.7158,168.621 73.0027,168.621 75.6469,171.266 Z "/>
	<path fill="#1A1A1A" fill-opacity="1" stroke-width="8.79067" stroke-linejoin="miter" d="M 59.47,164.662C 52.3395,171.795 52.3395,183.362 59.47,190.495L 85.2951,164.662C 78.1635,157.529 66.6016,157.529 59.47,164.662 Z "/>
	<path fill="#FBED21" fill-opacity="0.203922" stroke-width="8.79067" stroke-linejoin="miter" d="M 59.47,190.495L 67.2148,239.795L 199.348,239.795L 85.2951,164.662L 59.47,190.495 Z "/>
	<path fill="#CBCBCB" fill-opacity="1" stroke-width="8.79067" stroke-linejoin="miter" d="M 194.595,194.111C 193.774,192.743 191.039,192.468 191.039,192.468L 150.464,192.468L 109.89,192.468C 109.89,192.468 107.155,192.743 106.334,194.111C 105.514,195.479 107.155,238.991 107.155,238.991L 150.464,238.991L 193.774,238.991C 193.774,238.991 195.415,195.479 194.595,194.111 Z "/>
	<path fill="#E5E5E5" fill-opacity="1" stroke-width="8.79067" stroke-linejoin="miter" d="M 194.595,194.916C 193.774,193.547 191.039,193.273 191.039,193.273L 150.464,193.273L 109.89,193.273C 109.89,193.273 107.155,193.547 106.334,194.916C 105.514,196.283 107.155,239.795 107.155,239.795L 150.464,239.795L 193.774,239.795C 193.774,239.795 195.415,196.283 194.595,194.916 Z "/>
	<path fill="none" stroke-width="2.93067" stroke-linejoin="miter" stroke="#CBCBCB" stroke-opacity="1" d="M 154.065,216.534C 154.065,218.523 152.453,220.136 150.464,220.136C 148.476,220.136 146.864,218.523 146.864,216.534C 146.864,214.545 148.476,212.933 150.464,212.933C 152.453,212.933 154.065,214.545 154.065,216.534 Z "/>
	<path fill="none" stroke-width="2.93067" stroke-linejoin="miter" stroke="#CBCBCB" stroke-opacity="1" d="M 154.065,212.933C 154.065,214.922 152.453,216.534 150.464,216.534C 148.476,216.534 146.864,214.922 146.864,212.933C 146.864,210.944 148.476,209.332 150.464,209.332C 152.453,209.332 154.065,210.944 154.065,212.933 Z "/>
	<path fill="none" stroke-width="2.93067" stroke-linejoin="miter" stroke="#CBCBCB" stroke-opacity="1" d="M 145.547,215.215C 147.268,214.221 149.471,214.812 150.465,216.533C 151.458,218.256 150.868,220.459 149.147,221.453C 147.425,222.448 145.223,221.857 144.229,220.135C 143.234,218.413 143.824,216.209 145.547,215.215 Z "/>
	<path fill="none" stroke-width="2.93067" stroke-linejoin="miter" stroke="#CBCBCB" stroke-opacity="1" d="M 151.781,221.453C 150.061,220.459 149.469,218.255 150.464,216.533C 151.458,214.812 153.66,214.221 155.382,215.215C 157.104,216.211 157.694,218.413 156.699,220.135C 155.706,221.858 153.504,222.449 151.781,221.453 Z "/>
	<path fill="#F1F1F1" fill-opacity="1" stroke-width="2.93067" stroke-linejoin="miter" d="M 69.7079,230.153L 29.6073,230.153L 29.6073,226.229L 69.7079,226.229C 69.7079,226.229 69.4637,226.374 69.4637,228.191C 69.4637,230.009 69.7079,230.153 69.7079,230.153 Z "/>
	<path fill="#F1F1F1" fill-opacity="1" stroke-width="2.93067" stroke-linejoin="miter" d="M 73.9654,238.671L 25.3445,238.671L 25.3445,232.655L 73.9654,232.655C 73.9654,232.655 73.6689,232.877 73.6689,235.663C 73.6689,238.449 73.9654,238.671 73.9654,238.671 Z "/>
	<path fill="#F1F1F1" fill-opacity="1" stroke-width="2.93067" stroke-linejoin="miter" d="M 75.5556,224.639L 27.134,224.639L 27.134,222.895L 75.5556,222.895C 75.5556,222.895 75.2606,222.958 75.2606,223.767C 75.2606,224.575 75.5556,224.639 75.5556,224.639 Z "/>
	<path fill="#29AAE1" fill-opacity="1" stroke-width="2.93067" stroke-linejoin="miter" d="M 76.0026,223.257L 76.0026,222.381L 27.527,222.381L 26.7973,222.381L 26.7973,223.257L 26.7973,224.277L 26.7973,225.152L 27.527,225.152L 76.0026,225.152L 76.0026,224.277L 27.527,224.277L 27.527,223.257L 76.0026,223.257 Z "/>
	<path fill="#C0272D" fill-opacity="1" stroke-width="2.93067" stroke-linejoin="miter" d="M 70.3234,226.921L 70.3234,225.152L 28.7243,225.152L 28.7243,225.153L 28.7243,226.921L 28.7243,229.821L 28.7243,231.59L 30.4906,231.59L 70.3234,231.59L 70.3234,229.821L 30.4906,229.821L 30.4906,226.921L 70.3234,226.921 Z "/>
	<path fill="#8BC53F" fill-opacity="1" stroke-width="2.93067" stroke-linejoin="miter" d="M 74.94,233.358L 74.94,231.59L 24.1077,231.59L 24.1077,233.358L 24.1077,238.027L 24.1077,239.795L 25.8739,239.795L 74.94,239.795L 74.94,238.027L 25.8739,238.027L 25.8739,233.358L 74.94,233.358 Z "/>
	<path fill="none" stroke-width="7.16667" stroke-linejoin="miter" stroke="#E5E5E5" stroke-opacity="1" d="M 240.808,224.393C 240.808,224.393 244.649,221.703 245.673,224.393C 246.698,227.082 245.033,231.051 243.241,231.819C 241.448,232.589 237.864,230.923 237.864,230.923"/>
	<path fill="#B2B2B2" fill-opacity="1" stroke-width="7.16667" stroke-linejoin="miter" d="M 217.138,238.223C 217.205,239.101 217.929,239.795 218.825,239.795L 242.437,239.795C 243.331,239.795 244.057,239.101 244.123,238.223L 217.138,238.223 Z "/>
	<path fill="#F1F1F1" fill-opacity="1" stroke-width="7.16667" stroke-linejoin="miter" d="M 219.814,221.448L 219.814,227.274C 219.814,233.25 224.656,238.095 230.631,238.095C 236.605,238.095 241.448,233.25 241.448,227.274L 241.448,221.448L 219.814,221.448 Z "/>
	<rect x="215.589" y="237.326" fill="#E5E5E5" fill-opacity="1" stroke-width="7.16667" stroke-linejoin="miter" width="30.0843" height="1.53676"/>
	<path fill="#603813" fill-opacity="1" stroke-width="7.16667" stroke-linejoin="miter" d="M 284.426,243.047C 284.426,244.86 282.956,246.33 281.144,246.33L 20.7505,246.33C 18.9375,246.33 17.4677,244.86 17.4677,243.047C 17.4677,241.233 18.9375,239.763 20.7505,239.763L 281.144,239.763C 282.956,239.763 284.426,241.233 284.426,243.047 Z "/>
	<path fill="#F1F1F1" fill-opacity="1" stroke-linejoin="round" d="M 148.45,290.403C 148.442,290.386 148.433,290.369 148.426,290.352C 148.433,290.37 148.442,290.386 148.45,290.403 Z "/>
	<path fill="#F1F1F1" fill-opacity="1" stroke-linejoin="round" d="M 148.25,289.91C 148.297,290.059 148.354,290.204 148.421,290.342C 148.353,290.201 148.297,290.056 148.251,289.91L 148.25,289.91 Z "/>
	<path fill="none" stroke-width="6.66667" stroke-linejoin="miter" stroke="#E5E5E5" stroke-opacity="1" d="M 145.507,114.127C 145.507,114.127 146.14,111.795 150.465,111.795"/>
	<path fill="none" stroke-width="6.66667" stroke-linejoin="miter" stroke="#E5E5E5" stroke-opacity="1" d="M 155.422,114.127C 155.422,114.127 154.789,111.795 150.465,111.795"/>
	<path fill="none" stroke-width="6.66667" stroke-linejoin="miter" stroke="#CBCBCB" stroke-opacity="1" d="M 125.904,110.052C 125.904,110.052 124.649,120.423 129.166,123.238C 133.684,126.054 144.496,123.238 145.236,119.238C 145.977,115.238 145.236,109.608 145.236,109.608"/>
	<path fill="none" stroke-width="6.66667" stroke-linejoin="miter" stroke="#CBCBCB" stroke-opacity="1" d="M 175.025,110.052C 175.025,110.052 176.28,120.423 171.763,123.238C 167.246,126.054 156.434,123.238 155.693,119.238C 154.953,115.238 155.693,109.608 155.693,109.608"/>
	<path fill="#754C24" fill-opacity="1" stroke-width="6.66667" stroke-linejoin="miter" d="M 147.088,109.817C 147.088,110.643 146.419,111.312 145.594,111.312L 125.624,111.312C 124.799,111.312 124.13,110.643 124.13,109.817L 124.13,109.398C 124.13,108.573 124.799,107.904 125.624,107.904L 145.594,107.904C 146.419,107.904 147.088,108.573 147.088,109.398L 147.088,109.817 Z "/>
	<path fill="#754C24" fill-opacity="1" stroke-width="6.66667" stroke-linejoin="miter" d="M 153.842,110.889C 153.842,111.714 154.511,112.383 155.335,112.383L 175.305,112.383C 176.13,112.383 176.799,111.714 176.799,110.889L 176.799,110.47C 176.799,109.645 176.13,108.976 175.305,108.976L 155.335,108.976C 154.511,108.976 153.842,109.645 153.842,110.47L 153.842,110.889 Z "/>
</svg>
