<?xml version="1.0" encoding="utf-8"?>
<!DOCTYPE svg PUBLIC "-//W3C//DTD SVG 1.1//EN" "http://www.w3.org/Graphics/SVG/1.1/DTD/svg11.dtd">
<svg xmlns="http://www.w3.org/2000/svg" xmlns:xlink="http://www.w3.org/1999/xlink" version="1.1" baseProfile="full" width="300" height="300" viewBox="0 0 300.00 300.00" enable-background="new 0 0 300.00 300.00" xml:space="preserve">
	<rect x="-1.73138" y="0.540619" fill="#34A3B3" fill-opacity="1" stroke-linejoin="round" width="301.85" height="299.459"/>
	<path fill="#666666" fill-opacity="0.301961" stroke-linejoin="round" d="M 141.811,91.2245C 141.811,78.5611 152.159,68.296 164.923,68.296C 177.687,68.296 188.034,78.5611 188.034,91.2245C 188.034,103.888 177.687,114.152 164.923,114.152C 152.159,114.152 141.811,103.888 141.811,91.2245 Z M 119.764,104.582C 120.696,107.689 121.937,110.664 123.465,113.463L 112.405,124.436L 131.445,143.326L 142.505,132.353C 145.326,133.87 148.326,135.101 151.459,136.026L 151.459,151.55L 178.385,151.55L 178.385,136.027C 181.517,135.102 184.516,133.871 187.338,132.354L 198.4,143.327L 217.44,124.438L 206.379,113.466C 207.909,110.666 209.15,107.689 210.082,104.582L 225.73,104.582L 225.73,77.8682L 210.083,77.8682C 209.151,74.7606 207.909,71.7843 206.381,68.984L 217.44,58.0115L 198.4,39.1227L 187.339,50.0953C 184.517,48.5778 181.517,47.347 178.385,46.422L 178.385,30.8984L 151.459,30.8984L 151.459,46.4231C 148.326,47.3485 145.326,48.5789 142.504,50.096L 131.445,39.1242L 112.405,58.0137L 123.465,68.9866C 121.936,71.7855 120.696,74.761 119.763,77.8682L 104.116,77.8682L 104.116,104.582L 119.764,104.582 Z "/>
	<path fill="#666666" fill-opacity="0.301961" stroke-linejoin="round" d="M 93.3521,36.9884C 92.4402,33.3616 94.6648,29.6876 98.3206,28.7829C 101.976,27.8785 105.68,30.0855 106.592,33.7123C 107.503,37.3391 105.279,41.0132 101.622,41.9179C 97.9671,42.8222 94.2641,40.6152 93.3521,36.9884 Z M 87.9988,42.3772C 88.489,43.2014 89.0591,43.9647 89.6986,44.6587L 87.3204,48.5853L 94.1351,52.6464L 96.5121,48.7194C 97.4301,48.954 98.3776,49.0937 99.3416,49.1367L 100.459,53.5837L 108.171,51.675L 107.054,47.2288C 107.884,46.7418 108.654,46.1766 109.354,45.5425L 113.312,47.9015L 117.405,41.1415L 113.448,38.7826C 113.684,37.8722 113.825,36.9319 113.868,35.9751L 118.351,34.8664L 116.426,27.2155L 111.945,28.3243C 111.454,27.5 110.884,26.7361 110.244,26.042L 112.622,22.1154L 105.808,18.0544L 103.43,21.981C 102.513,21.7467 101.565,21.6067 100.601,21.5636L 99.4835,17.1178L 91.7708,19.0261L 92.8884,23.4727C 92.058,23.9597 91.2875,24.5249 90.5887,25.159L 86.6311,22.8004L 82.5376,29.5603L 86.496,31.9189C 86.2594,32.8297 86.1179,33.7692 86.0749,34.7256L 81.5932,35.8351L 83.5167,43.4859L 87.9988,42.3772 Z "/>
	<path fill="#666666" fill-opacity="0.301961" stroke-linejoin="round" d="M 216.762,36.9884C 215.851,33.3616 218.075,29.6876 221.731,28.7829C 225.386,27.8785 229.09,30.0855 230.002,33.7123C 230.914,37.3391 228.689,41.0132 225.032,41.9179C 221.377,42.8222 217.674,40.6152 216.762,36.9884 Z M 211.409,42.3772C 211.899,43.2014 212.469,43.9647 213.109,44.6587L 210.731,48.5853L 217.545,52.6464L 219.922,48.7194C 220.84,48.954 221.788,49.0937 222.752,49.1367L 223.87,53.5837L 231.581,51.675L 230.463,47.2288C 231.295,46.7418 232.065,46.1766 232.764,45.5425L 236.723,47.9015L 240.816,41.1415L 236.858,38.7826C 237.094,37.8722 237.235,36.9319 237.278,35.9751L 241.761,34.8664L 239.836,27.2155L 235.355,28.3243C 234.864,27.5 234.295,26.7361 233.655,26.042L 236.032,22.1154L 229.219,18.0544L 226.841,21.981C 225.923,21.7467 224.975,21.6067 224.011,21.5636L 222.894,17.1178L 215.181,19.0261L 216.299,23.4727C 215.468,23.9597 214.697,24.5249 213.999,25.159L 210.041,22.8004L 205.948,29.5603L 209.906,31.9189C 209.67,32.8297 209.528,33.7692 209.485,34.7256L 205.004,35.8351L 206.927,43.4859L 211.409,42.3772 Z "/>
	<path fill="#666666" fill-opacity="0.301961" stroke-linejoin="round" d="M 45.0808,15.0852C 43.7338,9.72635 47.0206,4.29788 52.4226,2.96078C 57.8242,1.62485 63.296,4.88596 64.6433,10.2444C 65.9903,15.6036 62.7032,21.032 57.3005,22.3691C 51.9,23.7051 46.4282,20.444 45.0808,15.0852 Z M 37.1708,23.047C 37.8956,24.2651 38.7378,25.3933 39.683,26.4186L 36.1687,32.2206L 46.2373,38.221L 49.7501,32.4194C 51.1061,32.7656 52.5063,32.9719 53.9303,33.0351L 55.5822,39.606L 66.9774,36.7863L 65.3255,30.2157C 66.5533,29.4967 67.6909,28.6612 68.7243,27.7246L 74.5735,31.2103L 80.621,21.2218L 74.7734,17.7361C 75.1221,16.3912 75.3307,15.0017 75.3945,13.5882L 82.0182,11.9495L 79.1748,0.644867L 72.5533,2.28366C 71.8281,1.06561 70.986,-0.063385 70.0397,-1.08862L 73.5532,-6.89066L 63.4857,-12.8911L 59.9722,-7.08905C 58.6169,-7.4353 57.2163,-7.64194 55.7912,-7.70557L 54.1405,-14.2753L 42.7445,-11.4552L 44.3964,-4.8858C 43.169,-4.16519 42.0306,-3.33047 40.9975,-2.39316L 35.1499,-5.87888L 29.102,4.10999L 34.9503,7.59531C 34.601,8.93988 34.3919,10.329 34.3278,11.7424L 27.7063,13.3813L 30.5486,24.6858L 37.1708,23.047 Z "/>
	<path fill="#666666" fill-opacity="0.301961" stroke-linejoin="round" d="M 301.325,29.0629C 299.978,23.7041 303.265,18.2756 308.667,16.9386C 314.068,15.6026 319.54,18.8637 320.888,24.2225C 322.235,29.5814 318.948,35.0098 313.545,36.3465C 308.143,37.6829 302.672,34.4218 301.325,29.0629 Z M 293.415,37.0248C 294.14,38.2429 294.982,39.3711 295.927,40.3963L 292.413,46.1987L 302.482,52.1984L 305.995,46.3967C 307.35,46.7434 308.751,46.9496 310.175,47.0133L 311.826,53.5838L 323.222,50.764L 321.569,44.1935C 322.797,43.4744 323.936,42.6393 324.969,41.7024L 330.818,45.188L 336.865,35.1996L 331.018,31.7139C 331.366,30.3689 331.575,28.9795 331.639,27.566L 338.262,25.9272L 335.418,14.6226L 328.797,16.261C 328.072,15.043 327.23,13.9144 326.284,12.8891L 329.797,7.08707L 319.73,1.08667L 316.216,6.8887C 314.861,6.54245 313.46,6.33582 312.035,6.27219L 310.384,-0.297577L 298.988,2.52258L 300.641,9.09195C 299.414,9.81253 298.274,10.6473 297.242,11.5846L 291.394,8.09888L 285.346,18.0877L 291.194,21.5731C 290.845,22.9176 290.637,24.3067 290.572,25.7198L 283.951,27.3586L 286.792,38.6636L 293.415,37.0248 Z "/>
	<path fill="#666666" fill-opacity="0.301961" stroke-linejoin="round" d="M 59.4369,93.9526C 57.9182,87.911 61.6234,81.7912 67.7136,80.2838C 73.8035,78.7771 79.9725,82.4537 81.4912,88.4949C 83.0099,94.5365 79.3043,100.657 73.2134,102.164C 67.1247,103.67 60.956,99.9942 59.4369,93.9526 Z M 50.5188,102.929C 51.3364,104.302 52.2861,105.573 53.3516,106.729L 49.3898,113.271L 60.7409,120.035L 64.7012,113.495C 66.23,113.885 67.8087,114.117 69.4138,114.189L 71.2759,121.597L 84.1226,118.418L 82.2606,111.011C 83.6442,110.199 84.9274,109.258 86.0925,108.202L 92.6872,112.131L 99.5045,100.87L 92.9121,96.9408C 93.3052,95.4244 93.5407,93.8583 93.6124,92.2648L 101.079,90.4171L 97.8741,77.6725L 90.4086,79.5198C 89.591,78.1467 88.6421,76.874 87.5754,75.7181L 91.5368,69.1768L 80.1865,62.4128L 76.2254,68.953C 74.6973,68.5633 73.1183,68.3301 71.5113,68.2586L 69.6504,60.8519L 56.8029,64.031L 58.6649,71.4377C 57.2817,72.2496 55.9981,73.1907 54.8337,74.2474L 48.2409,70.3178L 41.4225,81.5789L 48.0157,85.5082C 47.6221,87.0246 47.3867,88.5904 47.3146,90.1835L 39.8491,92.0312L 43.0532,104.777L 50.5188,102.929 Z "/>
	<path fill="#666666" fill-opacity="0.301961" stroke-linejoin="round" d="M 253.001,84.0791C 251.07,76.3968 255.781,68.6146 263.525,66.6981C 271.269,64.7819 279.113,69.4576 281.044,77.1398C 282.975,84.8221 278.263,92.6036 270.519,94.5209C 262.776,96.4359 254.933,91.761 253.001,84.0791 Z M 241.661,95.4922C 242.7,97.2388 243.908,98.8559 245.263,100.325L 240.225,108.644L 254.659,117.245L 259.695,108.928C 261.639,109.425 263.646,109.72 265.687,109.812L 268.055,119.231L 284.39,115.188L 282.022,105.77C 283.782,104.738 285.414,103.541 286.895,102.198L 295.28,107.195L 303.95,92.8757L 295.566,87.8792C 296.067,85.9507 296.366,83.9589 296.458,81.9331L 305.952,79.5831L 301.876,63.3778L 292.383,65.7267C 291.344,63.9808 290.137,62.3626 288.78,60.8923L 293.818,52.5748L 279.385,43.9732L 274.348,52.29C 272.406,51.7944 270.397,51.4979 268.354,51.4073L 265.988,41.9889L 249.651,46.0316L 252.019,55.45C 250.26,56.482 248.628,57.6791 247.147,59.0222L 238.764,54.0257L 230.094,68.3451L 238.478,73.3412C 237.977,75.2693 237.678,77.2604 237.586,79.2858L 228.093,81.6359L 232.167,97.8426L 241.661,95.4922 Z "/>
	<path fill="none" stroke-width="6.868" stroke-linejoin="miter" stroke="#666666" stroke-opacity="0.301961" d="M 169.556,-8.63071C 168.696,-16.1703 174.159,-22.9756 181.759,-23.8298C 189.358,-24.6828 196.218,-19.2623 197.079,-11.723C 197.939,-4.18411 192.475,2.62109 184.875,3.47531C 177.276,4.3284 170.417,-1.09146 169.556,-8.63071 Z M 157.336,0.796265C 158.102,2.58591 159.044,4.27298 160.144,5.83768L 154.304,13.1111L 166.925,23.0847L 172.764,15.8116C 174.548,16.5265 176.418,17.0576 178.346,17.399L 179.4,26.643L 195.432,24.8421L 194.377,15.5985C 196.18,14.8383 197.882,13.904 199.459,12.814L 206.792,18.607L 216.844,6.08548L 209.513,0.292419C 210.233,-1.47702 210.769,-3.33176 211.114,-5.2457L 220.432,-6.29269L 218.615,-22.1966L 209.298,-21.15C 208.532,-22.9393 207.591,-24.6267 206.489,-26.1929L 212.329,-33.4656L 199.709,-43.4391L 193.869,-36.1671C 192.086,-36.8802 190.215,-37.4121 188.287,-37.7535L 187.232,-46.9967L 171.199,-45.1954L 172.254,-35.9523C 170.452,-35.1905 168.75,-34.2573 167.173,-33.1669L 159.842,-38.9596L 149.79,-26.4377L 157.121,-20.645C 156.401,-18.8759 155.864,-17.0216 155.52,-15.1084L 146.203,-14.061L 148.018,1.84436L 157.336,0.796265 Z "/>
	<path fill="none" stroke-width="4.12667" stroke-linejoin="miter" stroke="#666666" stroke-opacity="0.301961" d="M -16.1107,147.378C -16.6269,142.849 -13.3447,138.761 -8.77955,138.247C -4.21406,137.735 -0.0930549,140.992 0.424241,145.521C 0.940404,150.05 -2.34146,154.138 -6.90808,154.651C -11.4724,155.164 -15.5931,151.908 -16.1107,147.378 Z M -23.4521,153.042C -22.9918,154.117 -22.4258,155.13 -21.7648,156.071L -25.2745,160.441L -17.6917,166.432L -14.183,162.063C -13.1115,162.492 -11.9875,162.811 -10.8299,163.016L -10.196,168.57L -0.564696,167.488L -1.19896,161.935C -0.115694,161.478 0.906823,160.917 1.85463,160.261L 6.259,163.742L 12.299,156.219L 7.89503,152.739C 8.32705,151.676 8.64852,150.562 8.85567,149.412L 14.4542,148.783L 13.3615,139.228L 7.76637,139.857C 7.30529,138.783 6.7397,137.769 6.07789,136.827L 9.58615,132.458L 2.00443,126.467L -1.5042,130.835C -2.57464,130.407 -3.69865,130.087 -4.85851,129.882L -5.49051,124.329L -15.1233,125.412L -14.4898,130.964C -15.5708,131.422 -16.5944,131.983 -17.5415,132.638L -21.9462,129.158L -27.9855,136.68L -23.5815,140.161C -24.0143,141.224 -24.3365,142.337 -24.5433,143.487L -30.1407,144.116L -29.0503,153.671L -23.4521,153.042 Z "/>
	<path fill="none" stroke-width="3.16133" stroke-linejoin="miter" stroke="#666666" stroke-opacity="0.301961" d="M 20.1857,122.526C 19.7892,119.056 22.304,115.923 25.8024,115.53C 29.2993,115.137 32.4567,117.633 32.8532,121.103C 33.2483,124.573 30.7331,127.705 27.2358,128.098C 23.7389,128.491 20.5819,125.996 20.1857,122.526 Z M 14.5604,126.865C 14.9124,127.688 15.3474,128.465 15.8534,129.185L 13.1647,132.533L 18.9746,137.123L 21.6625,133.776C 22.4824,134.105 23.3442,134.349 24.2305,134.506L 24.7165,138.761L 32.0945,137.932L 31.6092,133.678C 32.4393,133.328 33.2223,132.898 33.9493,132.396L 37.3236,135.063L 41.9499,129.299L 38.5771,126.633C 38.9072,125.818 39.1544,124.964 39.3132,124.084L 43.6021,123.602L 42.766,116.282L 38.4782,116.763C 38.1247,115.94 37.6919,115.163 37.1848,114.442L 39.8724,111.095L 34.0629,106.505L 31.3749,109.851C 30.555,109.524 29.6932,109.278 28.8062,109.122L 28.321,104.867L 20.9415,105.696L 21.4271,109.951C 20.5977,110.301 19.8137,110.73 19.0885,111.233L 15.7138,108.566L 11.0876,114.33L 14.4615,116.996C 14.131,117.81 13.8831,118.664 13.7246,119.545L 9.43684,120.026L 10.2718,127.347L 14.5604,126.865 Z "/>
	<path fill="none" stroke-width="3.16133" stroke-linejoin="miter" stroke="#666666" stroke-opacity="0.301961" d="M 0.396697,0.41449C 0.000895935,-3.05588 2.51493,-6.1882 6.013,-6.58124C 9.51068,-6.97391 12.6677,-4.47867 13.0646,-1.0087C 13.46,2.4613 10.9456,5.59329 7.44716,5.98666C 3.94985,6.37936 0.792875,3.88449 0.396697,0.41449 Z M -5.22828,4.7529C -4.87549,5.57718 -4.44158,6.35391 -3.93523,7.0741L -6.62396,10.4217L -0.814477,15.0117L 1.8735,11.6648C 2.69378,11.9938 3.55518,12.2379 4.44186,12.3951L 4.92747,16.6497L 12.3066,15.821L 11.821,11.5664C 12.6507,11.2164 13.4336,10.7867 14.1599,10.2847L 17.535,12.951L 22.1616,7.1879L 18.7877,4.52158C 19.1189,3.70706 19.3661,2.85321 19.5246,1.97244L 23.8135,1.49069L 22.9766,-5.82962L 18.6888,-5.34787C 18.336,-6.17099 17.9029,-6.94772 17.3958,-7.6694L 20.0834,-11.0166L 14.275,-15.607L 11.587,-12.2594C 10.7668,-12.5876 9.90535,-12.8325 9.01754,-12.9901L 8.53231,-17.2442L 1.15283,-16.4151L 1.63881,-12.1609C 0.809477,-11.8102 0.0257986,-11.3808 -0.700151,-10.8781L -4.07446,-13.5448L -8.70069,-7.78171L -5.32676,-5.11502C -5.65842,-4.30124 -5.90593,-3.44778 -6.06403,-2.56699L -10.3522,-2.08487L -9.51644,5.23581L -5.22828,4.7529 Z "/>
	<path fill="#989898" fill-opacity="0.301961" stroke-width="3.16133" stroke-linejoin="miter" d="M 141.585,91.2245C 141.585,78.4372 152.034,68.0714 164.923,68.0714C 177.812,68.0714 188.261,78.4372 188.261,91.2245C 188.261,104.011 177.812,114.377 164.923,114.377C 152.034,114.377 141.585,104.011 141.585,91.2245 Z M 129.02,91.2245C 129.02,110.896 145.094,126.843 164.923,126.843C 184.752,126.843 200.826,110.896 200.826,91.2245C 200.826,71.5526 184.752,55.6057 164.923,55.6057C 145.094,55.6057 129.02,71.5526 129.02,91.2245 Z "/>
	<path fill="#666666" fill-opacity="0.301961" stroke-width="3.16133" stroke-linejoin="miter" d="M -12.4314,63.3987C -12.4314,54.9873 -5.55824,48.1694 2.9196,48.1694C 11.3974,48.1694 18.2709,54.9873 18.2709,63.3987C 18.2709,71.8094 11.3974,78.6281 2.9196,78.6281C -5.55824,78.6281 -12.4314,71.8094 -12.4314,63.3987 Z M -27.0756,72.2706C -26.4565,74.3346 -25.6324,76.3107 -24.6163,78.17L -31.963,85.4584L -19.3169,98.0043L -11.9703,90.7166C -10.0962,91.7242 -8.10435,92.5414 -6.02384,93.156L -6.02384,103.468L 11.8608,103.468L 11.8608,93.1572C 13.9413,92.5425 15.9339,91.725 17.808,90.7173L 25.155,98.0058L 37.8014,85.4595L 30.4547,78.1718C 31.4712,76.3118 32.2953,74.3346 32.9148,72.2706L 43.3087,72.2706L 43.3083,54.5276L 32.9156,54.5276C 32.2957,52.4632 31.4716,50.486 30.4559,48.6264L 37.8014,41.3387L 25.155,28.7924L 17.8087,36.0802C 15.9342,35.0729 13.9417,34.2553 11.8608,33.6407L 11.8608,23.33L -6.02384,23.33L -6.02384,33.6414C -8.10435,34.2561 -10.0969,35.0732 -11.971,36.0809L -19.3169,28.7939L -31.963,41.3398L -24.6171,48.6283C -25.6324,50.4875 -26.4565,52.4636 -27.076,54.5276L -37.4691,54.5276L -37.4691,72.2706L -27.0756,72.2706 Z "/>
	<path fill="#989898" fill-opacity="0.301961" stroke-width="3.16133" stroke-linejoin="miter" d="M -12.5815,63.3987C -12.5815,54.9057 -5.64121,48.0204 2.91964,48.0204C 11.4805,48.0204 18.4208,54.9057 18.4208,63.3987C 18.4208,71.8914 11.4805,78.7771 2.91964,78.7771C -5.64121,78.7771 -12.5815,71.8914 -12.5815,63.3987 Z M -20.9277,63.3987C -20.9277,76.4645 -10.2512,87.0572 2.91964,87.0572C 16.0905,87.0572 26.7669,76.4645 26.7669,63.3987C 26.7669,50.3326 16.0905,39.7403 2.91964,39.7403C -10.2512,39.7403 -20.9277,50.3326 -20.9277,63.3987 Z "/>
	<image x="0" y="0" width="372" height="450" transform="matrix(0.18,0.00,0.00,0.18,13.60,78.45)" xlink:href="java_files/image0.png"/>
	<image x="0" y="0" width="372" height="450" transform="matrix(0.18,0.00,0.00,0.18,13.44,78.45)" xlink:href="java_files/image1.png"/>
	<rect x="16.7419" y="80.6321" fill="#F1F1F1" fill-opacity="1" stroke-linejoin="round" width="60.6164" height="74.279"/>
	<rect x="22.9841" y="94.4148" fill="#666666" fill-opacity="1" stroke-linejoin="round" width="48.465" height="1.08926"/>
	<rect x="22.9841" y="96.2781" fill="#666666" fill-opacity="1" stroke-linejoin="round" width="48.465" height="1.08929"/>
	<rect x="22.9841" y="98.1415" fill="#666666" fill-opacity="1" stroke-linejoin="round" width="48.465" height="1.08928"/>
	<rect x="22.9841" y="100.005" fill="#666666" fill-opacity="1" stroke-linejoin="round" width="27.5159" height="1.08929"/>
	<rect x="22.9841" y="109.994" fill="#666666" fill-opacity="1" stroke-linejoin="round" width="48.465" height="1.08891"/>
	<rect x="22.9841" y="111.857" fill="#666666" fill-opacity="1" stroke-linejoin="round" width="48.465" height="1.08926"/>
	<rect x="22.9841" y="113.721" fill="#666666" fill-opacity="1" stroke-linejoin="round" width="48.465" height="1.08928"/>
	<rect x="22.9841" y="115.584" fill="#666666" fill-opacity="1" stroke-linejoin="round" width="27.5159" height="1.08928"/>
	<rect x="22.9841" y="101.868" fill="#666666" fill-opacity="1" stroke-linejoin="round" width="48.465" height="1.08929"/>
	<rect x="22.9841" y="103.732" fill="#666666" fill-opacity="1" stroke-linejoin="round" width="48.465" height="1.08929"/>
	<rect x="22.9841" y="105.595" fill="#666666" fill-opacity="1" stroke-linejoin="round" width="16.9908" height="1.08926"/>
	<rect x="22.9841" y="121.744" fill="#666666" fill-opacity="1" stroke-linejoin="round" width="48.465" height="1.08929"/>
	<rect x="22.9841" y="123.607" fill="#666666" fill-opacity="1" stroke-linejoin="round" width="48.465" height="1.08929"/>
	<rect x="22.9841" y="125.471" fill="#666666" fill-opacity="1" stroke-linejoin="round" width="16.9908" height="1.08929"/>
	<rect x="22.9841" y="132.259" fill="#666666" fill-opacity="1" stroke-linejoin="round" width="48.465" height="1.08929"/>
	<rect x="22.9841" y="134.122" fill="#666666" fill-opacity="1" stroke-linejoin="round" width="16.9908" height="1.08928"/>
	<path fill="#8EE5D9" fill-opacity="1" stroke-linejoin="round" d="M 71.4492,87.0983C 71.4492,87.5206 71.104,87.8631 70.6787,87.8631L 23.7546,87.8631C 23.329,87.8631 22.9841,87.5206 22.9841,87.0983L 22.9841,86.2385C 22.9841,85.8163 23.329,85.4741 23.7546,85.4741L 70.6787,85.4741C 71.104,85.4741 71.4492,85.8163 71.4492,86.2385L 71.4492,87.0983 Z "/>
	<path fill="#8EE5D9" fill-opacity="1" stroke-linejoin="round" d="M 71.4492,149.305C 71.4492,149.727 71.104,150.07 70.6787,150.07L 23.7546,150.07C 23.329,150.07 22.9841,149.727 22.9841,149.305L 22.9841,148.445C 22.9841,148.023 23.329,147.681 23.7546,147.681L 70.6787,147.681C 71.104,147.681 71.4492,148.023 71.4492,148.445L 71.4492,149.305 Z "/>
	<image x="0" y="0" width="372" height="450" transform="matrix(0.18,0.00,0.00,0.18,35.24,87.71)" xlink:href="java_files/image2.png"/>
	<image x="0" y="0" width="372" height="450" transform="matrix(0.18,0.00,0.00,0.18,35.24,87.71)" xlink:href="java_files/image3.png"/>
	<rect x="38.5471" y="89.8978" fill="#F1F1F1" fill-opacity="1" stroke-linejoin="round" width="60.6164" height="74.279"/>
	<rect x="38.5471" y="89.8981" fill="#666666" fill-opacity="1" stroke-linejoin="round" width="60.6164" height="7.23047"/>
	<path fill="#F1F1F1" fill-opacity="1" stroke-linejoin="round" d="M 97.0446,93.9751C 97.0446,94.3973 96.7125,94.7394 96.3035,94.7394L 51.3467,94.7394C 50.9377,94.7394 50.6057,94.3973 50.6057,93.9751L 50.6057,93.0834C 50.6057,92.6612 50.9377,92.3191 51.3467,92.3191L 96.3035,92.3191C 96.7125,92.3191 97.0446,92.6612 97.0446,93.0834L 97.0446,93.9751 Z "/>
	<path fill="#C0272D" fill-opacity="1" stroke-linejoin="round" d="M 39.5866,93.5293C 39.5866,94.1975 40.1329,94.7395 40.8064,94.7395C 41.4807,94.7395 42.027,94.1975 42.027,93.5293C 42.027,92.8607 41.4807,92.3191 40.8064,92.3191C 40.1329,92.3191 39.5866,92.8607 39.5866,93.5293 Z "/>
	<path fill="#FAAF3B" fill-opacity="1" stroke-linejoin="round" d="M 43.0835,93.5293C 43.0835,94.1975 43.6299,94.7395 44.3037,94.7395C 44.9776,94.7395 45.5236,94.1975 45.5236,93.5293C 45.5236,92.8607 44.9776,92.3191 44.3037,92.3191C 43.6299,92.3191 43.0835,92.8607 43.0835,93.5293 Z "/>
	<path fill="#8BC53F" fill-opacity="1" stroke-linejoin="round" d="M 46.5803,93.5293C 46.5803,94.1975 47.1266,94.7395 47.8001,94.7395C 48.4744,94.7395 49.0204,94.1975 49.0204,93.5293C 49.0204,92.8607 48.4744,92.3191 47.8001,92.3191C 47.1266,92.3191 46.5803,92.8607 46.5803,93.5293 Z "/>
	<path fill="none" stroke-width="4" stroke-linecap="round" stroke-linejoin="miter" stroke="#666666" stroke-opacity="1" d="M 51.6315,105.667L 44.3689,112.872L 51.8594,120.303"/>
	<path fill="none" stroke-width="4" stroke-linecap="round" stroke-linejoin="miter" stroke="#666666" stroke-opacity="1" d="M 86.5795,120.303L 93.842,113.098L 86.3516,105.667"/>
	<image x="0" y="0" width="372" height="450" transform="matrix(0.18,0.00,0.00,0.18,217.56,78.45)" xlink:href="java_files/image4.png"/>
	<image x="0" y="0" width="372" height="450" transform="matrix(0.18,0.00,0.00,0.18,217.56,78.45)" xlink:href="java_files/image5.png"/>
	<rect x="220.863" y="80.6321" fill="#F1F1F1" fill-opacity="1" stroke-width="8.16934" stroke-linecap="round" stroke-linejoin="miter" width="60.6164" height="74.279"/>
	<rect x="220.863" y="80.6325" fill="#666666" fill-opacity="1" stroke-width="8.16934" stroke-linecap="round" stroke-linejoin="miter" width="60.6164" height="7.23047"/>
	<path fill="#F1F1F1" fill-opacity="1" stroke-width="8.16934" stroke-linecap="round" stroke-linejoin="miter" d="M 279.36,84.7095C 279.36,85.1317 279.028,85.4739 278.618,85.4739L 233.662,85.4739C 233.253,85.4739 232.921,85.1317 232.921,84.7095L 232.921,83.8178C 232.921,83.3956 233.253,83.0535 233.662,83.0535L 278.618,83.0535C 279.028,83.0535 279.36,83.3956 279.36,83.8178L 279.36,84.7095 Z "/>
	<path fill="#C0272D" fill-opacity="1" stroke-width="8.16934" stroke-linecap="round" stroke-linejoin="miter" d="M 221.902,84.2637C 221.902,84.9318 222.448,85.4739 223.122,85.4739C 223.796,85.4739 224.342,84.9318 224.342,84.2637C 224.342,83.5952 223.796,83.0535 223.122,83.0535C 222.448,83.0535 221.902,83.5952 221.902,84.2637 Z "/>
	<path fill="#FAAF3B" fill-opacity="1" stroke-width="8.16934" stroke-linecap="round" stroke-linejoin="miter" d="M 225.399,84.2637C 225.399,84.9318 225.945,85.4739 226.619,85.4739C 227.293,85.4739 227.839,84.9318 227.839,84.2637C 227.839,83.5952 227.293,83.0535 226.619,83.0535C 225.945,83.0535 225.399,83.5952 225.399,84.2637 Z "/>
	<path fill="#8BC53F" fill-opacity="1" stroke-width="8.16934" stroke-linecap="round" stroke-linejoin="miter" d="M 228.895,84.2637C 228.895,84.9318 229.442,85.4739 230.116,85.4739C 230.79,85.4739 231.336,84.9318 231.336,84.2637C 231.336,83.5952 230.79,83.0535 230.116,83.0535C 229.442,83.0535 228.895,83.5952 228.895,84.2637 Z "/>
	<path fill="#000000" fill-opacity="1" stroke-width="8.16934" stroke-linecap="round" stroke-linejoin="miter" d="M 199.025,275.777C 199.025,283.303 192.877,289.402 185.291,289.402L 112.993,289.402C 105.407,289.402 99.2583,283.303 99.2583,275.777L 99.2583,172.501C 99.2583,164.976 105.407,158.876 112.993,158.876L 185.291,158.876C 192.877,158.876 199.025,164.976 199.025,172.501L 199.025,275.777 Z "/>
	<rect x="39.5949" y="250.04" fill="#666666" fill-opacity="1" stroke-width="8.16934" stroke-linecap="round" stroke-linejoin="miter" width="219.198" height="49.9599"/>
	<path fill="#E5E5E5" fill-opacity="1" stroke-width="8.16934" stroke-linecap="round" stroke-linejoin="miter" d="M 159.234,215.415L 149.571,245.648L 139.086,216.32L 139.949,173.351L 158.335,173.351L 159.234,215.415 Z "/>
	<path fill="#007788" fill-opacity="1" stroke-width="8.16934" stroke-linecap="round" stroke-linejoin="miter" d="M 214.952,227.71C 207.068,212.066 190.282,177.497 187.102,174.848C 183.923,172.199 167.147,169.549 157.541,169.549C 157.541,169.549 151.183,199.437 149.534,199.437L 139.949,169.549C 130.343,169.549 113.567,172.199 110.388,174.848C 107.208,177.497 90.422,212.066 82.5381,227.71C 74.6537,243.353 84.6993,244.489 84.6993,244.489L 112.295,244.489L 115.027,234.786C 110.958,233.399 99.4507,228.34 99.4507,228.34C 102.121,221.907 117.636,192.511 117.636,192.511L 119.289,244.489L 148.745,244.489L 178.202,244.489L 179.854,192.511C 179.854,192.511 195.369,221.907 198.04,228.34C 198.04,228.34 189.264,234.212 185.195,235.599L 185.195,244.489L 212.791,244.489C 212.791,244.489 222.836,243.353 214.952,227.71 Z "/>
	<path fill="#FFDAA2" fill-opacity="1" stroke-width="8.16934" stroke-linecap="round" stroke-linejoin="miter" d="M 157.541,173.209C 157.541,173.209 156.298,177.665 148.745,177.665C 141.192,177.665 139.949,173.209 139.949,173.209L 139.949,152.052L 157.541,152.052L 157.541,173.209 Z "/>
	<path fill="#F7D197" fill-opacity="1" stroke-width="8.16934" stroke-linecap="round" stroke-linejoin="miter" d="M 125.156,128.001C 125.156,128.001 120.875,123.795 119.361,126.316C 116.016,131.886 121.869,133.971 122.259,139.233C 122.538,142.998 125.092,142.969 126.109,141.102C 127.125,139.233 126.697,129.265 125.156,128.001 Z "/>
	<path fill="#F7D197" fill-opacity="1" stroke-width="8.16934" stroke-linecap="round" stroke-linejoin="miter" d="M 172.334,128.001C 172.334,128.001 176.615,123.795 178.129,126.316C 181.474,131.886 175.621,133.971 175.232,139.233C 174.952,142.998 172.397,142.969 171.382,141.102C 170.365,139.233 170.793,129.265 172.334,128.001 Z "/>
	<path fill="#FFDAA2" fill-opacity="1" stroke-width="8.16934" stroke-linecap="round" stroke-linejoin="miter" d="M 148.745,115.177C 131.902,108.659 124.378,115.177 124.378,115.177C 124.378,115.177 125.685,138.138 126.289,142.788C 127.722,153.809 142.175,161.156 148.745,161.156C 155.315,161.156 169.768,153.809 171.201,142.788C 171.805,138.138 173.112,115.177 173.112,115.177C 173.112,115.177 165.588,108.659 148.745,115.177 Z "/>
	<path fill="#333333" fill-opacity="1" stroke-width="8.16934" stroke-linecap="round" stroke-linejoin="miter" d="M 148.745,152.874C 143.706,152.874 141.098,151.455 141.098,149.373C 141.098,147.291 144.183,148.522 148.745,148.522C 153.307,148.522 156.392,147.291 156.392,149.373C 156.392,151.455 153.783,152.874 148.745,152.874 Z M 172.224,135.167L 171.27,135.167C 171.27,135.167 172.477,144.913 148.745,144.913C 125.013,144.913 126.22,135.167 126.22,135.167L 125.266,135.167C 125.266,135.167 123.915,146.189 128.413,152.483C 134.613,161.156 148.745,161.156 148.745,161.156C 148.745,161.156 162.877,161.156 169.077,152.483C 173.575,146.189 172.224,135.167 172.224,135.167 Z "/>
	<path fill="#4D4D4D" fill-opacity="1" stroke-width="8.16934" stroke-linecap="round" stroke-linejoin="miter" d="M 172.207,135.167C 172.207,135.167 171.858,127.374 176.086,125.593C 176.086,125.593 178.311,113.594 177.167,110.944L 172.397,114.884C 172.397,114.884 170.621,131.855 171.27,135.167L 172.207,135.167 Z "/>
	<path fill="#333333" fill-opacity="1" stroke-width="8.16934" stroke-linecap="round" stroke-linejoin="miter" d="M 125.249,135.167C 125.249,135.167 126.248,128.2 122.856,126.243C 122.856,126.243 116.889,106.497 122.039,101.293C 127.19,96.0887 132.836,91.9588 139.036,91.2962C 142.948,90.8784 151.459,90.4702 159.729,91.8262C 164.563,92.6189 172.057,95.9719 174.729,99.1387C 176.416,101.139 182.573,112.763 172.414,115.252C 161.205,117.999 153.136,119.208 127.428,114.461C 127.528,115.486 126.492,129.713 126.22,135.167C 126.22,135.167 125.76,135.42 125.249,135.167 Z "/>
	<path fill="none" stroke-width="6.59467" stroke-linejoin="miter" stroke="#E5E5E5" stroke-opacity="1" d="M 82.9819,230.288C 82.9819,230.288 86.5521,227.808 87.5044,230.288C 88.4571,232.767 86.909,236.427 85.2432,237.135C 83.5762,237.845 80.2442,236.309 80.2442,236.309"/>
	<path fill="#B2B2B2" fill-opacity="1" stroke-width="6.59467" stroke-linejoin="miter" d="M 60.9751,243.039C 61.0377,243.849 61.7112,244.489 62.5436,244.489L 84.4956,244.489C 85.3272,244.489 86.0015,243.849 86.0634,243.039L 60.9751,243.039 Z "/>
	<path fill="#F1F1F1" fill-opacity="1" stroke-width="6.59467" stroke-linejoin="miter" d="M 63.463,227.573L 63.463,232.945C 63.463,238.454 67.9651,242.922 73.5191,242.922C 79.0739,242.922 83.5764,238.454 83.5764,232.945L 83.5764,227.573L 63.463,227.573 Z "/>
	<rect x="59.5351" y="242.213" fill="#E5E5E5" fill-opacity="1" stroke-width="6.59467" stroke-linejoin="miter" width="27.9694" height="1.41719"/>
	<path fill="#333333" fill-opacity="1" stroke-width="6.59467" stroke-linejoin="miter" d="M 273.29,247.488C 273.29,249.16 271.923,250.515 270.238,250.515L 28.1497,250.515C 26.4642,250.515 25.0976,249.16 25.0976,247.488C 25.0976,245.815 26.4642,244.46 28.1497,244.46L 270.238,244.46C 271.923,244.46 273.29,245.815 273.29,247.488 Z "/>
	<path fill="#F1F1F1" fill-opacity="1" stroke-width="6.59467" stroke-linejoin="miter" d="M 148.745,177.665C 148.745,177.665 141.385,177.687 139.096,182.749C 139.096,182.749 136.653,173.476 139.949,169.549C 139.949,169.549 140.845,177.029 148.745,177.665 Z "/>
	<path fill="#F1F1F1" fill-opacity="1" stroke-width="6.59467" stroke-linejoin="miter" d="M 148.745,177.665C 148.745,177.665 156.105,177.687 158.394,182.749C 158.394,182.749 160.837,173.476 157.541,169.549C 157.541,169.549 156.645,177.029 148.745,177.665 Z "/>
	<path fill="#FFDAA2" fill-opacity="1" stroke-width="6.59467" stroke-linejoin="miter" d="M 132.939,244.46L 133.058,240.986C 133.058,237.561 130.26,234.786 126.81,234.786L 115.027,234.786C 111.576,234.786 108.778,237.561 108.778,240.986L 108.659,244.46L 132.939,244.46 Z "/>
	<path fill="#FFDAA2" fill-opacity="1" stroke-width="6.59467" stroke-linejoin="miter" d="M 191.238,244.46L 191.357,240.986C 191.357,237.561 188.559,234.786 185.108,234.786L 173.326,234.786C 169.874,234.786 167.077,237.561 167.077,240.986L 166.957,244.46L 191.238,244.46 Z "/>
	<path fill="#000000" fill-opacity="0.501961" stroke-width="6.59467" stroke-linejoin="miter" d="M 186.686,234.993C 191.083,232.994 198.04,228.34 198.04,228.34C 195.369,221.907 179.854,192.511 179.854,192.511L 178.51,234.786L 185.107,234.786C 185.654,234.786 186.181,234.862 186.686,234.993 Z "/>
	<path fill="#000000" fill-opacity="0.501961" stroke-width="6.59467" stroke-linejoin="miter" d="M 157.541,169.549C 167.147,169.549 183.923,172.199 187.103,174.848C 188.67,176.154 193.543,185.215 199.025,195.941L 199.025,172.501C 199.025,164.976 192.877,158.876 185.291,158.876L 160.332,158.876C 159.394,159.245 158.456,159.556 157.541,159.815L 157.541,169.549 Z "/>
	<path fill="#666666" fill-opacity="0.501961" stroke-width="6.59467" stroke-linejoin="miter" d="M 148.663,250.515L 148.663,289.402L 148.663,300L 258.793,300L 258.793,250.515L 148.663,250.515 Z "/>
	<path fill="#E5E5E5" fill-opacity="0.501961" stroke-width="6.59467" stroke-linejoin="miter" d="M 152.878,181.392L 151.115,184.239L 153.105,214.023C 154.512,202.932 155.989,190.594 156.845,180.582C 155.292,179.097 153.206,178.366 151.539,178.009L 152.878,181.392 Z "/>
	<path fill="#E5E5E5" fill-opacity="0.501961" stroke-width="6.59467" stroke-linejoin="miter" d="M 148.745,177.665C 148.717,177.665 148.691,177.664 148.663,177.664L 148.663,177.673C 148.711,177.671 148.758,177.668 148.807,177.666C 148.769,177.665 148.745,177.665 148.745,177.665 Z "/>
	<path fill="#007788" fill-opacity="0.501961" stroke-width="6.59467" stroke-linejoin="miter" d="M 167.077,240.985C 167.077,237.562 169.874,234.786 173.326,234.786L 178.51,234.786L 179.854,192.511C 179.854,192.511 195.369,221.907 198.04,228.34C 198.04,228.34 191.083,232.994 186.686,234.993C 189.372,235.688 191.357,238.103 191.357,240.985L 191.238,244.46L 212.974,244.46C 214.3,244.21 222.199,242.088 214.952,227.71C 210.954,219.777 204.667,206.977 199.026,195.941C 193.543,185.215 188.67,176.154 187.102,174.848C 183.923,172.199 167.147,169.549 157.542,169.549C 158.54,170.74 159.01,172.421 159.182,174.187C 160.904,179.783 159.797,169.701 158.51,180.477C 158.51,180.477 149.035,196.638 148.677,196.034L 148.663,244.46L 166.958,244.46L 167.077,240.985 Z "/>
	<path fill="#FFDAA2" fill-opacity="0.501961" stroke-width="6.59467" stroke-linejoin="miter" d="M 157.541,169.549L 157.541,159.815C 152.814,161.154 148.745,161.156 148.745,161.156C 148.745,161.156 148.711,161.156 148.662,161.156L 148.662,173.351L 148.662,177.664C 148.69,177.664 148.717,177.665 148.745,177.665C 156.645,177.028 157.541,169.549 157.541,169.549 Z "/>
	<path fill="#F7D197" fill-opacity="0.501961" stroke-width="6.59467" stroke-linejoin="miter" d="M 172.207,135.167L 172.224,135.167C 172.224,135.167 172.601,138.247 172.292,142.08C 173.463,142.776 175.017,142.123 175.232,139.233C 175.621,133.971 181.474,131.886 178.129,126.316C 177.646,125.512 176.881,125.394 176.063,125.604C 171.86,127.404 172.207,135.167 172.207,135.167 Z "/>
	<path fill="#FFDAA2" fill-opacity="0.501961" stroke-width="6.59467" stroke-linejoin="miter" d="M 171.27,135.167C 170.678,132.149 172.101,117.79 172.358,115.266C 165.058,117.052 159.077,118.183 148.663,117.434L 148.663,144.913C 148.69,144.913 148.717,144.913 148.745,144.913C 172.477,144.913 171.27,135.167 171.27,135.167 Z "/>
	<path fill="#FFDAA2" fill-opacity="0.501961" stroke-width="6.59467" stroke-linejoin="miter" d="M 156.392,149.373C 156.392,147.292 153.307,148.522 148.745,148.522C 148.717,148.522 148.69,148.521 148.662,148.521L 148.662,152.052L 148.662,152.873C 148.691,152.873 148.716,152.874 148.745,152.874C 153.783,152.874 156.392,151.455 156.392,149.373 Z "/>
	<path fill="#333333" fill-opacity="0.501961" stroke-width="6.59467" stroke-linejoin="miter" d="M 157.541,159.815C 158.456,159.556 159.394,159.245 160.332,158.876C 163.589,157.597 166.846,155.603 169.077,152.483C 171.197,149.515 172.017,145.498 172.292,142.08C 172.601,138.247 172.224,135.167 172.224,135.167L 172.207,135.167L 171.27,135.167C 171.27,135.167 172.477,144.913 148.745,144.913C 148.717,144.913 148.69,144.912 148.662,144.912L 148.662,148.521C 148.69,148.521 148.717,148.522 148.745,148.522C 153.307,148.522 156.392,147.291 156.392,149.373C 156.392,151.455 153.783,152.874 148.745,152.874C 148.716,152.874 148.691,152.873 148.662,152.873L 148.662,158.876L 148.662,161.153L 148.662,161.156C 148.711,161.156 148.745,161.156 148.745,161.156C 148.745,161.156 152.814,161.155 157.541,159.815 Z "/>
	<path fill="#4D4D4D" fill-opacity="0.501961" stroke-width="6.59467" stroke-linejoin="miter" d="M 172.414,115.252C 172.395,115.257 172.377,115.261 172.358,115.266C 172.101,117.79 170.678,132.149 171.27,135.167L 172.207,135.167C 172.207,135.167 171.86,127.404 176.086,125.593C 176.086,125.593 177.671,117.046 177.478,112.786C 175.999,113.912 174.319,114.785 172.414,115.252 Z "/>
	<path fill="#333333" fill-opacity="0.501961" stroke-width="6.59467" stroke-linejoin="miter" d="M 169.052,115.91C 169.06,115.907 173.923,115.33 176.135,113.639C 178.188,112.068 178.114,109.211 178.041,108.076C 177.51,99.7637 171.791,96.6387 171.791,96.6387C 164.479,91.0762 150.092,90.9672 148.663,90.8783L 148.663,115.026L 148.663,117.309C 157.535,118.057 162.833,117.693 169.052,115.91 Z "/>
	<path fill="#333333" fill-opacity="0.501961" stroke-width="6.59467" stroke-linejoin="miter" d="M 270.238,244.46L 212.974,244.46L 191.238,244.46L 166.957,244.46L 148.663,244.46L 148.663,244.489L 148.663,250.04L 148.663,250.515L 258.793,250.515L 270.238,250.515C 271.923,250.515 273.29,249.16 273.29,247.488C 273.29,245.815 271.923,244.46 270.238,244.46 Z "/>
	<path fill="#F1F1F1" fill-opacity="0.501961" stroke-width="6.59467" stroke-linejoin="miter" d="M 148.745,177.665C 148.745,177.665 148.769,177.665 148.807,177.666C 149.063,177.672 150.154,177.712 151.538,178.009C 153.206,178.366 155.292,179.097 156.845,180.582C 157.467,181.176 158.005,181.888 158.394,182.749C 158.394,182.749 159.579,178.246 159.182,174.186C 159.01,172.421 158.54,170.74 157.541,169.549C 157.541,169.549 156.645,177.029 148.745,177.665 Z "/>
	<path fill="#FFDAA2" fill-opacity="0.501961" stroke-width="6.59467" stroke-linejoin="miter" d="M 186.686,234.993C 186.181,234.862 185.654,234.786 185.107,234.786L 178.51,234.786L 173.326,234.786C 169.874,234.786 167.076,237.561 167.076,240.986L 166.958,244.46L 191.238,244.46L 191.357,240.986C 191.357,238.103 189.372,235.687 186.686,234.993 Z "/>
	<line fill="none" stroke-width="6.66667" stroke-linejoin="miter" stroke="#F1F1F1" stroke-opacity="1" x1="47.2166" y1="175.356" x2="47.2166" y2="176.292"/>
	<path fill="#F1F1F1" fill-opacity="1" stroke-linejoin="round" d="M 50.55,191.929L 50.55,198.785L 43.8833,198.785L 43.8833,191.929L 50.55,191.929 Z M 50.55,178.217L 50.55,185.073L 43.8833,185.073L 43.8833,178.217L 50.55,178.217 Z "/>
	<path fill="none" stroke-width="6.66667" stroke-linejoin="miter" stroke="#F1F1F1" stroke-opacity="1" d="M 47.2166,201.317L 47.2166,202.252L 48.1599,202.252"/>
	<path fill="#F1F1F1" fill-opacity="1" stroke-linejoin="round" d="M 63.4013,198.919L 70.0773,198.919L 70.0773,205.586L 63.4013,205.586L 63.4013,198.919 Z M 76.7533,198.919L 83.4293,198.919L 83.4293,205.586L 76.7533,205.586L 76.7533,198.919 Z M 90.1053,198.919L 96.7813,198.919L 96.7813,205.586L 90.1053,205.586L 90.1053,198.919 Z M 103.457,198.919L 110.133,198.919L 110.133,205.586L 103.457,205.586L 103.457,198.919 Z M 116.809,198.919L 123.485,198.919L 123.485,205.586L 116.809,205.586L 116.809,198.919 Z M 130.161,198.919L 136.837,198.919L 136.837,205.586L 130.161,205.586L 130.161,198.919 Z M 143.513,198.919L 150.189,198.919L 150.189,205.586L 143.513,205.586L 143.513,198.919 Z M 156.865,198.919L 163.541,198.919L 163.541,205.586L 156.865,205.586L 156.865,198.919 Z M 170.217,198.919L 176.893,198.919L 176.893,205.586L 170.217,205.586L 170.217,198.919 Z M 183.569,198.919L 190.245,198.919L 190.245,205.586L 183.569,205.586L 183.569,198.919 Z M 196.921,198.919L 203.597,198.919L 203.597,205.586L 196.921,205.586L 196.921,198.919 Z M 210.273,198.919L 216.949,198.919L 216.949,205.586L 210.273,205.586L 210.273,198.919 Z M 223.625,198.919L 230.301,198.919L 230.301,205.586L 223.625,205.586L 223.625,198.919 Z M 236.977,198.919L 243.653,198.919L 243.653,205.586L 236.977,205.586L 236.977,198.919 Z M 250.329,198.919L 257.005,198.919L 257.005,205.586L 250.329,205.586L 250.329,198.919 Z M 263.681,198.919L 264.49,198.919L 264.49,205.586L 263.681,205.586L 263.681,198.919 Z M 50.0493,198.919L 56.7253,198.919L 56.7253,205.586L 50.0493,205.586L 50.0493,198.919 Z "/>
	<path fill="none" stroke-width="6.66667" stroke-linejoin="miter" stroke="#F1F1F1" stroke-opacity="1" d="M 265.435,202.252L 266.378,202.252L 266.378,201.317"/>
	<path fill="#F1F1F1" fill-opacity="1" stroke-linejoin="round" d="M 263.045,185.3L 263.045,178.277L 269.711,178.277L 269.711,185.3L 263.045,185.3 Z M 263.045,171.254L 263.045,168.786L 269.711,168.786L 269.711,171.254L 263.045,171.254 Z M 263.045,199.345L 263.045,192.322L 269.711,192.322L 269.711,199.345L 263.045,199.345 Z "/>
	<line fill="none" stroke-width="6.66667" stroke-linejoin="miter" stroke="#F1F1F1" stroke-opacity="1" x1="266.378" y1="167.8" x2="266.378" y2="166.864"/>
	<path fill="#F1F1F1" fill-opacity="1" stroke-width="6.66667" stroke-linejoin="miter" d="M 45.0887,175.462C 45.0887,174.296 46.0415,173.351 47.2168,173.351C 48.3917,173.351 49.3444,174.296 49.3444,175.462C 49.3444,176.628 48.3917,177.573 47.2168,177.573C 46.0415,177.573 45.0887,176.628 45.0887,175.462 Z "/>
	<path fill="#F1F1F1" fill-opacity="1" stroke-width="6.66667" stroke-linejoin="miter" d="M 268.506,166.97C 268.506,165.804 267.553,164.859 266.378,164.859C 265.203,164.859 264.25,165.804 264.25,166.97C 264.25,168.135 265.203,169.081 266.378,169.081C 267.553,169.081 268.506,168.135 268.506,166.97 Z "/>
	<path fill="#666666" fill-opacity="1" stroke-width="6.66667" stroke-linejoin="miter" d="M 249.333,178.371C 249.333,174.948 246.535,172.172 243.084,172.172L 154.967,172.172C 151.517,172.172 148.719,174.948 148.719,178.371L 148.719,226.134C 148.719,229.557 151.517,232.333 154.967,232.333L 243.084,232.333C 246.535,232.333 249.333,229.557 249.333,226.134L 249.333,178.371 Z "/>
	<path fill="#989898" fill-opacity="1" stroke-width="6.66667" stroke-linejoin="miter" d="M 215.637,244.121L 182.414,244.121L 186.233,211.062L 212.165,211.062L 215.637,244.121 Z "/>
	<path fill="#666666" fill-opacity="1" stroke-width="6.66667" stroke-linejoin="miter" d="M 224.643,244.46C 224.472,242.947 223.181,241.771 221.611,241.771L 176.44,241.771C 174.87,241.771 173.579,242.947 173.408,244.46L 224.643,244.46 Z "/>
	<path fill="none" stroke-width="4" stroke-linecap="round" stroke-linejoin="miter" stroke="#666666" stroke-opacity="1" d="M 86.543,152.8L 93.8055,145.595L 86.3151,138.165"/>
	<path fill="none" stroke-width="4" stroke-linecap="round" stroke-linejoin="miter" stroke="#666666" stroke-opacity="1" d="M 51.4352,138.165L 44.1727,145.369L 51.6631,152.8"/>
	<g>
		<path fill="#666666" fill-opacity="1" stroke-linejoin="round" d="M 58.5991,109.7L 58.5991,113.802C 58.5991,114.318 58.5109,114.728 58.3344,115.031C 58.0646,115.503 57.6738,115.876 57.1619,116.15C 56.65,116.423 56.1119,116.56 55.5475,116.56C 54.8227,116.56 53.8333,116.25 52.5791,115.63L 52.5791,113.406C 52.5791,113.079 52.644,112.846 52.7738,112.708C 52.9036,112.569 53.0735,112.5 53.2835,112.5C 53.4876,112.5 53.6546,112.568 53.7844,112.706C 53.9142,112.843 53.9791,113.072 53.9791,113.392L 53.9791,114.703C 54.6091,115.008 55.1479,115.16 55.5957,115.16C 55.8334,115.16 56.0795,115.106 56.3339,114.999C 56.5884,114.892 56.7805,114.764 56.9103,114.615C 57.0401,114.467 57.1254,114.32 57.1663,114.176C 57.1882,114.097 57.1991,113.909 57.1991,113.611L 57.1991,109.7L 55.5191,109.7C 55.153,109.7 54.8982,109.636 54.7546,109.507C 54.6109,109.379 54.5391,109.21 54.5391,109C 54.5391,108.79 54.6109,108.621 54.7546,108.492C 54.8982,108.364 55.153,108.3 55.5191,108.3L 59.4391,108.3C 59.8051,108.3 60.06,108.364 60.2036,108.492C 60.3473,108.621 60.4191,108.79 60.4191,109C 60.4191,109.21 60.3473,109.379 60.2036,109.507C 60.06,109.636 59.8051,109.7 59.4391,109.7L 58.5991,109.7 Z "/>
		<path fill="#666666" fill-opacity="1" stroke-linejoin="round" d="M 65.5991,116.42L 65.5991,115.86C 65.2447,116.093 64.8535,116.268 64.4255,116.385C 63.9975,116.502 63.6085,116.56 63.2585,116.56C 62.5001,116.56 61.884,116.372 61.41,115.997C 60.9361,115.621 60.6991,115.206 60.6991,114.751C 60.6991,114.198 61.0017,113.685 61.6069,113.211C 62.2121,112.737 63.0485,112.5 64.116,112.5C 64.5433,112.5 65.0376,112.545 65.5991,112.636L 65.5991,112.323C 65.5991,112.127 65.5065,111.968 65.3213,111.845C 65.1361,111.722 64.7831,111.66 64.2625,111.66C 63.8367,111.66 63.284,111.728 62.6044,111.866C 62.3521,111.915 62.1611,111.94 62.0313,111.94C 61.8548,111.94 61.7053,111.875 61.5828,111.745C 61.4603,111.615 61.3991,111.449 61.3991,111.247C 61.3991,111.131 61.4221,111.032 61.468,110.948C 61.5139,110.864 61.5781,110.797 61.6605,110.746C 61.7429,110.695 61.9153,110.634 62.1778,110.564C 62.5264,110.472 62.8822,110.398 63.2453,110.343C 63.6085,110.288 63.9366,110.26 64.2297,110.26C 65.1076,110.26 65.7887,110.439 66.2728,110.798C 66.757,111.157 66.9991,111.647 66.9991,112.268L 66.9991,115.02L 67.2791,115.02C 67.6451,115.02 67.9,115.084 68.0436,115.212C 68.1873,115.341 68.2591,115.51 68.2591,115.72C 68.2591,115.93 68.1873,116.099 68.0436,116.227C 67.9,116.356 67.6451,116.42 67.2791,116.42L 65.5991,116.42 Z M 65.5991,114.038C 65.023,113.946 64.4915,113.9 64.0044,113.9C 63.4181,113.9 62.9143,114.017 62.4928,114.25C 62.2303,114.399 62.0991,114.55 62.0991,114.703C 62.0991,114.812 62.1625,114.902 62.2894,114.972C 62.5227,115.097 62.8436,115.16 63.2519,115.16C 63.599,115.16 63.9913,115.105 64.4288,114.994C 64.8663,114.883 65.2564,114.732 65.5991,114.541L 65.5991,114.038 Z "/>
		<path fill="#666666" fill-opacity="1" stroke-linejoin="round" d="M 72.8091,114.681L 74.1916,111.8C 73.8839,111.8 73.6848,111.76 73.5944,111.68C 73.3975,111.503 73.2991,111.31 73.2991,111.1C 73.2991,110.89 73.3709,110.721 73.5146,110.592C 73.6582,110.464 73.8839,110.4 74.1916,110.4L 76.0094,110.4C 76.3419,110.4 76.58,110.464 76.7236,110.592C 76.8673,110.721 76.9391,110.89 76.9391,111.1C 76.9391,111.31 76.8673,111.479 76.7236,111.607C 76.58,111.736 76.3419,111.8 76.0094,111.8L 75.7294,111.8L 73.5091,116.42L 72.1091,116.42L 69.8888,111.8L 69.7488,111.8C 69.4163,111.8 69.1782,111.736 69.0346,111.607C 68.8909,111.479 68.8191,111.31 68.8191,111.1C 68.8191,110.89 68.8909,110.721 69.0346,110.592C 69.1782,110.464 69.4163,110.4 69.7488,110.4L 71.4266,110.4C 71.7343,110.4 71.96,110.464 72.1036,110.592C 72.2473,110.721 72.3191,110.89 72.3191,111.1C 72.3191,111.31 72.2236,111.5 72.0325,111.671C 71.9363,111.757 71.7343,111.8 71.4266,111.8L 72.8091,114.681 Z "/>
		<path fill="#666666" fill-opacity="1" stroke-linejoin="round" d="M 82.3991,116.42L 82.3991,115.86C 82.0447,116.093 81.6535,116.268 81.2255,116.385C 80.7975,116.502 80.4085,116.56 80.0585,116.56C 79.3001,116.56 78.684,116.372 78.21,115.997C 77.7361,115.621 77.4991,115.206 77.4991,114.751C 77.4991,114.198 77.8017,113.685 78.4069,113.211C 79.0121,112.737 79.8485,112.5 80.916,112.5C 81.3433,112.5 81.8376,112.545 82.3991,112.636L 82.3991,112.323C 82.3991,112.127 82.3065,111.968 82.1213,111.845C 81.9361,111.722 81.5831,111.66 81.0625,111.66C 80.6367,111.66 80.084,111.728 79.4044,111.866C 79.1521,111.915 78.9611,111.94 78.8313,111.94C 78.6548,111.94 78.5053,111.875 78.3828,111.745C 78.2603,111.615 78.1991,111.449 78.1991,111.247C 78.1991,111.131 78.2221,111.032 78.268,110.948C 78.3139,110.864 78.3781,110.797 78.4605,110.746C 78.5429,110.695 78.7153,110.634 78.9778,110.564C 79.3264,110.472 79.6822,110.398 80.0453,110.343C 80.4085,110.288 80.7366,110.26 81.0297,110.26C 81.9076,110.26 82.5887,110.439 83.0728,110.798C 83.557,111.157 83.7991,111.647 83.7991,112.268L 83.7991,115.02L 84.0791,115.02C 84.4451,115.02 84.7,115.084 84.8436,115.212C 84.9873,115.341 85.0591,115.51 85.0591,115.72C 85.0591,115.93 84.9873,116.099 84.8436,116.227C 84.7,116.356 84.4451,116.42 84.0791,116.42L 82.3991,116.42 Z M 82.3991,114.038C 81.823,113.946 81.2915,113.9 80.8044,113.9C 80.2181,113.9 79.7143,114.017 79.2928,114.25C 79.0303,114.399 78.8991,114.55 78.8991,114.703C 78.8991,114.812 78.9625,114.902 79.0894,114.972C 79.3227,115.097 79.6436,115.16 80.0519,115.16C 80.399,115.16 80.7913,115.105 81.2288,114.994C 81.6663,114.883 82.0564,114.732 82.3991,114.541L 82.3991,114.038 Z "/>
	</g>
	<g>
		<path fill="#666666" fill-opacity="1" stroke-linejoin="round" d="M 54.7891,146.34L 54.7891,148.02L 55.3491,148.02C 55.7151,148.02 55.97,148.084 56.1136,148.212C 56.2573,148.341 56.3291,148.51 56.3291,148.72C 56.3291,148.93 56.2573,149.099 56.1136,149.227C 55.97,149.356 55.7151,149.42 55.3491,149.42L 53.1091,149.42C 52.743,149.42 52.4882,149.356 52.3446,149.227C 52.2009,149.099 52.1291,148.93 52.1291,148.72C 52.1291,148.51 52.2009,148.341 52.3446,148.212C 52.4882,148.084 52.743,148.02 53.1091,148.02L 53.3891,148.02L 53.3891,142.7L 53.1091,142.7C 52.743,142.7 52.4882,142.636 52.3446,142.507C 52.2009,142.379 52.1291,142.21 52.1291,142C 52.1291,141.79 52.2009,141.621 52.3446,141.492C 52.4882,141.364 52.743,141.3 53.1091,141.3L 56.2875,141.3C 57.2777,141.3 58.0455,141.541 58.591,142.022C 59.1364,142.503 59.4091,143.089 59.4091,143.778C 59.4091,144.209 59.2851,144.6 59.0372,144.952C 58.7893,145.304 58.4145,145.617 57.9128,145.889C 58.206,146.139 58.5195,146.459 58.8535,146.85C 59.0605,147.099 59.3398,147.489 59.6913,148.02C 60.0559,148.02 60.2892,148.064 60.3913,148.151C 60.5765,148.32 60.6691,148.51 60.6691,148.72C 60.6691,148.93 60.5973,149.099 60.4536,149.227C 60.31,149.356 60.0559,149.42 59.6913,149.42L 58.9891,149.42C 57.8574,147.712 56.919,146.686 56.1738,146.34L 54.7891,146.34 Z M 54.7891,144.94L 55.8675,144.94C 56.2671,144.94 56.6237,144.88 56.9372,144.761C 57.3601,144.603 57.6445,144.436 57.7903,144.26C 57.9362,144.083 58.0091,143.909 58.0091,143.737C 58.0091,143.482 57.8698,143.245 57.5913,143.027C 57.3127,142.809 56.9066,142.7 56.3728,142.7L 54.7891,142.7L 54.7891,144.94 Z "/>
		<path fill="#666666" fill-opacity="1" stroke-linejoin="round" d="M 63.1891,145.92L 63.1891,148.02L 66.6891,148.02L 66.6891,147.32C 66.6891,146.954 66.7533,146.699 66.8816,146.555C 67.0099,146.412 67.1791,146.34 67.3891,146.34C 67.5991,146.34 67.7683,146.412 67.8966,146.555C 68.0249,146.699 68.0891,146.954 68.0891,147.32L 68.0891,149.42L 61.5091,149.42C 61.143,149.42 60.8882,149.356 60.7446,149.227C 60.6009,149.099 60.5291,148.93 60.5291,148.72C 60.5291,148.51 60.6009,148.341 60.7446,148.212C 60.8882,148.084 61.143,148.02 61.5091,148.02L 61.7891,148.02L 61.7891,142.7L 61.5091,142.7C 61.143,142.7 60.8882,142.636 60.7446,142.507C 60.6009,142.379 60.5291,142.21 60.5291,142C 60.5291,141.79 60.6009,141.621 60.7446,141.492C 60.8882,141.364 61.143,141.3 61.5091,141.3L 67.8091,141.307L 67.8091,143.4C 67.8091,143.766 67.7449,144.021 67.6166,144.164C 67.4883,144.308 67.3191,144.38 67.1091,144.38C 66.8991,144.38 66.7299,144.308 66.6016,144.164C 66.4733,144.021 66.4091,143.766 66.4091,143.4L 66.4091,142.7L 63.1891,142.7L 63.1891,144.52L 64.4491,144.52C 64.4491,144.154 64.4907,143.925 64.5738,143.833C 64.7473,143.638 64.9391,143.54 65.1491,143.54C 65.3591,143.54 65.5283,143.612 65.6566,143.755C 65.7849,143.899 65.8491,144.154 65.8491,144.52L 65.8491,145.92C 65.8491,146.286 65.8061,146.516 65.72,146.611C 65.5494,146.804 65.3591,146.9 65.1491,146.9C 64.9391,146.9 64.7473,146.802 64.5738,146.607C 64.4907,146.515 64.4491,146.286 64.4491,145.92L 63.1891,145.92 Z "/>
		<path fill="#666666" fill-opacity="1" stroke-linejoin="round" d="M 71.1691,149C 71.0349,149.179 70.927,149.294 70.8453,149.344C 70.7637,149.395 70.663,149.42 70.5435,149.42C 70.3101,149.42 70.1227,149.348 69.9813,149.206C 69.8398,149.063 69.7691,148.825 69.7691,148.492L 69.7691,147.554C 69.7691,147.217 69.8329,146.977 69.9605,146.834C 70.0881,146.691 70.2576,146.62 70.4691,146.62C 70.6295,146.62 70.7648,146.661 70.8749,146.742C 70.985,146.824 71.0692,146.961 71.1275,147.154C 71.1859,147.346 71.2464,147.477 71.3091,147.545C 71.4374,147.679 71.666,147.815 71.9949,147.953C 72.3237,148.091 72.6843,148.16 73.0766,148.16C 73.6847,148.16 74.1842,148.021 74.575,147.744C 74.8244,147.577 74.9491,147.37 74.9491,147.123C 74.9491,146.958 74.8897,146.803 74.7708,146.658C 74.652,146.513 74.4584,146.393 74.19,146.298C 74.0136,146.233 73.6191,146.144 73.0066,146.031C 72.2672,145.897 71.7028,145.734 71.3135,145.54C 70.9241,145.347 70.616,145.075 70.3892,144.723C 70.1625,144.372 70.0491,143.992 70.0491,143.584C 70.0491,142.938 70.3232,142.372 70.8716,141.887C 71.4199,141.402 72.133,141.16 73.011,141.16C 73.3624,141.16 73.6887,141.206 73.9899,141.298C 74.291,141.39 74.5641,141.53 74.8091,141.72C 74.9943,141.44 75.1788,141.3 75.3625,141.3C 75.5711,141.3 75.741,141.372 75.8722,141.516C 76.0035,141.661 76.0691,141.901 76.0691,142.236L 76.0691,143.297C 76.0691,143.637 76.0053,143.879 75.8777,144.023C 75.7501,144.168 75.5849,144.24 75.3822,144.24C 75.213,144.24 75.0658,144.189 74.9403,144.087C 74.8412,144.012 74.7668,143.863 74.7172,143.638C 74.6676,143.414 74.6049,143.253 74.5291,143.155C 74.3993,142.987 74.2053,142.846 73.9472,142.732C 73.6891,142.617 73.3909,142.56 73.0525,142.56C 72.5582,142.56 72.1673,142.671 71.88,142.894C 71.5927,143.116 71.4491,143.348 71.4491,143.59C 71.4491,143.755 71.5074,143.914 71.6241,144.068C 71.7408,144.222 71.9114,144.342 72.136,144.428C 72.2862,144.489 72.708,144.587 73.4014,144.721C 74.0949,144.855 74.6326,145.004 75.0147,145.166C 75.3968,145.329 75.7147,145.584 75.9685,145.931C 76.2222,146.278 76.3491,146.691 76.3491,147.169C 76.3491,147.837 76.1158,148.371 75.6491,148.77C 75.0293,149.297 74.2389,149.56 73.2778,149.56C 72.9074,149.56 72.5465,149.513 72.195,149.42C 71.8436,149.327 71.5016,149.187 71.1691,149 Z "/>
		<path fill="#666666" fill-opacity="1" stroke-linejoin="round" d="M 82.0891,142.7L 82.0891,148.02L 83.0691,148.02C 83.4351,148.02 83.69,148.084 83.8336,148.212C 83.9773,148.341 84.0491,148.51 84.0491,148.72C 84.0491,148.93 83.9773,149.099 83.8336,149.227C 83.69,149.356 83.4351,149.42 83.0691,149.42L 79.7091,149.42C 79.343,149.42 79.0882,149.356 78.9446,149.227C 78.8009,149.099 78.7291,148.93 78.7291,148.72C 78.7291,148.51 78.8009,148.341 78.9446,148.212C 79.0882,148.084 79.343,148.02 79.7091,148.02L 80.6891,148.02L 80.6891,142.7L 79.1491,142.7L 79.1491,143.96C 79.1491,144.326 79.0849,144.581 78.9566,144.724C 78.8283,144.868 78.6591,144.94 78.4491,144.94C 78.2391,144.94 78.0699,144.868 77.9416,144.724C 77.8133,144.581 77.7491,144.326 77.7491,143.96L 77.7491,141.3L 85.0291,141.3L 85.0291,143.96C 85.0291,144.326 84.9649,144.581 84.8366,144.724C 84.7083,144.868 84.5391,144.94 84.3291,144.94C 84.1191,144.94 83.9499,144.868 83.8216,144.724C 83.6933,144.581 83.6291,144.326 83.6291,143.96L 83.6291,142.7L 82.0891,142.7 Z "/>
	</g>
	<g>
		<path fill="#666666" fill-opacity="1" stroke-linejoin="round" d="M 232.45,101.172L 232.45,105.3L 233.01,105.3C 233.376,105.3 233.631,105.364 233.775,105.493C 233.918,105.621 233.99,105.79 233.99,106C 233.99,106.21 233.918,106.379 233.775,106.508C 233.631,106.636 233.376,106.7 233.01,106.7L 231.05,106.7C 230.684,106.7 230.429,106.636 230.286,106.508C 230.142,106.379 230.07,106.21 230.07,106C 230.07,105.79 230.142,105.621 230.286,105.493C 230.429,105.364 230.684,105.3 231.05,105.3L 231.05,99.9801L 230.77,99.9801C 230.404,99.9801 230.149,99.916 230.006,99.7876C 229.862,99.6593 229.79,99.4901 229.79,99.2801C 229.79,99.0701 229.862,98.901 230.006,98.7726C 230.149,98.6443 230.404,98.5801 230.77,98.5801L 232.273,98.5801L 235.95,104.088L 235.95,99.9801L 235.39,99.9801C 235.024,99.9801 234.769,99.916 234.626,99.7876C 234.482,99.6593 234.41,99.4901 234.41,99.2801C 234.41,99.0701 234.482,98.901 234.626,98.7726C 234.769,98.6443 235.024,98.5801 235.39,98.5801L 237.35,98.5801C 237.716,98.5801 237.971,98.6443 238.115,98.7726C 238.258,98.901 238.33,99.0701 238.33,99.2801C 238.33,99.4901 238.258,99.6593 238.115,99.7876C 237.971,99.916 237.716,99.9801 237.35,99.9801L 237.35,106.7L 236.14,106.7L 232.45,101.172 Z "/>
		<path fill="#666666" fill-opacity="1" stroke-linejoin="round" d="M 246.31,103.782C 246.31,104.294 246.16,104.789 245.861,105.268C 245.561,105.747 245.115,106.129 244.523,106.414C 243.931,106.698 243.312,106.84 242.666,106.84C 242.025,106.84 241.413,106.7 240.827,106.42C 240.242,106.14 239.796,105.76 239.489,105.278C 239.183,104.797 239.03,104.294 239.03,103.769C 239.03,103.235 239.186,102.711 239.497,102.197C 239.808,101.683 240.255,101.278 240.838,100.983C 241.421,100.688 242.03,100.54 242.666,100.54C 243.307,100.54 243.924,100.691 244.516,100.993C 245.108,101.295 245.555,101.701 245.857,102.21C 246.159,102.72 246.31,103.244 246.31,103.782 Z M 244.91,103.784C 244.91,103.37 244.747,102.989 244.422,102.642C 243.976,102.174 243.391,101.94 242.666,101.94C 242.028,101.94 241.497,102.126 241.07,102.498C 240.643,102.87 240.43,103.301 240.43,103.791C 240.43,104.192 240.646,104.567 241.076,104.916C 241.507,105.266 242.037,105.44 242.666,105.44C 243.3,105.44 243.833,105.266 244.264,104.916C 244.695,104.567 244.91,104.19 244.91,103.784 Z "/>
		<path fill="#666666" fill-opacity="1" stroke-linejoin="round" d="M 249.25,106.28C 249.116,106.46 249.008,106.574 248.926,106.625C 248.845,106.675 248.744,106.7 248.624,106.7C 248.391,106.7 248.204,106.629 248.062,106.486C 247.921,106.343 247.85,106.105 247.85,105.773L 247.85,104.834C 247.85,104.497 247.914,104.257 248.042,104.115C 248.169,103.972 248.339,103.9 248.55,103.9C 248.711,103.9 248.846,103.941 248.956,104.023C 249.066,104.104 249.15,104.241 249.209,104.434C 249.267,104.626 249.327,104.757 249.39,104.825C 249.518,104.96 249.747,105.096 250.076,105.233C 250.405,105.371 250.765,105.44 251.158,105.44C 251.766,105.44 252.265,105.302 252.656,105.025C 252.905,104.857 253.03,104.65 253.03,104.403C 253.03,104.238 252.971,104.084 252.852,103.938C 252.733,103.793 252.539,103.673 252.271,103.579C 252.095,103.513 251.7,103.424 251.088,103.312C 250.348,103.178 249.784,103.014 249.394,102.821C 249.005,102.627 248.697,102.355 248.47,102.004C 248.243,101.652 248.13,101.272 248.13,100.864C 248.13,100.218 248.404,99.6524 248.953,99.1675C 249.501,98.6826 250.214,98.4401 251.092,98.4401C 251.443,98.4401 251.77,98.4861 252.071,98.5779C 252.372,98.6698 252.645,98.8105 252.89,99.0001C 253.075,98.7201 253.26,98.5801 253.444,98.5801C 253.652,98.5801 253.822,98.6523 253.953,98.7967C 254.084,98.9411 254.15,99.181 254.15,99.5164L 254.15,100.577C 254.15,100.917 254.086,101.159 253.959,101.304C 253.831,101.448 253.666,101.52 253.463,101.52C 253.294,101.52 253.147,101.469 253.021,101.367C 252.922,101.293 252.848,101.143 252.798,100.919C 252.749,100.694 252.686,100.533 252.61,100.435C 252.48,100.267 252.286,100.126 252.028,100.012C 251.77,99.8974 251.472,99.8401 251.134,99.8401C 250.639,99.8401 250.248,99.9513 249.961,100.174C 249.674,100.396 249.53,100.628 249.53,100.87C 249.53,101.035 249.588,101.195 249.705,101.348C 249.822,101.502 249.992,101.622 250.217,101.708C 250.367,101.77 250.789,101.867 251.482,102.001C 252.176,102.136 252.714,102.284 253.096,102.447C 253.478,102.609 253.796,102.864 254.049,103.211C 254.303,103.558 254.43,103.971 254.43,104.449C 254.43,105.117 254.197,105.651 253.73,106.05C 253.11,106.577 252.32,106.84 251.359,106.84C 250.988,106.84 250.627,106.793 250.276,106.7C 249.925,106.607 249.583,106.467 249.25,106.28 Z "/>
		<path fill="#666666" fill-opacity="1" stroke-linejoin="round" d="M 259.794,106.84L 259.752,106.904C 260.235,106.904 260.688,107.02 261.111,107.254C 261.283,107.351 261.426,107.4 261.539,107.4C 261.703,107.4 261.902,107.307 262.138,107.12C 262.373,106.933 262.56,106.84 262.697,106.84C 262.891,106.84 263.055,106.911 263.189,107.052C 263.323,107.194 263.39,107.37 263.39,107.58C 263.39,107.833 263.265,108.053 263.016,108.24C 262.522,108.613 262.024,108.8 261.524,108.8C 261.27,108.8 261.014,108.747 260.754,108.64C 260.337,108.467 260.006,108.38 259.761,108.38C 259.366,108.38 258.763,108.497 257.952,108.73C 257.784,108.777 257.656,108.8 257.567,108.8C 257.404,108.8 257.26,108.732 257.136,108.596C 257.012,108.459 256.95,108.288 256.95,108.083C 256.95,107.903 257.036,107.727 257.208,107.553L 258.055,106.7C 257.318,106.387 256.717,105.876 256.25,105.168C 255.783,104.46 255.55,103.644 255.55,102.721C 255.55,101.387 256.016,100.298 256.948,99.4551C 257.695,98.7785 258.534,98.4401 259.466,98.4401C 260.403,98.4401 261.246,98.7726 261.992,99.4376C 262.924,100.266 263.39,101.337 263.39,102.651C 263.39,103.778 263.038,104.735 262.332,105.522C 261.627,106.309 260.781,106.748 259.794,106.84 Z M 261.99,102.642C 261.99,101.834 261.733,101.165 261.219,100.635C 260.705,100.105 260.121,99.8401 259.466,99.8401C 258.817,99.8401 258.235,100.106 257.721,100.639C 257.207,101.171 256.95,101.839 256.95,102.642C 256.95,103.447 257.207,104.115 257.721,104.645C 258.235,105.175 258.817,105.44 259.466,105.44C 260.121,105.44 260.705,105.176 261.219,104.648C 261.733,104.12 261.99,103.452 261.99,102.642 Z "/>
		<path fill="#666666" fill-opacity="1" stroke-linejoin="round" d="M 267.17,99.9801L 267.17,105.3L 270.25,105.3L 270.25,104.04C 270.25,103.674 270.314,103.419 270.443,103.276C 270.571,103.132 270.74,103.06 270.95,103.06C 271.16,103.06 271.329,103.132 271.458,103.276C 271.586,103.419 271.65,103.674 271.65,104.04L 271.65,106.7L 264.93,106.7C 264.564,106.7 264.309,106.636 264.166,106.508C 264.022,106.379 263.95,106.21 263.95,106C 263.95,105.79 264.022,105.621 264.166,105.493C 264.309,105.364 264.564,105.3 264.93,105.3L 265.77,105.3L 265.77,99.9801L 264.93,99.9801C 264.564,99.9801 264.309,99.916 264.166,99.7876C 264.022,99.6593 263.95,99.4901 263.95,99.2801C 263.95,99.0701 264.022,98.901 264.166,98.7726C 264.309,98.6443 264.564,98.5801 264.93,98.5801L 268.01,98.5801C 268.376,98.5801 268.631,98.6443 268.775,98.7726C 268.918,98.901 268.99,99.0701 268.99,99.2801C 268.99,99.4901 268.918,99.6593 268.775,99.7876C 268.631,99.916 268.376,99.9801 268.01,99.9801L 267.17,99.9801 Z "/>
	</g>
	<g>
		<path fill="#666666" fill-opacity="1" stroke-linejoin="round" d="M 240.663,128.18L 240.663,135.211C 240.663,136.096 240.512,136.799 240.21,137.319C 239.747,138.129 239.077,138.768 238.2,139.237C 237.322,139.706 236.4,139.94 235.432,139.94C 234.19,139.94 232.493,139.409 230.343,138.346L 230.343,134.533C 230.343,133.973 230.455,133.574 230.677,133.336C 230.9,133.099 231.191,132.98 231.551,132.98C 231.901,132.98 232.187,133.098 232.41,133.333C 232.632,133.568 232.743,133.96 232.743,134.51L 232.743,136.756C 233.823,137.279 234.747,137.54 235.515,137.54C 235.922,137.54 236.344,137.448 236.78,137.264C 237.217,137.081 237.546,136.861 237.768,136.606C 237.991,136.351 238.137,136.1 238.207,135.853C 238.245,135.718 238.263,135.395 238.263,134.885L 238.263,128.18L 235.383,128.18C 234.756,128.18 234.319,128.07 234.073,127.85C 233.827,127.63 233.703,127.34 233.703,126.98C 233.703,126.62 233.827,126.33 234.073,126.11C 234.319,125.89 234.756,125.78 235.383,125.78L 242.103,125.78C 242.731,125.78 243.168,125.89 243.414,126.11C 243.66,126.33 243.783,126.62 243.783,126.98C 243.783,127.34 243.66,127.63 243.414,127.85C 243.168,128.07 242.731,128.18 242.103,128.18L 240.663,128.18 Z "/>
		<path fill="#666666" fill-opacity="1" stroke-linejoin="round" d="M 248.103,133.7L 248.103,137.3L 254.103,137.3L 254.103,136.1C 254.103,135.473 254.213,135.036 254.433,134.79C 254.653,134.543 254.943,134.42 255.303,134.42C 255.663,134.42 255.953,134.543 256.173,134.79C 256.393,135.036 256.503,135.473 256.503,136.1L 256.503,139.7L 245.223,139.7C 244.596,139.7 244.159,139.59 243.913,139.37C 243.667,139.15 243.543,138.86 243.543,138.5C 243.543,138.14 243.667,137.85 243.913,137.63C 244.159,137.41 244.596,137.3 245.223,137.3L 245.703,137.3L 245.703,128.18L 245.223,128.18C 244.596,128.18 244.159,128.07 243.913,127.85C 243.667,127.63 243.543,127.34 243.543,126.98C 243.543,126.62 243.667,126.33 243.913,126.11C 244.159,125.89 244.596,125.78 245.223,125.78L 256.023,125.791L 256.023,129.38C 256.023,130.008 255.913,130.445 255.693,130.691C 255.473,130.937 255.183,131.06 254.823,131.06C 254.463,131.06 254.173,130.937 253.953,130.691C 253.733,130.445 253.623,130.008 253.623,129.38L 253.623,128.18L 248.103,128.18L 248.103,131.3L 250.263,131.3C 250.263,130.673 250.335,130.28 250.477,130.123C 250.775,129.788 251.103,129.62 251.463,129.62C 251.823,129.62 252.113,129.743 252.333,129.99C 252.553,130.236 252.663,130.673 252.663,131.3L 252.663,133.7C 252.663,134.328 252.59,134.723 252.442,134.885C 252.15,135.215 251.823,135.38 251.463,135.38C 251.103,135.38 250.775,135.213 250.477,134.878C 250.335,134.72 250.263,134.328 250.263,133.7L 248.103,133.7 Z "/>
		<path fill="#666666" fill-opacity="1" stroke-linejoin="round" d="M 262.503,133.7L 262.503,137.3L 268.503,137.3L 268.503,136.1C 268.503,135.473 268.613,135.036 268.833,134.79C 269.053,134.543 269.343,134.42 269.703,134.42C 270.063,134.42 270.353,134.543 270.573,134.79C 270.793,135.036 270.903,135.473 270.903,136.1L 270.903,139.7L 259.623,139.7C 258.996,139.7 258.559,139.59 258.313,139.37C 258.067,139.15 257.943,138.86 257.943,138.5C 257.943,138.14 258.067,137.85 258.313,137.63C 258.559,137.41 258.996,137.3 259.623,137.3L 260.103,137.3L 260.103,128.18L 259.623,128.18C 258.996,128.18 258.559,128.07 258.313,127.85C 258.067,127.63 257.943,127.34 257.943,126.98C 257.943,126.62 258.067,126.33 258.313,126.11C 258.559,125.89 258.996,125.78 259.623,125.78L 270.423,125.791L 270.423,129.38C 270.423,130.008 270.313,130.445 270.093,130.691C 269.873,130.937 269.583,131.06 269.223,131.06C 268.863,131.06 268.573,130.937 268.353,130.691C 268.133,130.445 268.023,130.008 268.023,129.38L 268.023,128.18L 262.503,128.18L 262.503,131.3L 264.663,131.3C 264.663,130.673 264.735,130.28 264.877,130.123C 265.175,129.788 265.503,129.62 265.863,129.62C 266.223,129.62 266.513,129.743 266.733,129.99C 266.953,130.236 267.063,130.673 267.063,131.3L 267.063,133.7C 267.063,134.328 266.99,134.723 266.842,134.885C 266.55,135.215 266.223,135.38 265.863,135.38C 265.503,135.38 265.175,135.213 264.877,134.878C 264.735,134.72 264.663,134.328 264.663,133.7L 262.503,133.7 Z "/>
	</g>
</svg>
