<svg width="1648" height="1657" viewBox="0 0 1648 1657" version="1.1" xmlns="http://www.w3.org/2000/svg" xmlns:xlink="http://www.w3.org/1999/xlink">
<title>DynamicSolutionLogoMale</title>
<desc>Created using Figma</desc>
<g id="Canvas" transform="translate(-4030 -723)">
<g id="DynamicSolutionLogoMale">
<g id="Vector">
<use xlink:href="#path0_fill" transform="translate(4030 1237.22)" fill="#33C6F4"/>
</g>
<g id="Vector">
<use xlink:href="#path1_fill" transform="translate(5024.16 1237.2)" fill="#33C6F4"/>
</g>
<g id="Vector">
<use xlink:href="#path2_fill" transform="translate(4187.78 723)" fill="#33C6F4"/>
</g>
</g>
</g>
<defs>
<path id="path0_fill" d="M 497.328 621.649C 526.475 610.168 551.48 594.116 572.471 573.299C 593.419 552.612 609.581 527.74 621 498.662C 632.482 469.52 638.17 436.965 638.17 401.106L 638.17 237.625C 638.17 202.13 632.482 169.833 621 140.455C 609.581 111.055 593.398 86.1184 572.471 65.3238C 551.48 44.7009 526.475 28.5201 497.328 17.1035C 468.18 5.75125 435.942 7.98981e-05 400.506 7.98981e-05L 54.8389 7.98981e-05C 27.9883 65.3238 9.37953 134.961 3.66806e-05 207.388L 3.66806e-05 421.128C 9.83026 497.31 29.834 570.424 58.9169 638.709L 400.528 638.709C 435.942 638.688 468.18 633.022 497.328 621.649Z"/>
<path id="path1_fill" d="M 28.9755 31.4387C 9.70145 52.362 4.19206e-05 80.0881 4.19206e-05 114.596C 4.19206e-05 149.532 9.70145 177.087 28.9755 197.388C 48.357 217.689 75.2933 227.753 109.742 227.753L 527.741 227.753L 529.158 227.753C 548.732 228.247 569.466 230.972 591.402 235.844C 612.264 240.543 633.148 247.775 653.838 257.389C 647.657 166.829 626.966 80.2597 594.063 -7.20392e-05L 109.742 -7.20392e-05C 75.2933 0.0213878 48.357 10.451 28.9755 31.4387Z"/>
<path id="path2_fill" d="M 663.068 1334.67L 663.068 1152.91L 1364.13 1152.91C 1393.4 1152.91 1416.8 1145.31 1435.15 1131C 1450.15 1092.65 1462.43 1052.91 1471.7 1011.96C 1470.46 1005.67 1469.04 999.428 1466.94 993.634C 1461.81 979.62 1454.4 967.581 1444.89 957.345C 1435.32 946.98 1423.58 939.061 1409.89 933.632C 1396.17 927.945 1380.97 925.112 1364.13 925.112L 946.126 925.112C 916.808 925.112 885.063 919.919 851.151 909.447C 817.067 898.888 785.516 882.042 756.369 858.694C 727.286 835.432 703.011 804.98 683.758 767.189C 664.313 729.463 654.676 683.281 654.676 628.838C 654.676 574.394 664.313 528.32 683.758 490.851C 703.011 453.296 727.286 422.802 756.369 399.282C 785.516 375.74 817.067 358.701 851.151 348.272C 885.063 337.778 916.808 332.542 946.126 332.542L 1327.51 332.542C 1176.41 130.648 935.331 -4.06039e-05 663.755 -4.06039e-05C 392.243 -4.06039e-05 151.166 130.648 -7.86012e-06 332.542L 242.751 332.542C 302.827 332.542 358.588 342.971 409.843 364.023C 461.033 384.947 505.248 413.982 542.615 450.957C 579.854 487.997 609.13 532.268 630.293 583.815C 651.542 635.233 662.166 691.243 662.166 751.867L 662.166 915.348C 662.166 976.401 651.542 1032.48 630.293 1083.85C 609.13 1135.03 579.854 1179.18 542.615 1216.17C 505.248 1253.28 461.033 1282.29 409.843 1303.21C 358.588 1324.22 302.827 1334.69 242.751 1334.69L 8.0273 1334.69C 159.559 1530.67 396.793 1657 663.755 1657C 930.695 1657 1167.95 1530.67 1319.48 1334.69L 663.068 1334.69L 663.068 1334.67Z"/>
</defs>
</svg>
