<?xml version="1.0" encoding="utf-8"?>
<!DOCTYPE svg PUBLIC "-//W3C//DTD SVG 1.1//EN" "http://www.w3.org/Graphics/SVG/1.1/DTD/svg11.dtd">
<svg xmlns="http://www.w3.org/2000/svg" xmlns:xlink="http://www.w3.org/1999/xlink" version="1.1" baseProfile="full" width="50" height="50" viewBox="0 0 50.00 50.00" enable-background="new 0 0 50.00 50.00" xml:space="preserve">
	<ellipse fill="#5791B9" fill-opacity="1" stroke-width="0.2" stroke-linejoin="round" cx="25" cy="25" rx="25" ry="25"/>
	<ellipse fill="#FFFFFF" fill-opacity="1" stroke-width="0.2" stroke-linejoin="round" cx="24.9767" cy="25" rx="20.2733" ry="20.2733"/>
	<ellipse fill="#FFFFFF" fill-opacity="1" stroke-width="0.2" stroke-linejoin="round" cx="25" cy="25" rx="9.88663" ry="9.88663"/>
	<path fill="#5791B9" fill-opacity="1" stroke-linejoin="round" d="M 40.6469,35.5047C 37.8091,34.0507 34.8652,32.8399 31.887,31.6992C 31.6651,31.616 31.4024,31.4495 31.3142,31.2521C 31.0711,30.7168 30.9063,30.1441 30.7268,29.5827C 30.6191,29.2253 30.5228,28.8875 30.1279,28.7096C 30.0267,28.664 29.9239,28.4534 29.9304,28.3262C 29.95,27.0207 29.6432,25.6434 30.6125,24.5076L 30.6762,24.3738C 31.1984,23.2331 31.2947,21.926 32.047,20.7722C 32.1302,19.9628 32.2183,19.1534 32.2885,18.3375C 32.295,18.2363 32.2134,18.0568 32.1237,18.0323C 31.7222,17.8855 31.7418,17.5673 31.7418,17.2409C 31.7467,15.6547 31.7418,14.0669 31.7418,12.4791C 31.7418,11.562 31.4676,10.7395 30.7725,10.1145C 29.981,9.40141 29.4735,8.91764 28.6575,8.229C 28.2626,7.89773 26.2869,7.61057 25.3593,7.54759C 23.6586,7.81672 21.9686,7.87724 20.5978,9.01139C 19.6546,9.78326 18.9088,10.6824 18.8142,11.9634C 18.7619,12.626 18.7685,13.3016 18.7685,13.9706C 18.7554,15.0542 18.775,16.1443 18.7505,17.2344C 18.7505,17.4139 18.6477,17.706 18.5269,17.7451C 18.0798,17.8855 18.0733,18.1727 18.132,18.535C 18.1696,18.7846 18.1386,19.0523 18.1957,19.3003C 18.3474,19.9824 18.5074,20.658 18.7048,21.3336C 18.8517,21.8313 19.1389,22.3029 19.2156,22.8121C 19.3739,23.8255 19.7508,24.7116 20.433,25.4769C 20.5472,25.6042 20.6304,25.8147 20.6239,25.9812C 20.5668,26.7645 20.4901,27.5429 20.3824,28.3196C 20.3628,28.473 20.2029,28.6966 20.0691,28.7211C 19.5534,28.8304 19.4702,29.2318 19.3494,29.6333C 19.183,30.1685 19.0116,30.6973 18.8011,31.2211C 18.7375,31.3794 18.5775,31.5458 18.4176,31.616C 17.494,32.0174 16.5573,32.3879 15.6255,32.7763C 14.6382,33.1908 13.6444,33.5922 12.6751,34.0507C 11.6813,34.5289 10.7119,35.0641 9.74261,35.588C 9.1682,35.8931 8.008,36.7126 7.5625,37.1402L 12.9909,44.5612L 36.9719,46.0729L 42.8125,37.1402C 42.3915,36.7126 41.2132,35.7968 40.6469,35.5047 Z "/>
</svg>
