<?xml version="1.0" encoding="utf-8"?>
<!DOCTYPE svg PUBLIC "-//W3C//DTD SVG 1.1//EN" "http://www.w3.org/Graphics/SVG/1.1/DTD/svg11.dtd">
<svg xmlns="http://www.w3.org/2000/svg" xmlns:xlink="http://www.w3.org/1999/xlink" version="1.1" baseProfile="full" width="80" height="80" viewBox="0 0 80.00 80.00" enable-background="new 0 0 80.00 80.00" xml:space="preserve">
	<path fill="#5791B9" fill-opacity="1" stroke-width="2" stroke-linejoin="round" stroke="#FFFFFF" stroke-opacity="1" d="M 6.00003,31.5473L 75,31.5473C 76.1045,31.5473 77,32.4427 77,33.5473L 77,40.7035C 77,41.8081 76.1045,42.7035 75,42.7035L 6.00003,42.7035C 4.89546,42.7035 4.00003,41.8081 4.00003,40.7035L 4.00003,33.5473C 4.00003,32.4427 4.89546,31.5473 6.00003,31.5473 Z "/>
	<path fill="#5791B9" fill-opacity="1" stroke-width="2" stroke-linejoin="round" stroke="#FFFFFF" stroke-opacity="1" d="M 7.66639,64.9895L 30.1704,15.377C 30.6266,14.3711 31.812,13.9255 32.8179,14.3818L 37.5232,16.5161C 38.5291,16.9724 38.9747,18.1577 38.5184,19.1637L 16.0144,68.7761C 15.5581,69.782 14.3728,70.2276 13.3668,69.7713L 8.6616,67.637C 7.65568,67.1808 7.21011,65.9954 7.66639,64.9895 Z "/>
	<path fill="#5791B9" fill-opacity="1" fill-rule="evenodd" stroke-linecap="round" stroke-linejoin="round" stroke="#5791B9" stroke-opacity="1" d="M 13.125,72.1512L 7.30623,69.5016L 7.921,75.8656L 13.125,72.1512 Z "/>
	<path fill="#5791B9" fill-opacity="1" stroke-width="2" stroke-linejoin="round" stroke="#FFFFFF" stroke-opacity="1" d="M 61.7359,56.6597C 62.6437,55.4843 63.8045,54.5107 65.1957,53.881C 66.2315,53.4124 67.3077,53.1636 68.3822,53.07C 68.466,51.8948 67.961,50.0487 66.5018,47.0187L 57.6852,52.0705C 59.4448,54.6991 60.7215,56.0631 61.7359,56.6597 Z "/>
	<path fill="#5791B9" fill-opacity="1" stroke-width="2" stroke-linejoin="round" stroke="#FFFFFF" stroke-opacity="1" d="M 36.3835,-7.62939e-006C 33.7151,1.67472 46.3404,31.4211 54.4422,46.9764C 54.8964,47.8482 55.3278,48.6529 55.7371,49.3972L 65.3509,43.3628C 64.9751,42.5968 64.5622,41.7829 64.1081,40.9111C 56.0049,25.3562 39.053,-1.67542 36.3835,-7.62939e-006 Z "/>
	<path fill="#5791B9" fill-opacity="1" stroke-width="2" stroke-linejoin="round" stroke="#FFFFFF" stroke-opacity="1" d="M 62.0775,60.405C 61.6564,61.9565 61.7518,63.6549 62.4649,65.2323C 68.4252,73.4795 72.9252,72.2295 77.0163,80C 78.2904,78.9201 78.7116,74.4587 78.8054,72.6931C 78.8054,67.1931 78.6446,62.6328 76.1941,59.0897C 73.9004,55.4229 69.6454,54.1152 66.0406,55.747C 64.012,56.6654 62.6185,58.4115 62.0775,60.405 Z "/>
</svg>
